<svg width="21" height="16" viewBox="0 0 21 16" fill="none" xmlns="http://www.w3.org/2000/svg">
<path d="M1.99083 4.86489C1.91621 4.31767 1.41211 3.93455 0.864887 4.00917C0.317666 4.08379 -0.0654511 4.58789 0.00916983 5.13511L1.99083 4.86489ZM11 14.5L10.9233 13.5029L11 14.5ZM20.4701 5.24254C20.6041 4.70674 20.2783 4.16381 19.7425 4.02986C19.2067 3.89591 18.6638 4.22167 18.5299 4.75746L20.4701 5.24254ZM0.00916983 5.13511C0.280061 7.12165 1.21667 9.80291 2.97713 11.9471C4.76298 14.1221 7.43489 15.7772 11.0767 15.4971L10.9233 13.5029C8.06511 13.7228 5.98702 12.4612 4.52287 10.6779C3.03333 8.86375 2.21994 6.54502 1.99083 4.86489L0.00916983 5.13511ZM11.0767 15.4971C14.1612 15.2598 16.3557 13.2795 17.8178 11.1653C19.2827 9.04702 20.1175 6.65299 20.4701 5.24254L18.5299 4.75746C18.2158 6.01367 17.4611 8.16499 16.1729 10.0277C14.8819 11.8945 13.1598 13.3309 10.9233 13.5029L11.0767 15.4971Z" fill="#034783"/>
<path d="M7.5 1.20119C7.5 0.56215 7.1 0.00296885 6.7 0.00288217C6.7 0.00288217 5.5 -0.117704 5.5 1.20109C5.5 2.00009 6.3 2.0001 6.7 2H6.70032C7.10021 1.99989 7.5 1.99979 7.5 1.20119Z" fill="#034783"/>
<path d="M15.5 1.20119C15.5 0.56215 15.1 0.00296885 14.7 0.00288217C14.7 0.00288217 13.5 -0.117704 13.5 1.20109C13.5 2.00009 14.3 2.0001 14.7 2H14.7003C15.1002 1.99989 15.5 1.99979 15.5 1.20119Z" fill="#034783"/>
</svg>
