<svg width="273" height="28" viewBox="0 0 273 28" fill="none" xmlns="http://www.w3.org/2000/svg">
<path d="M2.12 2.51V5.18L4.68 2.51H6.3L3.44 5.43L6.49 9H4.96L2.65 6.25L2.12 6.79V9H0.93V2.51H2.12ZM7.57297 4.13H8.75297V9H7.57297V4.13ZM7.43297 2.57C7.43297 2.35667 7.4963 2.19 7.62297 2.07C7.74964 1.94333 7.92964 1.88 8.16297 1.88C8.38964 1.88 8.5663 1.94333 8.69297 2.07C8.8263 2.19 8.89297 2.35667 8.89297 2.57C8.89297 2.78333 8.8263 2.95333 8.69297 3.08C8.5663 3.2 8.38964 3.26 8.16297 3.26C7.92964 3.26 7.74964 3.2 7.62297 3.08C7.4963 2.95333 7.43297 2.78333 7.43297 2.57ZM15.0742 5.06C15.3876 4.36 15.9376 4.01 16.7242 4.01C17.3042 4.01 17.7542 4.20667 18.0742 4.6C18.3809 4.97333 18.5342 5.49333 18.5342 6.16V9H17.3442V6.16C17.3442 5.8 17.2576 5.53 17.0842 5.35C16.9109 5.16333 16.6676 5.07 16.3542 5.07C16.0409 5.07 15.7842 5.20667 15.5842 5.48C15.3842 5.75333 15.2776 6.16667 15.2642 6.72V9H14.0842V6.16C14.0842 5.8 13.9976 5.53 13.8242 5.35C13.6509 5.16333 13.4076 5.07 13.0942 5.07C12.7809 5.07 12.5109 5.21 12.2842 5.49C12.0642 5.77 11.9476 6.19 11.9342 6.75V9H10.7542V4.14H11.7842L11.9142 4.98C12.2342 4.33333 12.7476 4.01 13.4542 4.01C13.8609 4.01 14.1976 4.10333 14.4642 4.29C14.7376 4.47667 14.9409 4.73333 15.0742 5.06ZM20.8464 4.14L22.0164 7.64L23.0364 4.14H24.2364L22.3764 9.88C22.1831 10.46 21.9464 10.8767 21.6664 11.13C21.3931 11.3833 21.0431 11.51 20.6164 11.51C20.1831 11.51 19.7497 11.4033 19.3164 11.19V10.15C19.6631 10.37 20.0131 10.48 20.3664 10.48C20.5997 10.48 20.7897 10.3867 20.9364 10.2C21.0897 10.0133 21.2131 9.77 21.3064 9.47L21.4564 9L19.5064 4.14H20.8464ZM28.6755 4.72C28.8421 4.93333 28.9655 5.18 29.0455 5.46C29.1321 5.74 29.1755 5.99667 29.1755 6.23C29.1755 6.46333 29.1621 6.67333 29.1355 6.86H25.9955C26.0088 7.25333 26.1055 7.57333 26.2855 7.82C26.4655 8.06667 26.7388 8.19 27.1055 8.19C27.5921 8.19 27.8821 7.97667 27.9755 7.55H29.1655C29.0855 8.03667 28.8621 8.42 28.4955 8.7C28.1155 8.99333 27.6521 9.14 27.1055 9.14C26.4655 9.14 25.9288 8.90667 25.4955 8.44C25.0488 7.95333 24.8255 7.33 24.8255 6.57C24.8255 5.79 25.0488 5.16333 25.4955 4.69C25.9221 4.23667 26.4588 4.01 27.1055 4.01C27.7788 4.01 28.3021 4.24667 28.6755 4.72ZM27.1155 4.95C26.7821 4.95 26.5221 5.06 26.3355 5.28C26.1488 5.49333 26.0388 5.77 26.0055 6.11H28.0755C28.0755 5.58333 27.9088 5.23 27.5755 5.05C27.4488 4.98333 27.2955 4.95 27.1155 4.95ZM31.7682 5.1C32.0615 4.4 32.5015 4.05 33.0882 4.05C33.2015 4.05 33.3449 4.07333 33.5182 4.12L33.4982 5.3C33.3115 5.26 33.1282 5.24 32.9482 5.24C32.1615 5.24 31.7682 5.78333 31.7682 6.87V9H30.5882V4.13H31.7682V5.1ZM34.8484 4.13H36.0284V9H34.8484V4.13ZM34.7084 2.57C34.7084 2.35667 34.7717 2.19 34.8984 2.07C35.025 1.94333 35.205 1.88 35.4384 1.88C35.665 1.88 35.8417 1.94333 35.9684 2.07C36.1017 2.19 36.1684 2.35667 36.1684 2.57C36.1684 2.78333 36.1017 2.95333 35.9684 3.08C35.8417 3.2 35.665 3.26 35.4384 3.26C35.205 3.26 35.025 3.2 34.8984 3.08C34.7717 2.95333 34.7084 2.78333 34.7084 2.57ZM42.3496 5.06C42.6629 4.36 43.2129 4.01 43.9996 4.01C44.5796 4.01 45.0296 4.20667 45.3496 4.6C45.6563 4.97333 45.8096 5.49333 45.8096 6.16V9H44.6196V6.16C44.6196 5.8 44.5329 5.53 44.3596 5.35C44.1863 5.16333 43.9429 5.07 43.6296 5.07C43.3163 5.07 43.0596 5.20667 42.8596 5.48C42.6596 5.75333 42.5529 6.16667 42.5396 6.72V9H41.3596V6.16C41.3596 5.8 41.2729 5.53 41.0996 5.35C40.9263 5.16333 40.6829 5.07 40.3696 5.07C40.0563 5.07 39.7863 5.21 39.5596 5.49C39.3396 5.77 39.2229 6.19 39.2096 6.75V9H38.0296V4.14H39.0596L39.1896 4.98C39.5096 4.33333 40.0229 4.01 40.7296 4.01C41.1363 4.01 41.4729 4.10333 41.7396 4.29C42.0129 4.47667 42.2163 4.73333 42.3496 5.06Z" fill="black"/>
<path d="M60.3714 7.3H58.8314L58.6914 8.69H57.9514L58.0914 7.3H57.1014L57.1514 6.76H58.1514L58.3414 4.98H57.3314L57.3914 4.45H58.3914L58.5414 3.07H59.2814L59.1314 4.45H60.6714L60.8214 3.07H61.5514L61.4014 4.45H62.4314L62.3714 4.98H61.3514L61.1614 6.76H62.1914L62.1314 7.3H61.1014L60.9614 8.69H60.2214L60.3714 7.3ZM58.8914 6.76H60.4214L60.6114 4.98H59.0814L58.8914 6.76ZM63.9409 1.7V2.37H67.1709C67.1409 2.92 67.0509 3.44 66.9009 3.94L63.4909 4.17L63.6309 4.89L66.6509 4.6C66.1009 5.8 65.1109 6.82 63.4509 7.64L63.9009 8.27C67.1109 6.67 67.9909 4.3 67.9909 1.7H63.9409ZM71.7109 4.41H70.2709V0.77H69.4509V9.74H70.2709V5.09H71.7109V4.41ZM74.1402 2.57H75.2602V6.78C74.8802 6.8 74.5102 6.81 74.1402 6.82V2.57ZM76.0102 2.57H76.7502V1.91H72.6502V2.57H73.3902V6.84C73.0502 6.85 72.7502 6.85 72.4802 6.85L72.5602 7.53C73.7302 7.53 75.6102 7.49 77.0002 7.23L76.9502 6.63C76.6602 6.67 76.3302 6.7 76.0102 6.73V2.57ZM77.7102 4.19H76.4802V4.91H77.7102V9.27H78.4802V0.989999H77.7102V4.19ZM79.4402 0.78V9.74H80.2302V0.78H79.4402ZM88.9994 4.62H83.6594V3.52H88.6794V2.89H83.6594V1.85H88.8894V1.19H82.8494V5.28H88.9994V4.62ZM89.8994 6.2H81.7594V6.87H85.4194V9.74H86.2394V6.87H89.8994V6.2ZM93.3686 6.99C92.5086 6.99 91.9086 6.05 91.9086 4.59C91.9086 3.14 92.5086 2.2 93.3686 2.2C94.2186 2.2 94.8186 3.14 94.8186 4.59C94.8186 6.05 94.2186 6.99 93.3686 6.99ZM97.5386 0.77V4.19H95.5886C95.4586 2.51 94.5786 1.46 93.3686 1.46C92.0586 1.46 91.1286 2.68 91.1286 4.59C91.1286 6.5 92.0586 7.72 93.3686 7.72C94.6186 7.72 95.5086 6.62 95.5886 4.86H97.5386V9.76H98.3586V0.77H97.5386Z" fill="#026198"/>
<path d="M109.229 7.3H107.689L107.549 8.69H106.809L106.949 7.3H105.959L106.009 6.76H107.009L107.199 4.98H106.189L106.249 4.45H107.249L107.399 3.07H108.139L107.989 4.45H109.529L109.679 3.07H110.409L110.259 4.45H111.289L111.229 4.98H110.209L110.019 6.76H111.049L110.989 7.3H109.959L109.819 8.69H109.079L109.229 7.3ZM107.749 6.76H109.279L109.469 4.98H107.939L107.749 6.76ZM117.458 4.09C116.028 4.37 114.748 4.46 113.478 4.47V1.22H112.668V5.16H113.368C114.708 5.16 116.048 5.06 117.558 4.76L117.458 4.09ZM114.338 6.99H118.388V8.95H114.338V6.99ZM113.538 9.61H119.188V6.33H113.538V9.61ZM120.498 2.71V2.04H119.188V0.78H118.368V5.84H119.188V4.58H120.498V3.9H119.188V2.71H120.498ZM126.657 4.09C125.227 4.37 123.947 4.46 122.677 4.47V1.22H121.867V5.16H122.567C123.907 5.16 125.247 5.06 126.757 4.76L126.657 4.09ZM123.537 6.99H127.587V8.95H123.537V6.99ZM122.737 9.61H128.387V6.33H122.737V9.61ZM129.697 2.71V2.04H128.387V0.78H127.567V5.84H128.387V4.58H129.697V3.9H128.387V2.71H129.697Z" fill="#026198"/>
<path d="M138.8 7.3H137.26L137.12 8.69H136.38L136.52 7.3H135.53L135.58 6.76H136.58L136.77 4.98H135.76L135.82 4.45H136.82L136.97 3.07H137.71L137.56 4.45H139.1L139.25 3.07H139.98L139.83 4.45H140.86L140.8 4.98H139.78L139.59 6.76H140.62L140.56 7.3H139.53L139.39 8.69H138.65L138.8 7.3ZM137.32 6.76H138.85L139.04 4.98H137.51L137.32 6.76ZM143.19 7.22H148.36V9.75H149.19V6.56H143.19V7.22ZM145.5 4.8H143.02V2.1H145.5V4.8ZM148.36 0.78V3.02H146.3V1.44H142.21V5.45H146.3V3.69H148.36V6.06H149.19V0.78H148.36ZM158.729 5.28C157.159 4.98 155.459 3.62 155.459 2.09V1.4H154.599V2.09C154.599 3.62 152.909 4.97 151.339 5.28L151.709 5.96C153.059 5.64 154.459 4.68 155.029 3.37C155.599 4.69 156.999 5.65 158.359 5.96L158.729 5.28ZM150.999 7.86V8.54H159.129V7.86H150.999ZM161.408 4.76H164.568V4.1H161.408V2.25H164.768V1.58H160.588V7.58H161.288C162.978 7.58 164.138 7.52 165.518 7.28L165.438 6.62C164.118 6.84 162.998 6.91 161.408 6.91V4.76ZM168.578 4.37H167.098V0.77H166.278V9.73H167.098V5.06H168.578V4.37ZM175.617 2.62C175.617 3.73 175.617 5.07 175.257 6.9L176.077 6.99C176.427 5.05 176.427 3.76 176.427 2.62V1.72H170.277V2.39H175.617V2.62ZM169.407 7.75V8.43H177.517V7.75H169.407ZM182.886 4.81C181.836 5.02 180.956 5.07 179.796 5.07V3.8H182.356V1.36H178.986V2.02H181.566V3.18H179.006V5.73H179.596C180.886 5.73 181.826 5.68 182.966 5.47L182.886 4.81ZM181.076 7.21H185.366V8.96H181.076V7.21ZM180.276 9.62H186.166V6.56H180.276V9.62ZM185.376 0.77V3.05H184.176V0.939999H183.396V6.01H184.176V3.72H185.376V6.13H186.166V0.77H185.376Z" fill="#026198"/>
<path d="M198.8 7.3H197.26L197.12 8.69H196.38L196.52 7.3H195.53L195.58 6.76H196.58L196.77 4.98H195.76L195.82 4.45H196.82L196.97 3.07H197.71L197.56 4.45H199.1L199.25 3.07H199.98L199.83 4.45H200.86L200.8 4.98H199.78L199.59 6.76H200.62L200.56 7.3H199.53L199.39 8.69H198.65L198.8 7.3ZM197.32 6.76H198.85L199.04 4.98H197.51L197.32 6.76ZM202.54 4.41L202.66 5.09L208.07 4.79C208.02 5.48 207.92 6.22 207.72 7.08L208.53 7.16C208.92 5.32 208.92 4.11 208.92 2.78V1.68H202.77V2.35H208.12V2.78C208.12 3.24 208.12 3.7 208.1 4.17L202.54 4.41ZM201.81 7.82V8.49H209.92V7.82H201.81ZM215.469 7.96V6.27H218.339V5.61H212.819V4.16H218.129V1.43H211.989V2.1H217.329V3.5H212.009V6.27H214.639V7.96H210.989V8.63H219.139V7.96H215.469ZM225.358 3.39H223.128V1.68H225.358V3.39ZM222.308 3.39H220.978V4.02H227.498V3.39H226.178V1.68H227.528V1.05H220.948V1.68H222.308V3.39ZM221.998 8.18H227.268V6.21H221.168V6.82H226.458V7.59H221.198V9.64H227.538V9.02H221.998V8.18ZM220.188 4.77V5.42H228.308V4.77H220.188Z" fill="#026198"/>
<path d="M240.8 7.38252H239.26L239.12 8.77252H238.38L238.52 7.38252H237.53L237.58 6.84252H238.58L238.77 5.06252H237.76L237.82 4.53252H238.82L238.97 3.15252H239.71L239.56 4.53252H241.1L241.25 3.15252H241.98L241.83 4.53252H242.86L242.8 5.06252H241.78L241.59 6.84252H242.62L242.56 7.38252H241.53L241.39 8.77252H240.65L240.8 7.38252ZM239.32 6.84252H240.85L241.04 5.06252H239.51L239.32 6.84252ZM247.41 5.01252V2.27252H248.19V9.08252H247.55L247.45 8.28252C247.296 8.58252 247.093 8.80919 246.84 8.96252C246.586 9.11585 246.31 9.19252 246.01 9.19252C245.403 9.19252 244.893 8.95919 244.48 8.49252C244.073 8.02585 243.87 7.41919 243.87 6.67252C243.87 5.91919 244.07 5.31585 244.47 4.86252C244.876 4.40919 245.386 4.18252 246 4.18252C246.62 4.18252 247.09 4.45919 247.41 5.01252ZM246.05 4.88252C245.663 4.88252 245.336 5.04585 245.07 5.37252C244.81 5.69919 244.68 6.13585 244.68 6.68252C244.68 7.22919 244.813 7.66919 245.08 8.00252C245.346 8.32919 245.666 8.49252 246.04 8.49252C246.413 8.49252 246.73 8.36919 246.99 8.12252C247.256 7.86919 247.396 7.53252 247.41 7.11252V6.33252C247.41 5.88585 247.28 5.53252 247.02 5.27252C246.76 5.01252 246.436 4.88252 246.05 4.88252ZM253.177 5.98252C253.177 5.54919 253.087 5.23919 252.907 5.05252C252.727 4.86585 252.464 4.77252 252.117 4.77252C251.777 4.77252 251.5 4.84252 251.287 4.98252C251.08 5.11585 250.977 5.32919 250.977 5.62252H250.107C250.107 4.88919 250.5 4.43585 251.287 4.26252C251.527 4.20919 251.787 4.18252 252.067 4.18252C252.66 4.18252 253.124 4.33252 253.457 4.63252C253.79 4.93252 253.957 5.38919 253.957 6.00252V9.08252H253.277L253.197 8.28252C252.904 8.88919 252.374 9.19252 251.607 9.19252C251.094 9.19252 250.68 9.04919 250.367 8.76252C250.06 8.47585 249.907 8.11919 249.907 7.69252C249.907 7.26585 250.077 6.93252 250.417 6.69252C250.764 6.45252 251.194 6.33252 251.707 6.33252C252.22 6.33252 252.71 6.41919 253.177 6.59252V5.98252ZM253.177 7.09252C252.704 6.95919 252.29 6.89252 251.937 6.89252C251.584 6.89252 251.297 6.95585 251.077 7.08252C250.857 7.20919 250.747 7.40919 250.747 7.68252C250.747 8.28252 251.087 8.58252 251.767 8.58252C252.154 8.58252 252.484 8.44585 252.757 8.17252C253.037 7.89252 253.177 7.53252 253.177 7.09252ZM255.863 4.29252H256.653V9.08252H255.863V4.29252ZM256.253 3.17252C256.093 3.17252 255.966 3.12919 255.873 3.04252C255.786 2.94919 255.743 2.82919 255.743 2.68252C255.743 2.52919 255.786 2.40919 255.873 2.32252C255.966 2.22919 256.093 2.18252 256.253 2.18252C256.413 2.18252 256.539 2.22919 256.633 2.32252C256.733 2.40919 256.783 2.52919 256.783 2.68252C256.783 2.82919 256.733 2.94919 256.633 3.04252C256.539 3.12919 256.413 3.17252 256.253 3.17252ZM258.801 2.27252H259.591V9.08252H258.801V2.27252ZM260.644 10.4725C260.97 10.7259 261.314 10.8525 261.674 10.8525C261.94 10.8525 262.17 10.7192 262.364 10.4525C262.504 10.2592 262.63 9.96585 262.744 9.57252L262.884 9.08252L260.924 4.30252H261.804L263.254 8.11252L264.384 4.30252H265.184L263.394 10.0325C263.24 10.5192 263.037 10.8925 262.784 11.1525C262.537 11.4125 262.22 11.5425 261.834 11.5425C261.454 11.5425 261.057 11.4259 260.644 11.1925V10.4725Z" fill="#026198"/>
<path d="M3.8 22.9895H2.26L2.12 24.3795H1.38L1.52 22.9895H0.53L0.58 22.4495H1.58L1.77 20.6695H0.76L0.82 20.1395H1.82L1.97 18.7595H2.71L2.56 20.1395H4.1L4.25 18.7595H4.98L4.83 20.1395H5.86L5.8 20.6695H4.78L4.59 22.4495H5.62L5.56 22.9895H4.53L4.39 24.3795H3.65L3.8 22.9895ZM2.32 22.4495H3.85L4.04 20.6695H2.51L2.32 22.4495ZM7.36953 17.3895V18.0595H10.5995C10.5695 18.6095 10.4795 19.1295 10.3295 19.6295L6.91953 19.8595L7.05953 20.5795L10.0795 20.2895C9.52953 21.4895 8.53953 22.5095 6.87953 23.3295L7.32953 23.9595C10.5395 22.3595 11.4195 19.9895 11.4195 17.3895H7.36953ZM15.1395 20.0995H13.6995V16.4595H12.8795V25.4295H13.6995V20.7795H15.1395V20.0995ZM18.9688 22.3695H17.0888V18.1495H18.9688V22.3695ZM21.0588 19.8395H19.7288V17.4995H16.3188V23.0195H19.7288V20.5195H21.0588V24.9795H21.8388V16.6595H21.0588V19.8395ZM22.8388 16.4595V25.4195H23.6188V16.4595H22.8388ZM26.368 20.5095H29.598V17.2895H25.538V17.9595H28.788V19.8395H25.568V23.2695H26.278C27.988 23.2695 29.188 23.1995 30.588 22.9495L30.498 22.2695C29.158 22.5295 27.998 22.5895 26.368 22.5895V20.5095ZM33.578 20.0195H32.108V16.4495H31.288V25.4395H32.108V20.7095H33.578V20.0195Z" fill="#026198"/>
<path d="M43.2286 22.9895H41.6886L41.5486 24.3795H40.8086L40.9486 22.9895H39.9586L40.0086 22.4495H41.0086L41.1986 20.6695H40.1886L40.2486 20.1395H41.2486L41.3986 18.7595H42.1386L41.9886 20.1395H43.5286L43.6786 18.7595H44.4086L44.2586 20.1395H45.2886L45.2286 20.6695H44.2086L44.0186 22.4495H45.0486L44.9886 22.9895H43.9586L43.8186 24.3795H43.0786L43.2286 22.9895ZM41.7486 22.4495H43.2786L43.4686 20.6695H41.9386L41.7486 22.4495ZM46.6181 17.0295V17.6995H49.8781C49.7181 19.2195 48.4081 20.3995 46.2181 20.9895L46.5381 21.6395C49.1781 20.9195 50.7581 19.3095 50.7581 17.0295H46.6181ZM48.3481 22.6295H52.3781V24.6395H48.3481V22.6295ZM47.5381 25.2995H53.1881V21.9695H47.5381V25.2995ZM54.5181 18.6495H53.1881V16.4495H52.3681V21.5495H53.1881V19.3295H54.5181V18.6495ZM61.9873 21.7695H62.8173V16.4695H61.9873V18.3695H60.0373V19.0395H61.9873V21.7695ZM60.6873 20.7095C59.3773 20.2495 58.5073 19.1395 58.5073 17.8595V16.9695H57.6873V17.8895C57.6873 19.2595 56.7973 20.4595 55.4173 20.9495L55.8473 21.6195C56.9273 21.2095 57.7373 20.3995 58.1173 19.3395C58.5073 20.2695 59.2673 20.9795 60.2473 21.3495L60.6873 20.7095ZM59.8573 24.7695C58.5073 24.7695 57.6873 24.3795 57.6873 23.7295C57.6873 23.0695 58.5073 22.6795 59.8573 22.6795C61.2073 22.6795 62.0273 23.0695 62.0273 23.7295C62.0273 24.3795 61.2073 24.7695 59.8573 24.7695ZM59.8573 22.0395C58.0173 22.0395 56.8673 22.6495 56.8673 23.7295C56.8673 24.7995 58.0173 25.4195 59.8573 25.4195C61.6973 25.4195 62.8473 24.7995 62.8473 23.7295C62.8473 22.6495 61.6973 22.0395 59.8573 22.0395ZM67.6366 17.2395H66.8266V18.8495C66.8266 20.4795 65.8066 22.1995 64.5166 22.8595L65.0066 23.5195C66.0166 22.9795 66.8466 21.8595 67.2366 20.5495C67.6466 21.7795 68.4566 22.8295 69.4066 23.3395L69.9166 22.6895C68.6566 22.0595 67.6366 20.4295 67.6366 18.8495V17.2395ZM73.0066 20.0995H71.5266V16.4695H70.7066V25.4295H71.5266V20.7795H73.0066V20.0995ZM81.1858 16.4695H80.3658V23.0295H81.1858V16.4695ZM79.3058 21.0995C77.9858 20.6595 77.0558 19.5695 77.0558 18.3595V17.8695H79.0858V17.2095H74.1658V17.8695H76.2158V18.3595C76.2158 19.6395 75.3058 20.8095 73.9458 21.2795L74.3758 21.9195C75.4358 21.5395 76.2658 20.7295 76.6458 19.7095C77.0558 20.6495 77.8758 21.3895 78.9058 21.7495L79.3058 21.0995ZM76.2358 24.5595V22.4095H75.4158V25.2295H81.4558V24.5595H76.2358Z" fill="#026198"/>
<path d="M92.0857 22.9895H90.5457L90.4057 24.3795H89.6657L89.8057 22.9895H88.8157L88.8657 22.4495H89.8657L90.0557 20.6695H89.0457L89.1057 20.1395H90.1057L90.2557 18.7595H90.9957L90.8457 20.1395H92.3857L92.5357 18.7595H93.2657L93.1157 20.1395H94.1457L94.0857 20.6695H93.0657L92.8757 22.4495H93.9057L93.8457 22.9895H92.8157L92.6757 24.3795H91.9357L92.0857 22.9895ZM90.6057 22.4495H92.1357L92.3257 20.6695H90.7957L90.6057 22.4495ZM102.195 19.7995H97.0352V17.6595H102.085V16.9895H96.1952V20.4595H102.195V19.7995ZM103.215 21.6295H95.0852V22.2995H98.7152V25.3895H99.5352V22.2995H103.215V21.6295ZM107.964 20.9095H105.544V19.2895H107.964V20.9095ZM108.774 19.6595H110.844V23.0995H111.674V16.4595H110.844V18.9895H108.774V17.0595H107.964V18.6395H105.544V17.0595H104.734V21.5695H108.774V19.6595ZM106.724 24.5595V22.4495H105.904V25.2295H111.884V24.5595H106.724ZM117.334 18.2095H118.194V17.5395H116.074V18.2095H116.614V19.1495C116.614 20.0195 116.574 21.3595 115.944 22.2995C115.304 21.2995 115.264 19.8995 115.264 19.1495V18.2095H115.804V17.5395H113.604V18.2095H114.544V19.1495C114.544 20.2495 114.334 21.8795 113.304 22.7195L113.774 23.2795C114.354 22.8195 114.684 22.0795 114.884 21.2895C115.044 22.0995 115.364 22.8795 115.944 23.3695C116.524 22.8795 116.834 22.1195 116.994 21.3195C117.194 22.1095 117.524 22.8195 118.104 23.2795L118.574 22.7195C117.544 21.8995 117.334 20.2995 117.334 19.1495V18.2095ZM120.444 16.4595V20.1195H119.474V16.6595H118.714V24.9895H119.474V20.7895H120.444V25.4295H121.224V16.4595H120.444ZM123.433 20.8795C124.483 20.6195 125.283 20.0195 125.663 19.2295C126.053 19.9595 126.833 20.4995 127.863 20.7495L128.193 20.1095C126.923 19.8195 126.053 19.0495 126.053 18.1495V18.1295H128.033V17.4795H126.053V16.4795H125.233V17.4795H123.263V18.1295H125.243V18.1495C125.243 19.1095 124.373 19.9295 123.083 20.2295L123.433 20.8795ZM128.583 21.2095C126.623 21.4895 124.373 21.4995 122.663 21.4995L122.773 22.1895C123.523 22.1895 124.373 22.1795 125.253 22.1495V25.1695H126.073V22.0995C126.923 22.0495 127.803 21.9595 128.643 21.8195L128.583 21.2095ZM129.223 16.4695V25.4395H130.043V16.4695H129.223ZM132.402 17.3395V23.1695H136.522V17.3395H132.402ZM135.722 17.9995V22.5195H133.202V17.9995H135.722ZM138.402 16.4595V25.4495H139.222V16.4595H138.402Z" fill="#026198"/>
<path d="M150.371 22.9895H148.831L148.691 24.3795H147.951L148.091 22.9895H147.101L147.151 22.4495H148.151L148.341 20.6695H147.331L147.391 20.1395H148.391L148.541 18.7595H149.281L149.131 20.1395H150.671L150.821 18.7595H151.551L151.401 20.1395H152.431L152.371 20.6695H151.351L151.161 22.4495H152.191L152.131 22.9895H151.101L150.961 24.3795H150.221L150.371 22.9895ZM148.891 22.4495H150.421L150.611 20.6695H149.081L148.891 22.4495ZM156.301 17.9795H158.531V20.9195H156.301V17.9795ZM157.831 23.6395V21.5795H160.721V20.9195H159.351V17.9795H160.741V17.3195H154.091V17.9795H155.481V20.9195H154.111V21.5795H157.001V23.6395H153.371V24.3095H161.501V23.6395H157.831ZM169.77 21.2995H164.44V19.8795H169.48V19.2295H164.44V17.8995H169.68V17.2395H163.61V21.9595H169.77V21.2995ZM162.56 23.5995V24.2695H170.7V23.5995H162.56ZM173.569 23.8295H178.839V21.8995H172.739V22.5095H178.029V23.2495H172.769V25.3295H179.109V24.7095H173.569V23.8295ZM174.699 17.3295H176.929V19.0395H174.699V17.3295ZM176.229 20.5295V19.6695H179.069V19.0395H177.749V17.3295H179.099V16.6995H172.519V17.3295H173.879V19.0395H172.549V19.6695H175.409V20.5295H171.759V21.1895H179.869V20.5295H176.229ZM182.309 20.4895H185.619V17.2895H181.459V17.9595H184.789V19.8295H181.489V23.2695H182.229C183.769 23.2695 185.129 23.2095 186.749 22.9395L186.669 22.2695C185.099 22.5195 183.779 22.5895 182.309 22.5895V20.4895ZM187.509 16.4495V25.4395H188.329V16.4495H187.509ZM191.748 19.3995C191.748 18.3695 192.798 17.6995 194.228 17.6995C195.658 17.6995 196.698 18.3695 196.698 19.3995C196.698 20.4295 195.658 21.0995 194.228 21.0995C192.798 21.0995 191.748 20.4295 191.748 19.3995ZM194.638 23.5995V21.7295C196.308 21.6095 197.478 20.7195 197.478 19.3995C197.478 17.9695 196.118 17.0495 194.228 17.0495C192.328 17.0495 190.958 17.9695 190.958 19.3995C190.958 20.7195 192.138 21.6095 193.808 21.7295V23.5995H190.158V24.2795H198.308V23.5995H194.638Z" fill="#026198"/>
<path d="M208.657 22.9895H207.117L206.977 24.3795H206.237L206.377 22.9895H205.387L205.437 22.4495H206.437L206.627 20.6695H205.617L205.677 20.1395H206.677L206.827 18.7595H207.567L207.417 20.1395H208.957L209.107 18.7595H209.837L209.687 20.1395H210.717L210.657 20.6695H209.637L209.447 22.4495H210.477L210.417 22.9895H209.387L209.247 24.3795H208.507L208.657 22.9895ZM207.177 22.4495H208.707L208.897 20.6695H207.367L207.177 22.4495ZM211.997 17.6195V18.2895H214.687C214.567 20.1495 213.717 21.7695 211.657 22.9195L212.137 23.5095C214.687 22.0695 215.497 19.9295 215.497 17.6195H211.997ZM218.477 16.4595V20.0695H217.257V16.6995H216.487V24.9795H217.257V20.7395H218.477V25.4295H219.267V16.4595H218.477ZM224.576 20.0895H222.036V18.7495H224.576V20.0895ZM225.376 16.8295H224.576V18.1195H222.036V16.8295H221.226V20.7495H225.376V16.8295ZM222.946 23.6995H227.816V21.5195H222.116V22.1695H227.006V23.0895H222.146V25.3295H228.146V24.6795H222.946V23.6995ZM227.816 18.3895V16.4695H226.996V21.0995H227.816V19.0695H229.146V18.3895H227.816ZM233.075 18.0595H235.065V17.3795H230.215V18.0595H232.265V19.1995C232.265 20.7195 231.185 22.4195 229.905 23.0595L230.385 23.7095C231.395 23.1895 232.265 22.0495 232.675 20.7395C233.085 21.9395 233.925 22.9895 234.925 23.4895L235.395 22.8295C234.095 22.2195 233.075 20.6295 233.075 19.1995V18.0595ZM238.435 20.0795H236.955V16.4695H236.135V25.4295H236.955V20.7695H238.435V20.0795Z" fill="#026198"/>
</svg>
