<svg width="135" height="51" viewBox="0 0 135 51" fill="none" xmlns="http://www.w3.org/2000/svg">
<path d="M2.89562 6.56874C2.82099 6.02152 2.31689 5.63841 1.76967 5.71303C1.22245 5.78765 0.839334 6.29175 0.913955 6.83897L2.89562 6.56874ZM13.3123 17.541L13.2356 16.544L13.3123 17.541ZM23.0087 6.70386L23.9601 6.39568C23.8226 5.97122 23.4205 5.68921 22.9746 5.70444C22.5287 5.71967 22.1468 6.02847 22.0386 6.46132L23.0087 6.70386ZM20.1569 49.4822L20.2983 50.4721L20.1569 49.4822ZM17.8753 36.3635L17.5813 35.4077L17.8753 36.3635ZM54.3795 28.9486L54.9709 29.755L54.3795 28.9486ZM44.6831 36.3635L43.8609 36.9327L44.6831 36.3635ZM61.2083 40.6178C61.6679 40.3114 61.792 39.6906 61.4857 39.231C61.1793 38.7715 60.5585 38.6473 60.0989 38.9537L61.2083 40.6178ZM0.913955 6.83897C1.22003 9.08356 2.2798 12.1167 4.26899 14.5394C6.28357 16.9931 9.28977 18.8534 13.389 18.5381L13.2356 16.544C9.91999 16.799 7.5076 15.3321 5.81473 13.2703C4.09647 11.1775 3.15991 8.50693 2.89562 6.56874L0.913955 6.83897ZM13.389 18.5381C16.848 18.272 19.3182 16.0513 20.974 13.6569C22.6327 11.2584 23.5794 8.54452 23.9789 6.94639L22.0386 6.46132C21.6776 7.9052 20.811 10.3764 19.3291 12.5193C17.8443 14.6663 15.8466 16.3431 13.2356 16.544L13.389 18.5381ZM22.0574 7.01203C24.2289 13.7155 26.6819 23.8568 27.0145 32.5091C27.1812 36.8453 26.8102 40.7065 25.6781 43.5572C24.5647 46.3608 22.7635 48.0996 20.0154 48.4922L20.2983 50.4721C23.9385 49.9521 26.2345 47.5747 27.5369 44.2954C28.8205 41.0633 29.1839 36.8751 29.0131 32.4322C28.6707 23.5264 26.1614 13.1912 23.9601 6.39568L22.0574 7.01203ZM20.0154 48.4922C17.3242 48.8767 15.6128 48.3977 14.5937 47.6284C13.5887 46.8697 13.0935 45.7052 13.0806 44.3422C13.054 41.5294 15.0899 38.2668 18.1694 37.3193L17.5813 35.4077C13.5738 36.6408 11.0466 40.7523 11.0807 44.3611C11.0981 46.2089 11.7891 48.0171 13.3887 49.2246C14.9742 50.4216 17.2858 50.9025 20.2983 50.4721L20.0154 48.4922ZM18.1694 37.3193C19.8897 36.7899 22.2716 36.5642 25.1622 36.4125C28.0016 36.2635 31.3229 36.1861 34.7255 35.9215C41.5418 35.3914 49.0541 34.0939 54.9709 29.755L53.7881 28.1422C48.3448 32.1339 41.3125 33.4032 34.5705 33.9275C31.1939 34.1901 27.9826 34.2618 25.0574 34.4153C22.1833 34.5661 19.5684 34.7963 17.5813 35.4077L18.1694 37.3193ZM54.9709 29.755C57.2294 28.0987 58.5767 26.2906 59.1011 24.4761C59.6315 22.641 59.2901 20.8939 58.3486 19.4817C56.4932 16.6986 52.4357 15.3378 48.3816 16.5852L48.9698 18.4968C52.3306 17.4627 55.4029 18.6687 56.6845 20.5911C57.3116 21.5317 57.5406 22.6722 57.1797 23.9207C56.813 25.1898 55.8075 26.6613 53.7881 28.1422L54.9709 29.755ZM48.3816 16.5852C44.2876 17.845 41.7865 21.0378 41.0167 24.8635C40.2517 28.6651 41.1891 33.0735 43.8609 36.9327L45.5053 35.7943C43.1056 32.3281 42.3319 28.466 42.9774 25.2581C43.618 22.0743 45.649 19.5186 48.9698 18.4968L48.3816 16.5852ZM43.8609 36.9327C46.597 40.8848 50.0075 42.4718 53.2371 42.7081C56.4165 42.9407 59.3432 41.8612 61.2083 40.6178L60.0989 38.9537C58.5418 39.9918 56.0499 40.9086 53.383 40.7134C50.7662 40.522 47.9026 39.257 45.5053 35.7943L43.8609 36.9327Z" fill="#034783"/>
<path d="M71.3457 23.1514C71.2942 22.6015 70.8066 22.1975 70.2568 22.2491C69.7069 22.3006 69.3029 22.7882 69.3545 23.3381L71.3457 23.1514ZM72.0612 41.4968L71.0762 41.6692C71.1687 42.1979 71.6622 42.5593 72.1942 42.4879C72.7262 42.4165 73.107 41.9379 73.0569 41.4035L72.0612 41.4968ZM86.7122 23.0878C87.2555 23.1866 87.7761 22.8262 87.8749 22.2829C87.9737 21.7395 87.6133 21.2189 87.0699 21.1201L86.7122 23.0878ZM69.3545 23.3381L71.0656 41.5901L73.0569 41.4035L71.3457 23.1514L69.3545 23.3381ZM73.0463 41.3244C72.3977 37.6182 72.3681 32.3222 74.2354 28.347C75.1571 26.3849 76.5228 24.7794 78.4799 23.8048C80.4404 22.8285 83.1025 22.4315 86.7122 23.0878L87.0699 21.1201C83.1506 20.4075 80.0282 20.7995 77.5884 22.0145C75.1453 23.2311 73.4951 25.2189 72.4252 27.4967C70.3094 32.001 70.3939 37.7703 71.0762 41.6692L73.0463 41.3244Z" fill="#034783"/>
<path d="M98.2985 24.3847V38.6442M98.2985 13.5476C98.8689 13.5477 99.4393 14.3463 99.4393 15.2589C99.4393 16.3996 98.8689 16.3995 98.2985 16.3996C97.7282 16.3998 96.5874 16.3997 96.5874 15.2587C96.5874 13.3754 98.2985 13.5476 98.2985 13.5476Z" stroke="#034783" stroke-width="2" stroke-linecap="round"/>
<path d="M10 2.40239C10 1.1243 9.2 0.0059377 8.4 0.00576434C8.4 0.00576434 6 -0.235407 6 2.40217C6 4.00017 7.6 4.00021 8.4 3.99999H8.40063C9.20042 3.99978 10 3.99957 10 2.40239Z" fill="#034783"/>
<path d="M19 2.40239C19 1.1243 18.2 0.0059377 17.4 0.00576434C17.4 0.00576434 15 -0.235407 15 2.40217C15 4.00017 16.6 4.00021 17.4 3.99999H17.4006C18.2004 3.99978 19 3.99957 19 2.40239Z" fill="#034783"/>
<path d="M112.988 27.2373C112.988 26.685 112.54 26.2373 111.988 26.2373C111.436 26.2373 110.988 26.685 110.988 27.2373H112.988ZM111.988 36.9337H110.988C110.988 37.4522 111.384 37.8847 111.901 37.9299C112.417 37.9751 112.882 37.6181 112.973 37.1075L111.988 36.9337ZM121.114 37.5041L120.115 37.4486C120.087 37.9661 120.458 38.4198 120.971 38.4938C121.484 38.5679 121.969 38.2377 122.087 37.7331L121.114 37.5041ZM132.095 37.4274C132.052 37.9781 132.464 38.4588 133.015 38.5012C133.566 38.5435 134.046 38.1315 134.089 37.5808L132.095 37.4274ZM110.988 27.2373V36.9337H112.988V27.2373H110.988ZM112.973 37.1075C113.248 35.5475 113.854 33.2157 114.76 31.301C115.214 30.3414 115.717 29.5418 116.249 28.9958C116.779 28.4521 117.257 28.2373 117.692 28.2373V26.2373C116.529 26.2373 115.567 26.8306 114.817 27.5999C114.069 28.367 113.453 29.3854 112.952 30.4459C111.947 32.5713 111.298 35.0878 111.003 36.7599L112.973 37.1075ZM117.692 28.2373C118.067 28.2373 118.419 28.4155 118.781 28.9328C119.159 29.474 119.468 30.2915 119.696 31.3063C120.149 33.3231 120.208 35.7896 120.115 37.4486L122.112 37.5596C122.21 35.7964 122.155 33.1294 121.648 30.8684C121.395 29.7442 121.013 28.6368 120.42 27.7877C119.811 26.9147 118.913 26.2373 117.692 26.2373V28.2373ZM122.087 37.7331C122.45 36.1897 123.24 33.9471 124.396 32.2306C125.582 30.4689 126.892 29.6092 128.312 29.9246L128.746 27.9722C126.058 27.3751 124.041 29.1771 122.737 31.1134C121.402 33.0949 120.538 35.5863 120.14 37.2751L122.087 37.7331ZM128.312 29.9246C129.921 30.2822 130.906 31.4657 131.487 32.9964C132.073 34.5416 132.182 36.2982 132.095 37.4274L134.089 37.5808C134.192 36.2384 134.072 34.1734 133.356 32.2868C132.635 30.3858 131.243 28.5273 128.746 27.9722L128.312 29.9246Z" fill="#034783"/>
</svg>
