<svg width="262" height="125" viewBox="0 0 262 125" fill="none" xmlns="http://www.w3.org/2000/svg">
<path d="M36.864 11.8116H41.4287V12.6137H37.7958V15.1025H41.2164V15.8928H37.7958V18.4169H41.4287V19.2308H36.864V11.8116Z" fill="#184165"/>
<path d="M49.3023 19.2308H48.1463L45.9996 16.2702L44.0062 19.2308H42.8739L45.4924 15.5507L42.8621 11.8116H43.9826L46.1058 14.843L48.0638 11.8116H49.1843L46.6247 15.5389L49.3023 19.2308Z" fill="#184165"/>
<path d="M49.9463 11.8116H55.7141V12.6137H53.2961V19.2308H52.3643V12.6137H49.9463V11.8116Z" fill="#184165"/>
<path d="M62.1422 13.9348C62.1422 14.5481 61.9771 15.0435 61.6468 15.421C61.3244 15.7984 60.8448 16.0422 60.2078 16.1523L62.331 19.2308H61.1278L59.2052 16.1994H57.9078V19.2308H56.9759V11.8116H59.5591C60.3926 11.8116 61.0295 12.0122 61.4699 12.4132C61.9181 12.8142 62.1422 13.3214 62.1422 13.9348ZM59.4883 15.5507C60.0466 15.5507 60.4673 15.417 60.7504 15.1497C61.0413 14.8744 61.1868 14.5167 61.1868 14.0763C61.1868 13.6281 61.0453 13.2742 60.7622 13.0147C60.487 12.7474 60.0859 12.6137 59.5591 12.6137H57.9078V15.5507H59.4883Z" fill="#184165"/>
<path d="M66.8282 11.6819C67.7876 11.6819 68.5621 12.0121 69.1519 12.6727C69.7495 13.3253 70.0483 14.2808 70.0483 15.5389C70.0483 16.7892 69.7534 17.7407 69.1637 18.3933C68.5739 19.0381 67.7954 19.3605 66.8282 19.3605C65.861 19.3605 65.0825 19.0342 64.4928 18.3815C63.9109 17.721 63.6199 16.7695 63.6199 15.5271C63.6199 14.2768 63.9109 13.3253 64.4928 12.6727C65.0825 12.0121 65.861 11.6819 66.8282 11.6819ZM66.8282 12.5193C66.1362 12.5193 65.5897 12.7788 65.1887 13.2978C64.7877 13.8168 64.5871 14.5638 64.5871 15.5389C64.5871 16.514 64.7877 17.2531 65.1887 17.7564C65.5897 18.2597 66.1362 18.5113 66.8282 18.5113C67.5202 18.5113 68.0667 18.2597 68.4678 17.7564C68.8767 17.2531 69.0811 16.514 69.0811 15.5389C69.0811 14.5638 68.8767 13.8168 68.4678 13.2978C68.0667 12.7788 67.5202 12.5193 66.8282 12.5193Z" fill="#184165"/>
<path d="M71.743 11.8116L73.8661 18.0513L76.001 11.8116H76.98L74.3497 19.2308H73.3825L70.764 11.8116H71.743Z" fill="#184165"/>
<path d="M78.3775 11.8116H82.9422V12.6137H79.3093V15.1025H82.7299V15.8928H79.3093V18.4169H82.9422V19.2308H78.3775V11.8116Z" fill="#184165"/>
<path d="M90.1788 13.9348C90.1788 14.5481 90.0137 15.0435 89.6834 15.421C89.361 15.7984 88.8814 16.0422 88.2444 16.1523L90.3675 19.2308H89.1644L87.2418 16.1994H85.9443V19.2308H85.0125V11.8116H87.5957C88.4292 11.8116 89.0661 12.0122 89.5065 12.4132C89.9547 12.8142 90.1788 13.3214 90.1788 13.9348ZM87.5249 15.5507C88.0832 15.5507 88.5039 15.417 88.787 15.1497C89.0779 14.8744 89.2234 14.5167 89.2234 14.0763C89.2234 13.6281 89.0819 13.2742 88.7988 13.0147C88.5236 12.7474 88.1225 12.6137 87.5957 12.6137H85.9443V15.5507H87.5249Z" fill="#184165"/>
<path d="M91.1258 11.8116H96.8936V12.6137H94.4756V19.2308H93.5438V12.6137H91.1258V11.8116Z" fill="#184165"/>
<path d="M98.1436 11.8116H102.708V12.6137H99.0754V15.1025H102.496V15.8928H99.0754V18.4169H102.708V19.2308H98.1436V11.8116Z" fill="#184165"/>
<path d="M106.949 11.8116C108.066 11.8116 108.958 12.1498 109.626 12.826C110.303 13.4944 110.641 14.3948 110.641 15.5271C110.641 16.6516 110.303 17.552 109.626 18.2282C108.958 18.8966 108.066 19.2308 106.949 19.2308H104.767V11.8116H106.949ZM105.699 18.4169H106.949C107.775 18.4169 108.431 18.1456 108.919 17.6031C109.406 17.0526 109.65 16.3567 109.65 15.5153C109.65 14.6739 109.402 13.9859 108.907 13.4512C108.419 12.9086 107.767 12.6373 106.949 12.6373H105.699V18.4169Z" fill="#184165"/>
<path d="M40.8272 77.1793C40.6935 76.4558 40.1627 76.0941 39.2348 76.0941C38.7394 76.0941 38.3581 76.2042 38.0907 76.4244C37.8233 76.6367 37.6897 76.8962 37.6897 77.2029C37.6897 77.5017 37.7722 77.7297 37.9374 77.887C38.1025 78.0443 38.3699 78.1819 38.7394 78.2998L40.2846 78.8306C40.8115 79.0115 41.2282 79.2592 41.5349 79.5737C41.8494 79.8882 42.0067 80.3325 42.0067 80.9066C42.0067 81.4727 41.7629 81.9524 41.2754 82.3456C40.7879 82.7309 40.1352 82.9235 39.3174 82.9235C38.4996 82.9235 37.8273 82.7191 37.3004 82.3102C36.7814 81.8934 36.5141 81.3115 36.4984 80.5645H37.4066C37.4066 81.052 37.5756 81.4255 37.9138 81.685C38.2598 81.9445 38.7001 82.0743 39.2348 82.0743C39.7774 82.0743 40.206 81.9563 40.5205 81.7204C40.835 81.4767 40.9923 81.1936 40.9923 80.8712C40.9923 80.5409 40.894 80.2814 40.6974 80.0927C40.5087 79.904 40.2256 79.7467 39.8482 79.6209L38.5389 79.1373C37.9256 78.9328 37.4616 78.6891 37.1471 78.406C36.8325 78.1229 36.6753 77.7101 36.6753 77.1675C36.6753 76.617 36.8955 76.161 37.3358 75.7992C37.7762 75.4297 38.3934 75.2449 39.1877 75.2449C39.9819 75.2449 40.5873 75.4218 41.0041 75.7757C41.4287 76.1216 41.6725 76.5895 41.7354 77.1793H40.8272Z" fill="#184165"/>
<path d="M44.0056 75.3746H48.5704V76.1767H44.9374V78.6655H48.358V79.4558H44.9374V81.9799H48.5704V82.7938H44.0056V75.3746Z" fill="#184165"/>
<path d="M51.7258 75.3746L55.4059 81.3312V75.3746H56.3378V82.7938H55.2998L51.5607 76.7547V82.7938H50.6171V75.3746H51.7258Z" fill="#184165"/>
<path d="M62.6667 77.1793C62.533 76.4558 62.0022 76.0941 61.0743 76.0941C60.579 76.0941 60.1976 76.2042 59.9302 76.4244C59.6629 76.6367 59.5292 76.8962 59.5292 77.2029C59.5292 77.5017 59.6117 77.7297 59.7769 77.887C59.942 78.0443 60.2094 78.1819 60.579 78.2998L62.1241 78.8306C62.651 79.0115 63.0677 79.2592 63.3744 79.5737C63.6889 79.8882 63.8462 80.3325 63.8462 80.9066C63.8462 81.4727 63.6025 81.9524 63.1149 82.3456C62.6274 82.7309 61.9747 82.9235 61.1569 82.9235C60.3391 82.9235 59.6668 82.7191 59.1399 82.3102C58.621 81.8934 58.3536 81.3115 58.3379 80.5645H59.2461C59.2461 81.052 59.4152 81.4255 59.7533 81.685C60.0993 81.9445 60.5396 82.0743 61.0743 82.0743C61.6169 82.0743 62.0455 81.9563 62.36 81.7204C62.6746 81.4767 62.8318 81.1936 62.8318 80.8712C62.8318 80.5409 62.7335 80.2814 62.537 80.0927C62.3482 79.904 62.0651 79.7467 61.6877 79.6209L60.3784 79.1373C59.7651 78.9328 59.3011 78.6891 58.9866 78.406C58.6721 78.1229 58.5148 77.7101 58.5148 77.1675C58.5148 76.617 58.735 76.161 59.1753 75.7992C59.6157 75.4297 60.233 75.2449 61.0272 75.2449C61.8214 75.2449 62.4269 75.4218 62.8436 75.7757C63.2683 76.1216 63.512 76.5895 63.5749 77.1793H62.6667Z" fill="#184165"/>
<path d="M65.8569 75.3746H66.7887V82.7938H65.8569V75.3746Z" fill="#184165"/>
<path d="M70.248 75.3746L73.9281 81.3312V75.3746H74.8599V82.7938H73.8219L70.0828 76.7547V82.7938H69.1392V75.3746H70.248Z" fill="#184165"/>
<path d="M81.8258 81.5199C81.4955 82.4557 80.8546 82.9235 79.9031 82.9235C78.9517 82.9235 78.1693 82.5775 77.5559 81.8856C76.9504 81.1936 76.6477 80.2618 76.6477 79.0901C76.6477 77.9184 76.9779 76.9866 77.6385 76.2946C78.3069 75.6027 79.1365 75.2567 80.1273 75.2567C80.7091 75.2567 81.2163 75.3746 81.6488 75.6105C82.0892 75.8464 82.4666 76.2239 82.7812 76.7429L81.8847 77.0495C81.3736 76.4126 80.776 76.0941 80.0919 76.0941C79.4078 76.0941 78.8259 76.3733 78.3462 76.9316C77.8744 77.4899 77.6385 78.2173 77.6385 79.1137C77.6385 80.0023 77.8429 80.7178 78.2518 81.2604C78.6607 81.803 79.2112 82.0743 79.9031 82.0743C80.4693 82.0743 80.9254 81.8856 81.2714 81.5081C81.6174 81.1307 81.7904 80.5724 81.7904 79.8332V79.8096L79.9267 79.7388V79.1255H82.6986V82.7938H81.9437L81.8258 81.5199Z" fill="#184165"/>
<path d="M203.985 11.8117H209.753V12.6138H207.335V19.2309H206.403V12.6138H203.985V11.8117Z" fill="#184165"/>
<path d="M211.947 11.8117V15.079H215.591V11.8117H216.523V19.2309H215.591V15.8811H211.947V19.2309H211.015V11.8117H211.947Z" fill="#184165"/>
<path d="M218.905 11.8117H219.837V19.2309H218.905V11.8117Z" fill="#184165"/>
<path d="M223.296 11.8117L226.976 17.7683V11.8117H227.908V19.2309H226.87L223.131 13.1918V19.2309H222.187V11.8117H223.296Z" fill="#184165"/>
<path d="M234.874 17.957C234.544 18.8928 233.903 19.3607 232.951 19.3607C232 19.3607 231.218 19.0147 230.604 18.3227C229.999 17.6307 229.696 16.6989 229.696 15.5272C229.696 14.3556 230.026 13.4237 230.687 12.7318C231.355 12.0398 232.185 11.6938 233.176 11.6938C233.757 11.6938 234.265 11.8117 234.697 12.0476C235.137 12.2835 235.515 12.661 235.829 13.18L234.933 13.4867C234.422 12.8497 233.824 12.5312 233.14 12.5312C232.456 12.5312 231.874 12.8104 231.394 13.3687C230.923 13.927 230.687 14.6544 230.687 15.5508C230.687 16.4394 230.891 17.155 231.3 17.6975C231.709 18.2401 232.259 18.5114 232.951 18.5114C233.518 18.5114 233.974 18.3227 234.32 17.9452C234.666 17.5678 234.839 17.0095 234.839 16.2703V16.2467L232.975 16.176V15.5626H235.747V19.2309H234.992L234.874 17.957Z" fill="#184165"/>
<path d="M238.832 11.8117V15.2441L242.146 11.8117H243.432L240.188 15.1498L243.632 19.2309H242.429L239.563 15.7985L238.832 16.5534V19.2309H237.888V11.8117H238.832Z" fill="#184165"/>
<path d="M245.076 11.8117H246.008V19.2309H245.076V11.8117Z" fill="#184165"/>
<path d="M249.467 11.8117L253.147 17.7683V11.8117H254.079V19.2309H253.041L249.302 13.1918V19.2309H248.358V11.8117H249.467Z" fill="#184165"/>
<path d="M261.045 17.957C260.714 18.8928 260.073 19.3607 259.122 19.3607C258.171 19.3607 257.388 19.0147 256.775 18.3227C256.169 17.6307 255.867 16.6989 255.867 15.5272C255.867 14.3556 256.197 13.4237 256.857 12.7318C257.526 12.0398 258.355 11.6938 259.346 11.6938C259.928 11.6938 260.435 11.8117 260.868 12.0476C261.308 12.2835 261.685 12.661 262 13.18L261.104 13.4867C260.592 12.8497 259.995 12.5312 259.311 12.5312C258.627 12.5312 258.045 12.8104 257.565 13.3687C257.093 13.927 256.857 14.6544 256.857 15.5508C256.857 16.4394 257.062 17.155 257.471 17.6975C257.88 18.2401 258.43 18.5114 259.122 18.5114C259.688 18.5114 260.144 18.3227 260.49 17.9452C260.836 17.5678 261.009 17.0095 261.009 16.2703V16.2467L259.146 16.176V15.5626H261.917V19.2309H261.163L261.045 17.957Z" fill="#184165"/>
<path d="M213.963 80.6471C213.963 81.457 213.779 82.0389 213.409 82.3927C213.047 82.7466 212.583 82.9235 212.017 82.9235C211.451 82.9235 210.857 82.7584 210.236 82.4281V81.4609C210.787 81.8384 211.302 82.0271 211.781 82.0271C212.269 82.0271 212.599 81.9091 212.772 81.6732C212.945 81.4373 213.032 81.0953 213.032 80.6471V75.3746H213.963V80.6471Z" fill="#184165"/>
<path d="M216.869 75.3746V80.1163C216.869 80.8083 217.042 81.3076 217.388 81.6143C217.734 81.9209 218.19 82.0743 218.756 82.0743C219.322 82.0743 219.778 81.9209 220.124 81.6143C220.47 81.3076 220.643 80.8083 220.643 80.1163V75.3746H221.575V80.1163C221.575 81.0442 221.319 81.744 220.808 82.2158C220.297 82.6876 219.609 82.9235 218.744 82.9235C217.887 82.9235 217.203 82.6876 216.692 82.2158C216.188 81.744 215.937 81.0442 215.937 80.1163V75.3746H216.869Z" fill="#184165"/>
<path d="M225.99 75.3746C227.106 75.3746 227.999 75.7127 228.667 76.389C229.344 77.0574 229.682 77.9577 229.682 79.0901C229.682 80.2146 229.344 81.1149 228.667 81.7912C227.999 82.4596 227.106 82.7938 225.99 82.7938H223.808V75.3746H225.99ZM224.739 81.9799H225.99C226.815 81.9799 227.472 81.7086 227.96 81.166C228.447 80.6156 228.691 79.9197 228.691 79.0783C228.691 78.2369 228.443 77.5489 227.948 77.0141C227.46 76.4716 226.808 76.2003 225.99 76.2003H224.739V81.9799Z" fill="#184165"/>
<path d="M236.206 81.5199C235.876 82.4556 235.235 82.9235 234.283 82.9235C233.332 82.9235 232.549 82.5775 231.936 81.8855C231.331 81.1936 231.028 80.2617 231.028 79.0901C231.028 77.9184 231.358 76.9866 232.019 76.2946C232.687 75.6026 233.517 75.2567 234.507 75.2567C235.089 75.2567 235.597 75.3746 236.029 75.6105C236.469 75.8464 236.847 76.2239 237.161 76.7428L236.265 77.0495C235.754 76.4126 235.156 76.0941 234.472 76.0941C233.788 76.0941 233.206 76.3733 232.726 76.9316C232.255 77.4899 232.019 78.2172 232.019 79.1137C232.019 80.0022 232.223 80.7178 232.632 81.2604C233.041 81.803 233.591 82.0743 234.283 82.0743C234.85 82.0743 235.306 81.8855 235.652 81.5081C235.998 81.1307 236.171 80.5723 236.171 79.8332V79.8096L234.307 79.7388V79.1255H237.079V82.7938H236.324L236.206 81.5199Z" fill="#184165"/>
<path d="M239.22 75.3746H240.152V82.7938H239.22V75.3746Z" fill="#184165"/>
<path d="M243.611 75.3746L247.291 81.3312V75.3746H248.223V82.7938H247.185L243.446 76.7546V82.7938H242.502V75.3746H243.611Z" fill="#184165"/>
<path d="M255.189 81.5199C254.859 82.4556 254.218 82.9235 253.266 82.9235C252.315 82.9235 251.532 82.5775 250.919 81.8855C250.313 81.1936 250.011 80.2617 250.011 79.0901C250.011 77.9184 250.341 76.9866 251.002 76.2946C251.67 75.6026 252.5 75.2567 253.49 75.2567C254.072 75.2567 254.579 75.3746 255.012 75.6105C255.452 75.8464 255.83 76.2239 256.144 76.7428L255.248 77.0495C254.737 76.4126 254.139 76.0941 253.455 76.0941C252.771 76.0941 252.189 76.3733 251.709 76.9316C251.237 77.4899 251.002 78.2172 251.002 79.1137C251.002 80.0022 251.206 80.7178 251.615 81.2604C252.024 81.803 252.574 82.0743 253.266 82.0743C253.832 82.0743 254.288 81.8855 254.634 81.5081C254.98 81.1307 255.153 80.5723 255.153 79.8332V79.8096L253.29 79.7388V79.1255H256.062V82.7938H255.307L255.189 81.5199Z" fill="#184165"/>
<path d="M5.56401 122.55C5.21313 123.517 4.5406 124 3.54643 124C2.5272 124 1.68758 123.62 1.02759 122.86C0.342529 122.074 0 121.07 0 119.847C0 118.558 0.367592 117.525 1.10278 116.748C1.8129 115.996 2.7277 115.62 3.84719 115.62C4.60744 115.62 5.24237 115.785 5.75198 116.116C6.26996 116.438 6.67514 116.95 6.96755 117.653L5.45123 118C5.00845 117.298 4.4487 116.946 3.772 116.946C3.15378 116.946 2.63998 117.207 2.23062 117.727C1.80454 118.256 1.59151 118.963 1.59151 119.847C1.59151 120.682 1.78366 121.36 2.16796 121.88C2.54391 122.393 3.04517 122.649 3.67175 122.649C4.20643 122.649 4.64503 122.479 4.98756 122.14C5.33844 121.793 5.51388 121.318 5.51388 120.715V120.665L3.68428 120.628V119.686H6.92995V123.826H5.72692L5.56401 122.55Z" fill="#184165"/>
<path d="M13.105 122.736C12.7207 123.537 12.1024 123.938 11.2503 123.938C10.1726 123.938 9.46247 123.521 9.11994 122.686C8.99462 122.397 8.93196 122.045 8.93196 121.632V117.789H10.4107V121.483C10.4107 121.88 10.5068 122.178 10.6989 122.376C10.8911 122.566 11.125 122.661 11.4007 122.661C11.6847 122.661 11.9228 122.624 12.115 122.55C12.3071 122.467 12.4742 122.347 12.6162 122.19C12.9254 121.835 13.0883 121.36 13.105 120.764V117.789H14.5837V123.826H13.105V122.736Z" fill="#184165"/>
<path d="M18.919 120.306C19.4036 120.306 19.9633 120.384 20.5983 120.541V119.946C20.5983 119.525 20.5105 119.215 20.3351 119.017C20.168 118.81 19.8881 118.707 19.4955 118.707C19.1112 118.707 18.8146 118.785 18.6057 118.942C18.3969 119.091 18.2924 119.306 18.2924 119.587H16.6759C16.6759 118.901 16.9182 118.405 17.4027 118.099C17.8956 117.793 18.5807 117.64 19.4579 117.64C20.711 117.64 21.5214 118.074 21.889 118.942C22.0143 119.24 22.077 119.591 22.077 119.996V123.826H20.7862L20.6734 123.021C20.2808 123.674 19.6793 124 18.8689 124C18.0836 124 17.4737 123.81 17.0393 123.43C16.6383 123.066 16.4378 122.607 16.4378 122.054C16.4378 121.492 16.6592 121.062 17.102 120.764C17.5447 120.459 18.1504 120.306 18.919 120.306ZM20.5983 121.471C20.1053 121.339 19.6459 121.273 19.2198 121.273C18.4178 121.273 18.0168 121.537 18.0168 122.066C18.0168 122.289 18.1087 122.483 18.2924 122.649C18.4762 122.806 18.7686 122.884 19.1697 122.884C19.579 122.884 19.9132 122.752 20.1722 122.488C20.4395 122.215 20.5815 121.876 20.5983 121.471Z" fill="#184165"/>
<path d="M25.7109 118.992C26.0785 118.124 26.6299 117.69 27.3651 117.69C27.5071 117.69 27.6867 117.719 27.904 117.777L27.8789 119.24C27.645 119.19 27.4152 119.165 27.1897 119.165C26.2038 119.165 25.7109 119.839 25.7109 121.186V123.826H24.2322V117.789H25.7109V118.992Z" fill="#184165"/>
<path d="M33.418 122.897C33.0421 123.632 32.4656 124 31.6887 124C30.9117 124 30.2601 123.707 29.7338 123.12C29.1907 122.508 28.9192 121.731 28.9192 120.789C28.9192 119.847 29.1782 119.083 29.6962 118.496C30.2058 117.926 30.8407 117.64 31.601 117.64C32.3612 117.64 32.9335 117.942 33.3178 118.545V115.322H34.809V123.826H33.5935L33.418 122.897ZM31.8767 118.955C31.4589 118.955 31.1081 119.124 30.824 119.463C30.5483 119.793 30.4105 120.24 30.4105 120.802C30.4105 121.364 30.5525 121.818 30.8365 122.165C31.1206 122.504 31.4798 122.674 31.9142 122.674C32.2735 122.674 32.5951 122.533 32.8792 122.252C33.1716 121.963 33.3178 121.599 33.3178 121.161V120.38C33.3011 119.95 33.1549 119.599 32.8792 119.326C32.6285 119.079 32.2944 118.955 31.8767 118.955Z" fill="#184165"/>
<path d="M37.2685 117.789H38.7472V123.826H37.2685V117.789ZM37.093 115.855C37.093 115.591 37.1724 115.384 37.3311 115.236C37.4898 115.079 37.7154 115 38.0078 115C38.2919 115 38.5133 115.079 38.672 115.236C38.8391 115.384 38.9226 115.591 38.9226 115.855C38.9226 116.12 38.8391 116.331 38.672 116.488C38.5133 116.636 38.2919 116.711 38.0078 116.711C37.7154 116.711 37.4898 116.636 37.3311 116.488C37.1724 116.331 37.093 116.12 37.093 115.855Z" fill="#184165"/>
<path d="M43.2601 120.306C43.7447 120.306 44.3044 120.384 44.9393 120.541V119.946C44.9393 119.525 44.8516 119.215 44.6762 119.017C44.5091 118.81 44.2292 118.707 43.8366 118.707C43.4523 118.707 43.1557 118.785 42.9468 118.942C42.738 119.091 42.6335 119.306 42.6335 119.587H41.017C41.017 118.901 41.2592 118.405 41.7438 118.099C42.2367 117.793 42.9218 117.64 43.799 117.64C45.0521 117.64 45.8625 118.074 46.2301 118.942C46.3554 119.24 46.4181 119.591 46.4181 119.996V123.826H45.1273L45.0145 123.021C44.6219 123.674 44.0204 124 43.21 124C42.4247 124 41.8148 123.81 41.3804 123.43C40.9794 123.066 40.7789 122.607 40.7789 122.054C40.7789 121.492 41.0002 121.062 41.443 120.764C41.8858 120.459 42.4915 120.306 43.2601 120.306ZM44.9393 121.471C44.4464 121.339 43.9869 121.273 43.5609 121.273C42.7588 121.273 42.3578 121.537 42.3578 122.066C42.3578 122.289 42.4497 122.483 42.6335 122.649C42.8173 122.806 43.1097 122.884 43.5107 122.884C43.9201 122.884 44.2543 122.752 44.5133 122.488C44.7806 122.215 44.9226 121.876 44.9393 121.471Z" fill="#184165"/>
<path d="M50.0269 118.843C50.428 118.041 51.0712 117.64 51.9568 117.64C52.7087 117.64 53.2726 117.884 53.6486 118.372C54.0329 118.86 54.225 119.504 54.225 120.306V123.826H52.7463V120.306C52.7463 119.86 52.6377 119.525 52.4205 119.302C52.2033 119.07 51.8983 118.955 51.5057 118.955C51.113 118.955 50.7747 119.128 50.4906 119.475C50.2149 119.822 50.0687 120.343 50.052 121.037V123.826H48.5733V117.802H49.864L50.0269 118.843Z" fill="#184165"/>
<path d="M57.2081 121.992C57.2248 122.562 57.6467 122.847 58.4738 122.847C58.7913 122.847 59.0503 122.781 59.2508 122.649C59.4596 122.508 59.5641 122.347 59.5641 122.165C59.5641 121.983 59.5014 121.843 59.3761 121.744C59.2508 121.645 59.0544 121.554 58.7871 121.471L57.4587 121C56.4729 120.661 55.98 120.107 55.98 119.339C55.98 118.826 56.2098 118.417 56.6693 118.112C57.1371 117.798 57.7595 117.64 58.5365 117.64C59.3218 117.64 59.9233 117.81 60.341 118.149C60.7671 118.488 60.9885 118.913 61.0052 119.426H59.6142C59.5975 119.227 59.5014 119.07 59.3259 118.955C59.1505 118.839 58.8999 118.781 58.5741 118.781C58.2482 118.781 57.9934 118.847 57.8096 118.979C57.6342 119.103 57.5465 119.248 57.5465 119.413C57.5465 119.702 57.7929 119.917 58.2858 120.058L59.727 120.591C60.2032 120.748 60.5666 120.95 60.8172 121.198C61.0762 121.438 61.2057 121.752 61.2057 122.14C61.2057 122.636 60.9676 123.066 60.4914 123.43C59.9985 123.81 59.3468 124 58.5365 124C57.7261 124 57.0744 123.826 56.5815 123.479C56.0886 123.124 55.838 122.628 55.8296 121.992H57.2081Z" fill="#184165"/>
<path d="M68.1641 120.306C68.6487 120.306 69.2084 120.384 69.8434 120.541V119.946C69.8434 119.525 69.7556 119.215 69.5802 119.017C69.4131 118.81 69.1332 118.707 68.7406 118.707C68.3563 118.707 68.0597 118.785 67.8508 118.942C67.642 119.091 67.5375 119.306 67.5375 119.587H65.921C65.921 118.901 66.1633 118.405 66.6478 118.099C67.1407 117.793 67.8258 117.64 68.703 117.64C69.9561 117.64 70.7665 118.074 71.1341 118.942C71.2594 119.24 71.3221 119.591 71.3221 119.996V123.826H70.0313L69.9185 123.021C69.5259 123.674 68.9244 124 68.114 124C67.3287 124 66.7188 123.81 66.2844 123.43C65.8834 123.066 65.6829 122.607 65.6829 122.054C65.6829 121.492 65.9043 121.062 66.3471 120.764C66.7898 120.459 67.3955 120.306 68.1641 120.306ZM69.8434 121.471C69.3504 121.339 68.891 121.273 68.4649 121.273C67.6629 121.273 67.2618 121.537 67.2618 122.066C67.2618 122.289 67.3537 122.483 67.5375 122.649C67.7213 122.806 68.0137 122.884 68.4148 122.884C68.8241 122.884 69.1583 122.752 69.4173 122.488C69.6846 122.215 69.8266 121.876 69.8434 121.471Z" fill="#184165"/>
<path d="M74.931 118.843C75.332 118.041 75.9753 117.64 76.8608 117.64C77.6127 117.64 78.1766 117.884 78.5526 118.372C78.9369 118.86 79.129 119.504 79.129 120.306V123.826H77.6503V120.306C77.6503 119.86 77.5417 119.525 77.3245 119.302C77.1073 119.07 76.8023 118.955 76.4097 118.955C76.017 118.955 75.6787 119.128 75.3946 119.475C75.1189 119.822 74.9727 120.343 74.956 121.037V123.826H73.4773V117.802H74.7681L74.931 118.843Z" fill="#184165"/>
<path d="M85.2576 122.897C84.8816 123.632 84.3052 124 83.5282 124C82.7512 124 82.0996 123.707 81.5733 123.12C81.0302 122.508 80.7587 121.731 80.7587 120.789C80.7587 119.847 81.0177 119.083 81.5357 118.496C82.0453 117.926 82.6802 117.64 83.4405 117.64C84.2007 117.64 84.773 117.942 85.1573 118.545V115.322H86.6486V123.826H85.433L85.2576 122.897ZM83.7162 118.955C83.2985 118.955 82.9476 119.124 82.6635 119.463C82.3878 119.793 82.25 120.24 82.25 120.802C82.25 121.364 82.392 121.818 82.6761 122.165C82.9601 122.504 83.3193 122.674 83.7538 122.674C84.113 122.674 84.4346 122.533 84.7187 122.252C85.0111 121.963 85.1573 121.599 85.1573 121.161V120.38C85.1406 119.95 84.9944 119.599 84.7187 119.326C84.4681 119.079 84.1339 118.955 83.7162 118.955Z" fill="#184165"/>
<path d="M95.2726 115.62C95.8157 115.62 96.3127 115.711 96.7639 115.893C97.215 116.066 97.6035 116.326 97.9293 116.674C98.6144 117.401 98.9569 118.442 98.9569 119.798C98.9569 121.161 98.6144 122.215 97.9293 122.959C97.2777 123.653 96.3879 124 95.2601 124C94.1406 124 93.255 123.645 92.6034 122.934C91.9183 122.198 91.5758 121.153 91.5758 119.798C91.5758 118.426 91.9183 117.376 92.6034 116.649C93.2467 115.963 94.1364 115.62 95.2726 115.62ZM97.428 119.822C97.428 118.897 97.2317 118.186 96.8391 117.69C96.4548 117.186 95.9326 116.934 95.2726 116.934C94.6126 116.934 94.0863 117.186 93.6936 117.69C93.301 118.186 93.1047 118.897 93.1047 119.822C93.1047 120.74 93.301 121.446 93.6936 121.942C94.0863 122.43 94.6126 122.674 95.2726 122.674C95.9326 122.674 96.4548 122.43 96.8391 121.942C97.2317 121.446 97.428 120.74 97.428 119.822Z" fill="#184165"/>
<path d="M101.396 117.802L102.787 122.376L104.19 117.802H105.895L103.626 123.826H101.96L99.6915 117.802H101.396Z" fill="#184165"/>
<path d="M111.453 118.521C111.662 118.785 111.816 119.091 111.917 119.438C112.025 119.785 112.08 120.103 112.08 120.393C112.08 120.682 112.063 120.942 112.029 121.174H108.095C108.111 121.661 108.232 122.058 108.458 122.364C108.684 122.669 109.026 122.822 109.486 122.822C110.095 122.822 110.459 122.558 110.576 122.029H112.067C111.967 122.632 111.687 123.107 111.227 123.455C110.751 123.818 110.171 124 109.486 124C108.684 124 108.011 123.711 107.468 123.132C106.908 122.529 106.628 121.756 106.628 120.814C106.628 119.847 106.908 119.07 107.468 118.483C108.003 117.921 108.675 117.64 109.486 117.64C110.329 117.64 110.985 117.934 111.453 118.521ZM109.498 118.806C109.08 118.806 108.755 118.942 108.521 119.215C108.287 119.479 108.149 119.822 108.107 120.244H110.701C110.701 119.591 110.492 119.153 110.075 118.93C109.916 118.847 109.724 118.806 109.498 118.806Z" fill="#184165"/>
<path d="M115.329 118.992C115.696 118.124 116.248 117.69 116.983 117.69C117.125 117.69 117.304 117.719 117.522 117.777L117.497 119.24C117.263 119.19 117.033 119.165 116.807 119.165C115.822 119.165 115.329 119.839 115.329 121.186V123.826H113.85V117.789H115.329V118.992Z" fill="#184165"/>
<path d="M119.89 121.992C119.907 122.562 120.329 122.847 121.156 122.847C121.474 122.847 121.733 122.781 121.933 122.649C122.142 122.508 122.246 122.347 122.246 122.165C122.246 121.983 122.184 121.843 122.058 121.744C121.933 121.645 121.737 121.554 121.469 121.471L120.141 121C119.155 120.661 118.662 120.107 118.662 119.339C118.662 118.826 118.892 118.417 119.352 118.112C119.819 117.798 120.442 117.64 121.219 117.64C122.004 117.64 122.606 117.81 123.023 118.149C123.449 118.488 123.671 118.913 123.687 119.426H122.296C122.28 119.227 122.184 119.07 122.008 118.955C121.833 118.839 121.582 118.781 121.256 118.781C120.93 118.781 120.676 118.847 120.492 118.979C120.316 119.103 120.229 119.248 120.229 119.413C120.229 119.702 120.475 119.917 120.968 120.058L122.409 120.591C122.885 120.748 123.249 120.95 123.499 121.198C123.758 121.438 123.888 121.752 123.888 122.14C123.888 122.636 123.65 123.066 123.174 123.43C122.681 123.81 122.029 124 121.219 124C120.408 124 119.757 123.826 119.264 123.479C118.771 123.124 118.52 122.628 118.512 121.992H119.89Z" fill="#184165"/>
<path d="M129.92 118.521C130.129 118.785 130.283 119.091 130.384 119.438C130.492 119.785 130.546 120.103 130.546 120.393C130.546 120.682 130.53 120.942 130.496 121.174H126.561C126.578 121.661 126.699 122.058 126.925 122.364C127.15 122.669 127.493 122.822 127.952 122.822C128.562 122.822 128.926 122.558 129.043 122.029H130.534C130.434 122.632 130.154 123.107 129.694 123.455C129.218 123.818 128.638 124 127.952 124C127.15 124 126.478 123.711 125.935 123.132C125.375 122.529 125.095 121.756 125.095 120.814C125.095 119.847 125.375 119.07 125.935 118.483C126.47 117.921 127.142 117.64 127.952 117.64C128.796 117.64 129.452 117.934 129.92 118.521ZM127.965 118.806C127.547 118.806 127.221 118.942 126.988 119.215C126.754 119.479 126.616 119.822 126.574 120.244H129.168C129.168 119.591 128.959 119.153 128.541 118.93C128.383 118.847 128.191 118.806 127.965 118.806Z" fill="#184165"/>
<path d="M136.565 118.521C136.774 118.785 136.928 119.091 137.029 119.438C137.137 119.785 137.192 120.103 137.192 120.393C137.192 120.682 137.175 120.942 137.142 121.174H133.207C133.223 121.661 133.344 122.058 133.57 122.364C133.796 122.669 134.138 122.822 134.598 122.822C135.207 122.822 135.571 122.558 135.688 122.029H137.179C137.079 122.632 136.799 123.107 136.34 123.455C135.863 123.818 135.283 124 134.598 124C133.796 124 133.123 123.711 132.58 123.132C132.02 122.529 131.74 121.756 131.74 120.814C131.74 119.847 132.02 119.07 132.58 118.483C133.115 117.921 133.787 117.64 134.598 117.64C135.441 117.64 136.097 117.934 136.565 118.521ZM134.61 118.806C134.192 118.806 133.867 118.942 133.633 119.215C133.399 119.479 133.261 119.822 133.219 120.244H135.813C135.813 119.591 135.604 119.153 135.187 118.93C135.028 118.847 134.836 118.806 134.61 118.806Z" fill="#184165"/>
<path d="M140.441 118.992C140.808 118.124 141.36 117.69 142.095 117.69C142.237 117.69 142.417 117.719 142.634 117.777L142.609 119.24C142.375 119.19 142.145 119.165 141.919 119.165C140.934 119.165 140.441 119.839 140.441 121.186V123.826H138.962V117.789H140.441V118.992Z" fill="#184165"/>
<path d="M145.002 121.992C145.019 122.562 145.441 122.847 146.268 122.847C146.586 122.847 146.845 122.781 147.045 122.649C147.254 122.508 147.358 122.347 147.358 122.165C147.358 121.983 147.296 121.843 147.17 121.744C147.045 121.645 146.849 121.554 146.581 121.471L145.253 121C144.267 120.661 143.774 120.107 143.774 119.339C143.774 118.826 144.004 118.417 144.464 118.112C144.931 117.798 145.554 117.64 146.331 117.64C147.116 117.64 147.718 117.81 148.135 118.149C148.561 118.488 148.783 118.913 148.799 119.426H147.408C147.392 119.227 147.296 119.07 147.12 118.955C146.945 118.839 146.694 118.781 146.368 118.781C146.043 118.781 145.788 118.847 145.604 118.979C145.429 119.103 145.341 119.248 145.341 119.413C145.341 119.702 145.587 119.917 146.08 120.058L147.521 120.591C147.997 120.748 148.361 120.95 148.612 121.198C148.871 121.438 149 121.752 149 122.14C149 122.636 148.762 123.066 148.286 123.43C147.793 123.81 147.141 124 146.331 124C145.52 124 144.869 123.826 144.376 123.479C143.883 123.124 143.632 122.628 143.624 121.992H145.002Z" fill="#184165"/>
<path d="M225.43 113.558H232.278V115.229H227.363V118.03H231.966V119.701H227.363V122.503H232.278V124.19H225.43V113.558Z" fill="#184165"/>
<path d="M240.632 116.49C240.457 115.562 239.802 115.098 238.666 115.098C238.109 115.098 237.672 115.213 237.355 115.442C237.049 115.66 236.896 115.928 236.896 116.245C236.896 116.561 236.995 116.813 237.191 116.998C237.399 117.173 237.716 117.337 238.141 117.49L240.451 118.391C241.238 118.696 241.844 119.084 242.27 119.554C242.696 120.013 242.909 120.591 242.909 121.29C242.909 122.251 242.548 123.016 241.827 123.584C241.107 124.141 240.08 124.419 238.748 124.419C237.568 124.419 236.612 124.13 235.881 123.551C235.062 122.918 234.63 122.022 234.587 120.864H236.503C236.503 121.738 236.957 122.29 237.863 122.519C238.136 122.595 238.496 122.634 238.944 122.634C239.392 122.634 239.807 122.524 240.189 122.306C240.572 122.077 240.763 121.776 240.763 121.405C240.763 121.023 240.659 120.733 240.451 120.537C240.244 120.329 239.905 120.138 239.436 119.963L237.322 119.128C236.503 118.811 235.875 118.44 235.438 118.014C235.002 117.588 234.783 116.998 234.783 116.245C234.783 115.36 235.127 114.661 235.815 114.148C236.514 113.613 237.459 113.345 238.649 113.345C239.851 113.345 240.774 113.623 241.418 114.18C242.073 114.727 242.45 115.496 242.548 116.49H240.632Z" fill="#184165"/>
<path d="M244.067 113.558H252.586V115.229H249.293V124.19H247.36V115.229H244.067V113.558Z" fill="#184165"/>
<path d="M251.686 123.748V121.815C252.527 122.295 253.34 122.535 254.127 122.535C254.596 122.535 254.935 122.399 255.143 122.126C255.361 121.853 255.47 121.438 255.47 120.881V113.558H257.42V120.881C257.42 122.104 257.125 123.016 256.535 123.617C256.011 124.152 255.29 124.419 254.373 124.419C253.455 124.419 252.56 124.195 251.686 123.748Z" fill="#184165"/>
<path d="M31.0975 16.2821C31.0975 24.7869 24.203 31.6813 15.6982 31.6813C7.19344 31.6813 0.29895 24.7869 0.29895 16.2821C0.29895 7.7773 7.19344 0.882812 15.6982 0.882812C24.203 0.882812 31.0975 7.7773 31.0975 16.2821Z" fill="#3993C6"/>
<path d="M198.017 16.2821C198.017 24.7869 191.122 31.6813 182.618 31.6813C174.113 31.6813 167.218 24.7869 167.218 16.2821C167.218 7.7773 174.113 0.882812 182.618 0.882812C191.122 0.882812 198.017 7.7773 198.017 16.2821Z" fill="#3993C6"/>
<path d="M31.0975 76.5686C31.0975 85.0734 24.203 91.9678 15.6982 91.9678C7.19344 91.9678 0.29895 85.0734 0.29895 76.5686C0.29895 68.0638 7.19344 61.1693 15.6982 61.1693C24.203 61.1693 31.0975 68.0638 31.0975 76.5686Z" fill="#3993C6"/>
<path d="M198.017 76.5686C198.017 85.0734 191.122 91.9678 182.618 91.9678C174.113 91.9678 167.218 85.0734 167.218 76.5686C167.218 68.0638 174.113 61.1693 182.618 61.1693C191.122 61.1693 198.017 68.0638 198.017 76.5686Z" fill="#3993C6"/>
<path d="M11.9369 9.74884H20.1542V11.754H14.2566V15.1156H19.7807V17.1208H14.2566V20.4825H20.1542V22.5073H11.9369V9.74884Z" fill="#F9F9F9"/>
<path d="M177.821 9.74884H188.043V11.754H184.092V22.5073H181.772V11.754H177.821V9.74884Z" fill="#F9F9F9"/>
<path d="M18.0049 72.899C17.7952 71.785 17.0089 71.228 15.6459 71.228C14.9775 71.228 14.4532 71.3657 14.0732 71.6409C13.7062 71.903 13.5227 72.2241 13.5227 72.6042C13.5227 72.9842 13.6407 73.2857 13.8766 73.5084C14.1256 73.7181 14.5057 73.9147 15.0168 74.0982L17.7886 75.1794C18.7323 75.5464 19.4596 76.0116 19.9708 76.5752C20.4819 77.1256 20.7374 77.8202 20.7374 78.659C20.7374 79.8123 20.305 80.7297 19.44 81.4112C18.575 82.0796 17.343 82.4138 15.7441 82.4138C14.3287 82.4138 13.182 82.0665 12.3039 81.3719C11.321 80.6118 10.8033 79.5371 10.7509 78.1479H13.0509C13.0509 79.1963 13.5948 79.8582 14.6826 80.1334C15.0102 80.2252 15.4427 80.271 15.9801 80.271C16.5174 80.271 17.0154 80.14 17.4741 79.8778C17.9328 79.6026 18.1622 79.2422 18.1622 78.7966C18.1622 78.3379 18.0377 77.9906 17.7886 77.7547C17.5396 77.5057 17.1334 77.2764 16.5698 77.0667L14.0338 76.0641C13.0509 75.684 12.2973 75.2384 11.7731 74.7273C11.2489 74.2162 10.9868 73.5084 10.9868 72.6042C10.9868 71.5426 11.3996 70.7038 12.2253 70.0878C13.064 69.4457 14.1977 69.1246 15.6262 69.1246C17.0678 69.1246 18.1753 69.4588 18.9485 70.1272C19.7349 70.7825 20.187 71.7064 20.305 72.899H18.0049Z" fill="#F9F9F9"/>
<path d="M178.673 82.263V79.9433C179.682 80.5199 180.658 80.8083 181.602 80.8083C182.165 80.8083 182.572 80.6445 182.821 80.3168C183.083 79.9892 183.214 79.4911 183.214 78.8228V70.0353H185.553V78.8228C185.553 80.2906 185.199 81.3849 184.492 82.1057C183.863 82.7479 182.998 83.069 181.897 83.069C180.796 83.069 179.721 82.8003 178.673 82.263Z" fill="#F9F9F9"/>
</svg>
