<svg width="472" height="64" viewBox="0 0 472 64" fill="none" xmlns="http://www.w3.org/2000/svg">
<path d="M1.968 8.896C3.68 8.352 5.008 7.216 5.632 5.712C6.288 7.136 7.6 8.224 9.296 8.736L9.904 7.728C7.808 7.104 6.304 5.584 6.272 3.76H9.584V2.704H6.272V0.927999H4.96V2.704H1.696V3.76H4.96C4.928 5.648 3.472 7.232 1.36 7.872L1.968 8.896ZM6.272 8.416H4.96V11.088C3.504 11.136 2.112 11.136 0.928 11.136L1.104 12.24C3.664 12.224 7.184 12.208 10.4 11.616L10.288 10.64C9.008 10.848 7.616 10.944 6.272 11.024V8.416ZM11.232 0.832V15.2H12.544V0.832H11.232ZM18.5748 10.112H17.2788V14.848H27.3268V13.776H18.5748V10.112ZM26.5428 7.44C26.9108 5.488 26.9108 4.032 26.9108 2.8V1.68H17.2148V2.752H25.6148V2.8C25.6148 4.048 25.6148 5.456 25.2148 7.44H15.5508V8.496H28.5908V7.44H26.5428ZM42.786 7.328C40.658 6.624 39.154 4.832 39.154 2.8V1.408H37.842V2.8C37.842 4.912 36.37 6.832 34.194 7.616L34.866 8.64C36.562 8.016 37.89 6.688 38.514 5.024C39.17 6.576 40.482 7.792 42.13 8.368L42.786 7.328ZM37.874 10.864H44.594V13.936H37.874V10.864ZM36.594 14.992H45.874V9.824H36.594V14.992ZM44.562 0.848V9.008H45.874V0.848H44.562ZM49.4408 1.744V2.816H54.6408C54.4008 5.248 52.2728 7.12 48.7848 8.064L49.3288 9.104C53.5208 7.952 56.0487 5.376 56.0487 1.744H49.4408ZM50.6248 10.96H58.6408V15.184H59.9528V9.904H50.6248V10.96ZM62.0808 4.464H59.9528V0.815999H58.6408V9.248H59.9528V5.552H62.0808V4.464ZM72.0475 2.592H68.4635V0.832H67.1515V2.592H63.5835V3.648H72.0475V2.592ZM65.6315 7.104C65.6315 6.112 66.5115 5.472 67.8075 5.472C69.1035 5.472 69.9995 6.112 69.9995 7.104C69.9995 8.112 69.1035 8.752 67.8075 8.752C66.5115 8.752 65.6315 8.112 65.6315 7.104ZM71.2475 7.104C71.2475 5.504 69.8395 4.448 67.8075 4.448C65.7755 4.448 64.3835 5.504 64.3835 7.104C64.3835 8.72 65.7755 9.776 67.8075 9.776C69.8395 9.776 71.2475 8.72 71.2475 7.104ZM67.0555 10.752H65.7435V14.864H75.3115V13.792H67.0555V10.752ZM74.6715 5.568V0.832H73.3595V11.6H74.6715V6.672H76.7835V5.568H74.6715ZM82.8988 2.24V11.568H89.4908V2.24H82.8988ZM88.2108 3.296V10.528H84.1788V3.296H88.2108ZM92.4988 0.832V15.216H93.8108V0.832H92.4988ZM101.042 2.192H99.7775V4.928C99.7775 7.392 98.5935 9.968 96.6255 11.12L97.4415 12.096C98.8655 11.216 99.9055 9.6 100.418 7.696C100.93 9.44 101.89 10.96 103.25 11.792L104.002 10.768C102.114 9.616 101.042 7.184 101.042 4.88V2.192ZM104.818 5.984H102.45V7.072H104.818V14.48H106.05V1.152H104.818V5.984ZM107.73 0.832V15.184H108.978V0.832H107.73ZM117.424 7.696H113.456V3.136H117.424V7.696ZM118.704 5.904H122V11.312H123.328V0.848H122V4.832H118.704V2.096H112.16V8.752H118.704V5.904ZM115.472 13.792V10.352H114.144V14.864H123.728V13.792H115.472ZM131.343 3.392H134.719V2.304H126.703V3.392H130.031V5.216C130.031 7.696 128.287 10.4 126.223 11.376L126.991 12.432C128.623 11.6 130.031 9.792 130.687 7.696C131.375 9.664 132.783 11.312 134.447 12.08L135.183 11.024C133.071 10.128 131.343 7.648 131.343 5.216V3.392ZM136.655 0.848V15.184H137.967V0.848H136.655ZM150.958 5.488H143.886V2.56H150.958V5.488ZM152.254 1.504H142.606V6.544H152.254V1.504ZM143.886 10.768H142.574V14.864H152.494V13.792H143.886V10.768ZM140.91 8.176V9.232H146.878V12.128H148.19V9.232H153.95V8.176H140.91ZM159.869 3.584H162.429V2.512H155.885V3.584H158.605V4.88C158.605 7.52 157.485 10.128 155.485 11.328L156.285 12.304C157.709 11.408 158.749 9.728 159.245 7.76C159.741 9.584 160.733 11.12 162.125 11.952L162.925 10.992C160.941 9.872 159.869 7.376 159.869 4.88V3.584ZM163.709 5.984H161.341V7.056H163.709V14.432H164.957V1.152H163.709V5.984ZM166.589 0.815999V15.168H167.853V0.815999H166.589ZM180.427 3.344H172.043V6.416H181.979V5.472H173.339V4.24H181.723V1.248H172.011V2.176H180.427V3.344ZM173.259 12.72H181.771V9.664H171.931V10.608H180.475V11.808H171.963V14.992H182.219V14.048H173.259V12.72ZM170.379 7.504V8.496H183.387V7.504H170.379ZM192.463 10.768C191.343 10.768 190.559 9.856 190.559 8.576C190.559 7.328 191.343 6.416 192.463 6.416C193.567 6.416 194.367 7.328 194.367 8.576C194.367 9.856 193.567 10.768 192.463 10.768ZM192.463 5.312C190.687 5.312 189.391 6.656 189.391 8.576C189.391 10.528 190.687 11.856 192.463 11.856C194.239 11.856 195.535 10.528 195.535 8.576C195.535 6.656 194.239 5.312 192.463 5.312ZM193.103 1.248H191.807V3.28H188.895V4.352H196.015V3.28H193.103V1.248ZM199.807 0.815999V6.88H197.967V1.152H196.735V14.48H197.967V7.952H199.807V15.168H201.071V0.815999H199.807ZM214.125 3.936V5.648H210.381V6.672H214.125V8.16H215.453V0.832H214.125V2.912H210.877C210.973 2.464 211.021 2.016 211.021 1.536H204.605V2.608H209.597C209.357 4.88 207.357 6.592 203.853 7.408L204.333 8.48C207.501 7.728 209.693 6.192 210.589 3.936H214.125ZM207.533 14V12.336H215.453V8.816H206.205V9.872H214.141V11.344H206.237V15.04H215.933V14H207.533ZM226.86 2.144H223.276V0.688H221.964V2.144H218.396V3.152H226.86V2.144ZM220.444 6.144C220.444 5.28 221.292 4.768 222.62 4.768C223.948 4.768 224.812 5.28 224.812 6.144C224.812 6.992 223.948 7.52 222.62 7.52C221.292 7.52 220.444 6.992 220.444 6.144ZM226.06 6.144C226.06 4.688 224.7 3.792 222.62 3.792C220.556 3.792 219.196 4.688 219.196 6.144C219.196 7.6 220.556 8.496 222.62 8.496C224.7 8.496 226.06 7.6 226.06 6.144ZM221.692 12.64H229.484V9.456H220.364V10.432H228.188V11.68H220.412V15.024H230.012V14.016H221.692V12.64ZM229.484 4.24V0.783999H228.172V8.72H229.484V5.328H231.612V4.24H229.484ZM249.231 6.304C246.623 5.92 244.063 4.144 244.063 2.144V1.344H242.687V2.144C242.687 4.192 240.159 5.92 237.551 6.304L238.079 7.36C240.319 6.976 242.479 5.744 243.375 4C244.303 5.728 246.463 6.976 248.687 7.36L249.231 6.304ZM249.855 8.912H236.895V10H242.687V15.2H243.999V10H249.871L249.855 8.912ZM267.187 0.848H265.875V9.04H267.187V0.848ZM259.475 2.768C260.899 2.768 261.955 3.712 261.955 5.024C261.955 6.352 260.899 7.28 259.475 7.28C258.051 7.28 257.027 6.352 257.027 5.024C257.027 3.712 258.051 2.768 259.475 2.768ZM259.475 8.368C261.651 8.368 263.235 7.008 263.235 5.024C263.235 3.04 261.651 1.68 259.475 1.68C257.315 1.68 255.747 3.04 255.747 5.024C255.747 7.008 257.315 8.368 259.475 8.368ZM265.587 9.664H264.307V10.432C264.307 11.552 263.619 12.992 262.243 13.84C260.915 13.056 260.259 11.696 260.259 10.432V9.664H258.995V10.432C258.995 11.808 257.923 13.36 256.115 14L256.771 14.992C258.115 14.48 259.091 13.488 259.603 12.336C260.035 13.536 260.899 14.576 262.275 15.12C263.602 14.544 264.483 13.456 264.931 12.288C265.411 13.488 266.403 14.48 267.811 14.992L268.467 14C266.643 13.392 265.587 11.92 265.587 10.432V9.664ZM281.633 5.152H273.185V1.36H271.873V6.224H281.633V5.152ZM273.089 10.64H271.777V14.832H281.713V13.76H273.089V10.64ZM270.113 8.144V9.2H283.121V8.144H270.113ZM294.613 7.296H290.549V4.928H294.613V7.296ZM295.892 1.744H294.613V3.904H290.549V1.744H289.253V8.352H295.892V1.744ZM295.237 14.144C293.093 14.144 291.812 13.536 291.812 12.512C291.812 11.488 293.093 10.896 295.237 10.896C297.349 10.896 298.645 11.488 298.645 12.512C298.645 13.536 297.349 14.144 295.237 14.144ZM295.237 9.84C292.309 9.84 290.501 10.816 290.501 12.512C290.501 14.208 292.309 15.184 295.237 15.184C298.149 15.184 299.957 14.208 299.957 12.512C299.957 10.816 298.149 9.84 295.237 9.84ZM299.797 4.448V0.832H298.485V9.472H299.797V5.536H301.925V4.448H299.797ZM313.891 13.92H307.299V12.128H313.891V13.92ZM313.891 11.104H307.299V9.36H306.003V14.976H315.187V9.36H313.891V11.104ZM309.267 7.072H305.395V4.8H309.267V7.072ZM313.875 0.848V4.368H310.563V1.584H309.267V3.776H305.395V1.584H304.099V8.144H310.563V5.44H313.875V8.688H315.203V0.848H313.875ZM324.578 2.384C326.834 2.384 328.274 3.056 328.274 4.192C328.274 5.328 326.834 5.984 324.578 5.984C322.322 5.984 320.882 5.328 320.882 4.192C320.882 3.056 322.322 2.384 324.578 2.384ZM324.578 7.04C327.65 7.04 329.618 5.984 329.618 4.192C329.618 2.4 327.65 1.328 324.578 1.328C321.506 1.328 319.538 2.4 319.538 4.192C319.538 5.984 321.506 7.04 324.578 7.04ZM321.074 10.704H319.762V14.864H329.634V13.792H321.074V10.704ZM318.082 8.384V9.44H331.058V8.384H318.082ZM346.677 6.176H339.557V2.688H346.677V6.176ZM347.973 1.632H338.277V7.216H347.973V1.632ZM349.637 9.168H336.613V10.224H342.437V15.168H343.749V10.224H349.637V9.168ZM352.82 5.296C352.82 3.904 353.86 2.912 355.268 2.912C356.66 2.912 357.7 3.904 357.7 5.296C357.7 6.656 356.66 7.632 355.268 7.632C353.86 7.632 352.82 6.656 352.82 5.296ZM361.844 5.84V10.672H363.172V0.832H361.844V4.768H358.932C358.676 2.992 357.204 1.808 355.268 1.808C353.14 1.808 351.572 3.232 351.572 5.296C351.572 7.312 353.14 8.752 355.268 8.752C357.188 8.752 358.66 7.568 358.916 5.84H361.844ZM359.22 9.552H357.876V10.112C357.876 12.048 355.588 13.632 353.044 14.08L353.572 15.12C355.732 14.736 357.684 13.584 358.548 11.952C359.396 13.6 361.348 14.736 363.524 15.12L364.036 14.08C361.476 13.648 359.22 12.096 359.22 10.112V9.552ZM377.843 0.832H376.531V8.192H377.843V0.832ZM367.667 4.544C367.667 3.296 368.707 2.416 370.099 2.416C371.507 2.416 372.531 3.296 372.531 4.544C372.531 5.776 371.507 6.656 370.099 6.656C368.707 6.656 367.667 5.776 367.667 4.544ZM373.811 4.544C373.811 2.64 372.243 1.344 370.099 1.344C367.955 1.344 366.403 2.64 366.403 4.544C366.403 6.432 367.955 7.712 370.099 7.712C372.243 7.712 373.811 6.432 373.811 4.544ZM369.875 13.952V12.368H377.843V8.896H368.547V9.936H376.547V11.392H368.579V14.992H378.323V13.952H369.875ZM381.202 2.384V3.472H383.842C383.698 6.352 382.866 9.008 380.738 11.216L381.762 11.952C384.37 9.2 385.09 5.84 385.09 2.384H381.202ZM385.57 2.384V3.472H387.778C387.666 6.512 387.026 9.648 384.818 12.192L385.874 12.912C388.514 9.792 389.01 5.84 389.01 2.384H385.57ZM394.194 6.752H392.066V0.832H390.754V15.184H392.066V7.84H394.194V6.752ZM400 8.88C400.592 9.024 401.28 9.104 401.984 9.104C402.704 9.104 403.392 9.024 404 8.88V12.256H400V8.88ZM401.984 2.768C404.288 2.768 405.952 3.824 405.952 5.424C405.952 7.024 404.288 8.08 401.984 8.08C399.68 8.08 398.032 7.024 398.032 5.424C398.032 3.824 399.68 2.768 401.984 2.768ZM405.312 12.256V8.368C406.496 7.744 407.2 6.72 407.2 5.424C407.2 3.184 405.04 1.744 401.984 1.744C398.944 1.744 396.768 3.184 396.768 5.424C396.768 6.72 397.488 7.76 398.688 8.384V12.256H395.488V13.344H408.528V12.256H405.312ZM413.343 4.912C412.095 4.912 411.38 5.40267 411.199 6.384H409.855C409.93 5.59467 410.255 4.96 410.831 4.48C411.407 4 412.212 3.76 413.247 3.76C414.292 3.76 415.114 4.016 415.711 4.528C416.319 5.04 416.623 5.664 416.623 6.4C416.623 6.95467 416.484 7.41867 416.207 7.792C415.93 8.15467 415.482 8.50667 414.863 8.848C414.596 8.99733 414.372 9.13067 414.191 9.248C414.01 9.36533 413.866 9.49867 413.759 9.648C413.556 9.91467 413.455 10.2987 413.455 10.8V11.424H412.207V10.704C412.207 10.032 412.319 9.52 412.543 9.168C412.767 8.80533 413.172 8.464 413.759 8.144C414.346 7.824 414.74 7.54667 414.943 7.312C415.146 7.06667 415.247 6.74133 415.247 6.336C415.247 5.93067 415.076 5.59467 414.735 5.328C414.404 5.05067 413.94 4.912 413.343 4.912ZM412.847 12.368C413.124 12.368 413.354 12.4587 413.535 12.64C413.716 12.8213 413.807 13.04 413.807 13.296C413.807 13.5413 413.716 13.7493 413.535 13.92C413.354 14.0907 413.124 14.176 412.847 14.176C412.57 14.176 412.346 14.0907 412.175 13.92C412.004 13.7493 411.919 13.5413 411.919 13.296C411.919 13.04 412.004 12.8213 412.175 12.64C412.346 12.4587 412.57 12.368 412.847 12.368ZM1.68 26.24V35.568H8.272V26.24H1.68ZM6.992 27.296V34.528H2.96V27.296H6.992ZM11.28 24.832V39.216H12.592V24.832H11.28ZM19.8228 26.192H18.5588V28.928C18.5588 31.392 17.3748 33.968 15.4068 35.12L16.2228 36.096C17.6468 35.216 18.6868 33.6 19.1988 31.696C19.7108 33.44 20.6708 34.96 22.0308 35.792L22.7828 34.768C20.8948 33.616 19.8228 31.184 19.8228 28.88V26.192ZM23.5988 29.984H21.2308V31.072H23.5988V38.48H24.8308V25.152H23.5988V29.984ZM26.5108 24.832V39.184H27.7588V24.832H26.5108ZM36.2055 31.696H32.2375V27.136H36.2055V31.696ZM37.4855 29.904H40.7815V35.312H42.1095V24.848H40.7815V28.832H37.4855V26.096H30.9415V32.752H37.4855V29.904ZM34.2535 37.792V34.352H32.9255V38.864H42.5095V37.792H34.2535ZM50.1243 27.392H53.5003V26.304H45.4843V27.392H48.8123V29.216C48.8123 31.696 47.0683 34.4 45.0043 35.376L45.7723 36.432C47.4043 35.6 48.8123 33.792 49.4683 31.696C50.1563 33.664 51.5643 35.312 53.2283 36.08L53.9643 35.024C51.8523 34.128 50.1243 31.648 50.1243 29.216V27.392ZM55.4363 24.848V39.184H56.7483V24.848H55.4363ZM67.7435 27.584H70.3035V26.512H63.7595V27.584H66.4795V28.88C66.4795 31.52 65.3595 34.128 63.3595 35.328L64.1595 36.304C65.5835 35.408 66.6235 33.728 67.1195 31.76C67.6155 33.584 68.6075 35.12 69.9995 35.952L70.7995 34.992C68.8155 33.872 67.7435 31.376 67.7435 28.88V27.584ZM71.5835 29.984H69.2155V31.056H71.5835V38.432H72.8315V25.152H71.5835V29.984ZM74.4635 24.816V39.168H75.7275V24.816H74.4635ZM78.8783 26.384V27.44H84.1103C83.8703 30.8 82.0943 33.536 78.2383 35.424L78.9583 36.448C83.7263 34.096 85.4223 30.464 85.4223 26.384H78.8783ZM88.7503 24.848V30.592H85.3903V31.664H88.7503V39.184H90.0623V24.848H88.7503ZM96.221 34.816C95.069 34.816 94.349 33.36 94.349 31.008C94.349 28.704 95.069 27.248 96.221 27.248C97.341 27.248 98.077 28.704 98.077 31.008C98.077 33.36 97.341 34.816 96.221 34.816ZM101.069 30.416H99.261C99.101 27.712 97.949 26.032 96.221 26.032C94.349 26.032 93.149 27.952 93.149 31.008C93.149 34.112 94.349 36.032 96.221 36.032C97.981 36.032 99.149 34.304 99.261 31.488H101.069V38.48H102.317V25.152H101.069V30.416ZM103.917 24.832V39.184H105.165V24.832H103.917ZM114.448 34.384H113.136V38.864H123.136V37.792H114.448V34.384ZM122.448 31.904C122.848 29.744 122.848 28.192 122.848 26.832V25.6H113.152V26.656H121.552V26.832C121.552 27.328 121.552 27.872 121.52 28.464L112.8 28.752L112.976 29.824L121.472 29.44C121.408 30.176 121.312 30.992 121.12 31.904H111.488V32.976H124.528V31.904H122.448ZM137.188 36.288V32.608H141.556V31.552H132.996V27.056H141.412V25.984H131.684V32.608H135.86V36.288H130.02V37.376H143.06V36.288H137.188ZM151.25 26.128C153.506 26.128 154.93 26.752 154.93 27.808C154.93 28.848 153.506 29.472 151.25 29.472C148.962 29.472 147.538 28.848 147.538 27.808C147.538 26.752 148.962 26.128 151.25 26.128ZM151.25 30.48C154.338 30.48 156.274 29.504 156.274 27.808C156.274 26.096 154.338 25.104 151.25 25.104C148.13 25.104 146.194 26.096 146.194 27.808C146.194 29.504 148.13 30.48 151.25 30.48ZM154.866 37.936H147.634V35.312H154.866V37.936ZM157.73 32.64V31.584H144.754V32.64H150.594V34.272H146.354V38.992H156.146V34.272H151.906V32.64H157.73ZM165.953 26.064C168.305 26.064 169.649 26.608 169.649 27.568C169.649 28.528 168.305 29.072 165.953 29.072C163.601 29.072 162.257 28.528 162.257 27.568C162.257 26.608 163.601 26.064 165.953 26.064ZM165.953 30.048C169.105 30.048 170.993 29.184 170.993 27.568C170.993 25.952 169.105 25.072 165.953 25.072C162.801 25.072 160.913 25.952 160.913 27.568C160.913 29.184 162.801 30.048 165.953 30.048ZM162.353 36.544H170.785V33.312H161.025V34.304H169.489V35.584H161.073V39.024H171.217V38H162.353V36.544ZM159.457 31.024V32.08H172.449V31.024H159.457ZM179.108 30.112C181.492 29.888 183.636 28.976 184.5 27.552C185.364 28.976 187.508 29.888 189.876 30.112L190.292 29.12C187.748 28.896 185.46 27.808 185.284 26.368H189.812V25.328H179.188V26.368H183.716C183.524 27.808 181.22 28.896 178.692 29.12L179.108 30.112ZM190.98 31.872V30.816H177.988V31.872H183.828V33.296H179.556V34.288H188.02V35.648H179.604V39.024H189.748V38.016H180.884V36.592H189.316V33.296H185.156V31.872H190.98ZM208.888 30.304C206.28 29.92 203.72 28.144 203.72 26.144V25.344H202.344V26.144C202.344 28.192 199.816 29.92 197.208 30.304L197.736 31.36C199.976 30.976 202.136 29.744 203.032 28C203.96 29.728 206.12 30.976 208.344 31.36L208.888 30.304ZM209.512 32.912H196.552V34H202.344V39.2H203.656V34H209.528L209.512 32.912ZM226.843 24.848H225.531V33.04H226.843V24.848ZM219.131 26.768C220.555 26.768 221.611 27.712 221.611 29.024C221.611 30.352 220.555 31.28 219.131 31.28C217.707 31.28 216.683 30.352 216.683 29.024C216.683 27.712 217.707 26.768 219.131 26.768ZM219.131 32.368C221.307 32.368 222.891 31.008 222.891 29.024C222.891 27.04 221.307 25.68 219.131 25.68C216.971 25.68 215.403 27.04 215.403 29.024C215.403 31.008 216.971 32.368 219.131 32.368ZM225.243 33.664H223.963V34.432C223.963 35.552 223.275 36.992 221.899 37.84C220.571 37.056 219.915 35.696 219.915 34.432V33.664H218.651V34.432C218.651 35.808 217.579 37.36 215.771 38L216.427 38.992C217.771 38.48 218.747 37.488 219.259 36.336C219.691 37.536 220.555 38.576 221.931 39.12C223.259 38.544 224.139 37.456 224.587 36.288C225.067 37.488 226.059 38.48 227.467 38.992L228.123 38C226.299 37.392 225.243 35.92 225.243 34.432V33.664ZM241.29 29.152H232.842V25.36H231.53V30.224H241.29V29.152ZM232.746 34.64H231.434V38.832H241.37V37.76H232.746V34.64ZM229.77 32.144V33.2H242.778V32.144H229.77ZM260.077 24.848H258.765V32.272H260.077V24.848ZM257.005 30.832C254.877 30.128 253.373 28.336 253.373 26.352V25.264H252.061V26.352C252.061 28.432 250.573 30.352 248.413 31.104L249.085 32.128C250.781 31.52 252.109 30.208 252.733 28.56C253.389 30.08 254.701 31.28 256.349 31.856L257.005 30.832ZM252.125 37.984V36.448H260.093V32.992H250.797V34.016H258.797V35.456H250.829V39.024H260.573V37.984H252.125ZM265.052 26.576H263.74V35.456H264.652C266.204 35.456 267.852 35.376 269.788 35.008L269.66 33.872C267.948 34.208 266.428 34.304 265.052 34.32V26.576ZM273.948 24.832V30.672H271.916V25.152H270.684V38.448H271.916V31.76H273.948V39.168H275.212V24.832H273.948ZM291.599 26.784C291.599 27.904 291.599 28.96 291.215 30.432L292.495 30.576C292.895 29.104 292.895 27.936 292.895 26.784V25.568H283.119V26.624H291.599V26.784ZM287.999 38.144C285.759 38.144 284.319 37.536 284.319 36.544C284.319 35.52 285.759 34.912 287.999 34.912C290.255 34.912 291.695 35.52 291.695 36.544C291.695 37.536 290.255 38.144 287.999 38.144ZM287.999 33.904C284.943 33.904 283.007 34.88 283.007 36.544C283.007 38.176 284.943 39.168 287.999 39.168C291.055 39.168 293.007 38.176 293.007 36.544C293.007 34.88 291.055 33.904 287.999 33.904ZM288.207 31.52V28.768H286.895V31.52H281.599V32.576H294.511V31.52H288.207ZM297.134 26.384V27.44H302.526C302.254 30.848 300.334 33.6 296.478 35.44L297.182 36.512C301.95 34.176 303.854 30.528 303.854 26.384H297.134ZM306.75 24.832V39.184H308.062V24.832H306.75ZM318.668 28.56V29.632H321.5V33.392H322.828V24.848H321.5V28.56H318.668ZM319.468 31.824C317.388 31.088 315.98 29.28 315.98 27.44V26.944H319.132V25.888H311.468V26.944H314.668V27.44C314.668 29.504 313.196 31.44 311.052 32.224L311.74 33.264C313.42 32.624 314.748 31.28 315.356 29.616C315.98 31.088 317.212 32.272 318.812 32.848L319.468 31.824ZM318.092 38.16C315.932 38.16 314.62 37.552 314.62 36.512C314.62 35.472 315.932 34.848 318.092 34.848C320.252 34.848 321.564 35.472 321.564 36.512C321.564 37.552 320.252 38.16 318.092 38.16ZM318.092 33.84C315.148 33.84 313.308 34.816 313.308 36.512C313.308 38.208 315.148 39.184 318.092 39.184C321.036 39.184 322.876 38.208 322.876 36.512C322.876 34.816 321.036 33.84 318.092 33.84ZM334.379 26.576H330.763V24.848H329.451V26.576H325.803V27.616H334.379V26.576ZM327.963 31.12C327.963 30.128 328.827 29.472 330.107 29.472C331.387 29.472 332.251 30.128 332.251 31.12C332.251 32.112 331.387 32.752 330.107 32.752C328.827 32.752 327.963 32.112 327.963 31.12ZM330.763 33.744C332.411 33.536 333.499 32.544 333.499 31.12C333.499 29.504 332.107 28.464 330.107 28.464C328.107 28.464 326.715 29.504 326.715 31.12C326.715 32.544 327.803 33.536 329.451 33.744V35.312C328.059 35.36 326.715 35.36 325.563 35.36L325.739 36.464C328.251 36.464 331.627 36.432 334.699 35.888L334.619 34.912C333.387 35.104 332.059 35.2 330.763 35.264V33.744ZM339.019 30.928H336.779V24.832H335.467V39.184H336.779V32.032H339.019V30.928ZM352.91 31.584C350.782 30.848 349.31 28.976 349.31 26.912V25.504H347.998V26.912C347.998 29.056 346.542 31.056 344.382 31.84L345.054 32.88C346.734 32.24 348.046 30.912 348.67 29.216C349.31 30.8 350.606 32.032 352.254 32.624L352.91 31.584ZM346.43 35.264H354.718V39.2H356.03V34.208H346.43V35.264ZM354.718 24.848V33.472H356.03V24.848H354.718ZM368.973 28.64H361.933V26.352H368.973V28.64ZM370.269 25.312H360.653V29.68H370.269V25.312ZM371.949 31.936V30.88H358.957V31.936H364.797V33.344H360.525V34.336H368.989V35.616H360.573V39.024H370.717V38H361.853V36.576H370.285V33.344H366.109V31.936H371.949ZM380.172 26.064C382.524 26.064 383.868 26.608 383.868 27.568C383.868 28.528 382.524 29.072 380.172 29.072C377.82 29.072 376.476 28.528 376.476 27.568C376.476 26.608 377.82 26.064 380.172 26.064ZM380.172 30.048C383.324 30.048 385.212 29.184 385.212 27.568C385.212 25.952 383.324 25.072 380.172 25.072C377.02 25.072 375.132 25.952 375.132 27.568C375.132 29.184 377.02 30.048 380.172 30.048ZM376.572 36.544H385.004V33.312H375.244V34.304H383.708V35.584H375.292V39.024H385.436V38H376.572V36.544ZM373.676 31.024V32.08H386.668V31.024H373.676ZM398.703 38.16C396.447 38.16 395.119 37.6 395.119 36.624C395.119 35.648 396.447 35.088 398.703 35.088C400.943 35.088 402.287 35.648 402.287 36.624C402.287 37.6 400.943 38.16 398.703 38.16ZM398.703 34.064C395.631 34.064 393.791 34.976 393.791 36.624C393.791 38.272 395.631 39.168 398.703 39.168C401.791 39.168 403.615 38.272 403.615 36.624C403.615 34.976 401.791 34.064 398.703 34.064ZM396.719 30.256C397.311 30.352 397.983 30.416 398.703 30.416C399.439 30.416 400.111 30.352 400.703 30.256V31.936H396.719V30.256ZM395.007 27.76C395.007 26.72 396.415 26.112 398.703 26.112C400.991 26.112 402.399 26.72 402.399 27.76C402.399 28.784 400.991 29.408 398.703 29.408C396.415 29.408 395.007 28.784 395.007 27.76ZM401.999 31.936V29.904C403.103 29.456 403.743 28.72 403.743 27.76C403.743 26.08 401.823 25.088 398.703 25.088C395.599 25.088 393.663 26.08 393.663 27.76C393.663 28.736 394.287 29.456 395.423 29.92V31.936H392.207V32.992H405.199V31.936H401.999ZM414.094 36.288V32.608H418.462V31.552H409.902V27.056H418.318V25.984H408.59V32.608H412.766V36.288H406.926V37.376H419.966V36.288H414.094ZM424.909 34.816C423.757 34.816 423.037 33.36 423.037 31.008C423.037 28.704 423.757 27.248 424.909 27.248C426.029 27.248 426.765 28.704 426.765 31.008C426.765 33.36 426.029 34.816 424.909 34.816ZM429.757 30.416H427.949C427.789 27.712 426.637 26.032 424.909 26.032C423.037 26.032 421.837 27.952 421.837 31.008C421.837 34.112 423.037 36.032 424.909 36.032C426.669 36.032 427.837 34.304 427.949 31.488H429.757V38.48H431.005V25.152H429.757V30.416ZM432.605 24.832V39.184H433.853V24.832H432.605ZM446.096 30.896H442.064V26.848H446.096V30.896ZM447.376 25.808H440.784V31.952H447.376V25.808ZM451.568 34.928V33.872H442.192V34.928H446.192C446.032 36.464 444 37.776 441.632 38.128L442.112 39.136C444.24 38.8 446.08 37.776 446.896 36.32C447.712 37.76 449.552 38.8 451.632 39.152L452.128 38.144C449.792 37.776 447.728 36.432 447.568 34.928H451.568ZM451.328 28.272V24.832H450.016V33.024H451.328V29.36H453.456V28.272H451.328ZM462.863 30.704H460.383C460.863 29.424 461.071 28.064 461.071 26.656H455.535V27.728H459.775C459.535 30.736 457.999 33.312 454.927 35.152L455.695 36.096C457.679 34.912 459.055 33.424 459.919 31.76H462.863V38.464H464.111V25.216H462.863V30.704ZM465.855 24.832V39.184H467.103V24.832H465.855ZM470.461 38.08C470.216 38.0587 470.013 37.9787 469.853 37.84C469.693 37.7013 469.613 37.5147 469.613 37.28C469.613 37.0453 469.693 36.848 469.853 36.688C470.024 36.528 470.259 36.448 470.557 36.448C470.867 36.448 471.123 36.5707 471.325 36.816C471.528 37.0507 471.629 37.3493 471.629 37.712C471.629 38.0747 471.512 38.4427 471.277 38.816C471.043 39.2 470.685 39.5093 470.205 39.744L469.261 39.28C469.923 38.96 470.323 38.56 470.461 38.08ZM9.136 55.584C7.072 54.88 5.664 53.088 5.664 51.152V49.568H4.352V51.04C4.352 53.232 2.96 55.184 0.784 55.968L1.472 57.008C3.152 56.368 4.432 55.056 5.024 53.376C5.664 54.848 6.896 56.032 8.448 56.608L9.136 55.584ZM7.424 62.144C5.296 62.144 4 61.552 4 60.56C4 59.552 5.296 58.96 7.424 58.96C9.536 58.96 10.832 59.552 10.832 60.56C10.832 61.552 9.536 62.144 7.424 62.144ZM7.424 57.936C4.496 57.936 2.688 58.88 2.688 60.56C2.688 62.224 4.496 63.168 7.424 63.168C10.336 63.168 12.144 62.224 12.144 60.56C12.144 58.88 10.336 57.936 7.424 57.936ZM11.984 52.544V48.848H10.672V57.536H11.984V53.632H14.112V52.544H11.984ZM24.0948 50.08H20.6388V48.72H19.3268V50.08H15.8548V51.056H24.0948V50.08ZM17.8708 53.696C17.8708 52.992 18.6868 52.544 19.9828 52.544C21.2628 52.544 22.0788 52.992 22.0788 53.696C22.0788 54.4 21.2628 54.832 19.9828 54.832C18.6868 54.832 17.8708 54.4 17.8708 53.696ZM24.5268 56.432C23.2948 56.608 21.9508 56.704 20.6388 56.784V55.696C22.2868 55.536 23.3268 54.816 23.3268 53.696C23.3268 52.416 21.9988 51.648 19.9828 51.648C17.9508 51.648 16.6228 52.416 16.6228 53.696C16.6228 54.816 17.6628 55.552 19.3268 55.696V56.832C17.9508 56.88 16.6388 56.896 15.5028 56.896L15.6468 57.92C18.1748 57.92 21.5668 57.888 24.6068 57.344L24.5268 56.432ZM22.0948 62.192C19.9348 62.192 18.7188 61.744 18.7188 60.96C18.7188 60.16 19.9348 59.728 22.0948 59.728C24.2548 59.728 25.4708 60.16 25.4708 60.96C25.4708 61.744 24.2548 62.192 22.0948 62.192ZM22.0948 58.752C19.1188 58.752 17.3908 59.536 17.3908 60.96C17.3908 62.384 19.1188 63.168 22.0948 63.168C25.0548 63.168 26.7988 62.384 26.7988 60.96C26.7988 59.536 25.0548 58.752 22.0948 58.752ZM26.6868 53.168V48.848H25.3748V58.576H26.6868V54.256H28.7828V53.168H26.6868ZM33.5335 58.816C32.3815 58.816 31.6615 57.36 31.6615 55.008C31.6615 52.704 32.3815 51.248 33.5335 51.248C34.6535 51.248 35.3895 52.704 35.3895 55.008C35.3895 57.36 34.6535 58.816 33.5335 58.816ZM38.3815 54.416H36.5735C36.4135 51.712 35.2615 50.032 33.5335 50.032C31.6615 50.032 30.4615 51.952 30.4615 55.008C30.4615 58.112 31.6615 60.032 33.5335 60.032C35.2935 60.032 36.4615 58.304 36.5735 55.488H38.3815V62.48H39.6295V49.152H38.3815V54.416ZM41.2295 48.832V63.184H42.4775V48.832H41.2295ZM54.7208 54.896H50.6888V50.848H54.7208V54.896ZM56.0008 49.808H49.4088V55.952H56.0008V49.808ZM60.1928 58.928V57.872H50.8168V58.928H54.8168C54.6568 60.464 52.6248 61.776 50.2568 62.128L50.7368 63.136C52.8648 62.8 54.7048 61.776 55.5208 60.32C56.3368 61.76 58.1768 62.8 60.2568 63.152L60.7528 62.144C58.4168 61.776 56.3528 60.432 56.1927 58.928H60.1928ZM59.9528 52.272V48.832H58.6408V57.024H59.9528V53.36H62.0808V52.272H59.9528ZM71.4875 54.704H69.0075C69.4875 53.424 69.6955 52.064 69.6955 50.656H64.1595V51.728H68.3995C68.1595 54.736 66.6235 57.312 63.5515 59.152L64.3195 60.096C66.3035 58.912 67.6795 57.424 68.5435 55.76H71.4875V62.464H72.7355V49.216H71.4875V54.704ZM74.4795 48.832V63.184H75.7275V48.832H74.4795ZM94.4508 55.84C91.9388 55.392 89.2028 53.28 89.2028 50.896V49.792H87.8268V50.896C87.8268 53.28 85.1068 55.392 82.5948 55.84L83.1388 56.928C85.3468 56.464 87.5868 54.976 88.5148 52.928C89.4427 54.976 91.6988 56.464 93.8908 56.928L94.4508 55.84ZM89.1708 60.24V56.752H87.8588V60.24H82.0668V61.312H95.0908V60.24H89.1708ZM97.3295 50.688V51.76H101.634C101.442 54.736 100.082 57.328 96.7855 59.168L97.5535 60.112C101.634 57.808 102.93 54.384 102.93 50.688H97.3295ZM107.698 48.832V54.608H105.746V49.216H104.514V62.464H105.746V55.68H107.698V63.184H108.962V48.832H107.698ZM115.712 58.896C114.416 58.896 113.472 57.968 113.472 56.688C113.472 55.392 114.416 54.464 115.712 54.464C117.024 54.464 117.968 55.392 117.968 56.688C117.968 57.968 117.024 58.896 115.712 58.896ZM115.712 53.376C113.696 53.376 112.24 54.752 112.24 56.688C112.24 58.64 113.696 59.984 115.712 59.984C117.76 59.984 119.216 58.64 119.216 56.688C119.216 54.752 117.76 53.376 115.712 53.376ZM116.352 49.008H115.04V51.136H111.424V52.192H119.888V51.136H116.352V49.008ZM124.912 54.736H122.56V48.848H121.248V63.184H122.56V55.84H124.912V54.736ZM137.727 53.152H129.279V49.36H127.967V54.224H137.727V53.152ZM129.183 58.64H127.871V62.832H137.807V61.76H129.183V58.64ZM126.207 56.144V57.2H139.215V56.144H126.207ZM146.082 52.864C146.082 51.584 146.962 50.688 148.162 50.688C149.346 50.688 150.226 51.584 150.226 52.864C150.226 54.144 149.346 55.056 148.162 55.056C146.962 55.056 146.082 54.144 146.082 52.864ZM151.426 52.864C151.426 50.944 150.05 49.632 148.162 49.632C146.258 49.632 144.898 50.944 144.898 52.864C144.898 54.8 146.258 56.128 148.162 56.128C150.05 56.128 151.426 54.8 151.426 52.864ZM155.57 61.92H148.754V60.064H155.57V61.92ZM155.57 59.024H148.754V57.296H147.442V62.992H156.866V57.296H155.57V59.024ZM155.602 48.848V52.128H153.778V49.12H152.53V56.56H153.778V53.216H155.602V56.672H156.866V48.848H155.602ZM165.953 50.064C168.305 50.064 169.649 50.608 169.649 51.568C169.649 52.528 168.305 53.072 165.953 53.072C163.601 53.072 162.257 52.528 162.257 51.568C162.257 50.608 163.601 50.064 165.953 50.064ZM165.953 54.048C169.105 54.048 170.993 53.184 170.993 51.568C170.993 49.952 169.105 49.072 165.953 49.072C162.801 49.072 160.913 49.952 160.913 51.568C160.913 53.184 162.801 54.048 165.953 54.048ZM162.353 60.544H170.785V57.312H161.025V58.304H169.489V59.584H161.073V63.024H171.217V62H162.353V60.544ZM159.457 55.024V56.08H172.449V55.024H159.457ZM180.228 51.296H185.716V50.192H178.932V59.648H180.084C182.98 59.648 184.852 59.552 187.06 59.152L186.916 58.048C184.804 58.448 182.996 58.528 180.228 58.528V51.296ZM188.436 48.832V63.216H189.748V48.832H188.436ZM197.555 51.392H200.739V50.304H192.979V51.392H196.259V53.216C196.259 55.648 194.531 58.368 192.483 59.392L193.251 60.432C194.867 59.6 196.259 57.776 196.915 55.68C197.571 57.6 198.915 59.28 200.515 60.08L201.267 59.024C199.187 58.048 197.555 55.504 197.555 53.216V51.392ZM206.131 54.624H203.763V48.848H202.451V63.184H203.763V55.728H206.131V54.624ZM219.218 48.848H217.906V59.328H219.218V48.848ZM209.058 53.36C209.058 51.968 210.114 50.976 211.506 50.976C212.93 50.976 213.986 51.968 213.986 53.36C213.986 54.784 212.93 55.776 211.506 55.776C210.114 55.776 209.058 54.784 209.058 53.36ZM215.266 53.36C215.266 51.296 213.65 49.84 211.506 49.84C209.378 49.84 207.778 51.296 207.778 53.36C207.778 55.44 209.378 56.912 211.506 56.912C213.65 56.912 215.266 55.44 215.266 53.36ZM211.298 61.792V58.256H209.986V62.864H219.65V61.792H211.298ZM226.369 58.896C225.073 58.896 224.129 57.968 224.129 56.688C224.129 55.392 225.073 54.464 226.369 54.464C227.681 54.464 228.625 55.392 228.625 56.688C228.625 57.968 227.681 58.896 226.369 58.896ZM226.369 53.376C224.353 53.376 222.897 54.752 222.897 56.688C222.897 58.64 224.353 59.984 226.369 59.984C228.417 59.984 229.873 58.64 229.873 56.688C229.873 54.752 228.417 53.376 226.369 53.376ZM227.009 49.008H225.697V51.136H222.081V52.192H230.545V51.136H227.009V49.008ZM235.569 54.736H233.217V48.848H231.905V63.184H233.217V55.84H235.569V54.736ZM240.783 50.72C242.191 50.72 243.215 51.664 243.215 52.992C243.215 54.32 242.191 55.28 240.783 55.28C239.391 55.28 238.367 54.32 238.367 52.992C238.367 51.664 239.391 50.72 240.783 50.72ZM247.375 51.904V54.048H244.303C244.399 53.728 244.463 53.376 244.463 52.992C244.463 52.608 244.399 52.24 244.287 51.904H247.375ZM247.375 55.12V57.008H248.703V48.848H247.375V50.832H243.679C243.023 50.08 241.999 49.616 240.783 49.616C238.671 49.616 237.119 51.008 237.119 52.992C237.119 54.976 238.671 56.384 240.783 56.384C242.015 56.384 243.055 55.904 243.727 55.12H247.375ZM247.135 57.472H245.855V58.416C245.855 59.552 245.183 61.008 243.823 61.872C242.479 61.088 241.823 59.712 241.823 58.416V57.472H240.559V58.416C240.559 59.824 239.487 61.376 237.679 62.048L238.335 63.024C239.679 62.496 240.655 61.504 241.167 60.352C241.599 61.536 242.463 62.608 243.839 63.136C245.167 62.576 246.031 61.472 246.479 60.304C246.959 61.52 247.983 62.496 249.375 63.024L250.031 62.048C248.191 61.424 247.135 59.92 247.135 58.416V57.472ZM263.838 53.312C261.294 52.992 258.766 51.408 258.766 49.632V48.992H257.422V49.632C257.422 51.456 254.91 52.992 252.334 53.312L252.814 54.368C255.054 54.016 257.198 52.896 258.094 51.296C259.006 52.896 261.134 54.016 263.358 54.368L263.838 53.312ZM261.582 61.936H254.526V60.112H261.582V61.936ZM261.582 59.104H254.526V57.424H253.23V62.992H262.878V57.424H261.582V59.104ZM251.582 55.376V56.432H264.574V55.376H251.582ZM268.525 50.224H267.213V59.472H268.397C270.685 59.472 272.941 59.312 275.437 58.8L275.293 57.68C272.909 58.16 270.685 58.352 268.525 58.352V50.224ZM276.765 48.832V63.168H278.077V48.832H276.765ZM282.956 51.296H288.316V50.208H281.644V59.632H282.78C285.484 59.632 287.372 59.536 289.564 59.12L289.42 58.032C287.34 58.4 285.5 58.512 282.956 58.512V51.296ZM294.444 54.496H292.076V48.832H290.764V63.216H292.076V55.584H294.444V54.496ZM296.314 62.144C296.048 62.144 295.824 62.0587 295.642 61.888C295.472 61.7067 295.386 61.4933 295.386 61.248C295.386 60.992 295.472 60.7787 295.642 60.608C295.824 60.4267 296.048 60.336 296.314 60.336C296.592 60.336 296.821 60.4267 297.002 60.608C297.184 60.7787 297.274 60.992 297.274 61.248C297.274 61.4933 297.184 61.7067 297.002 61.888C296.821 62.0587 296.592 62.144 296.314 62.144Z" fill="black"/>
</svg>
