<svg width="270" height="29" viewBox="0 0 270 29" fill="none" xmlns="http://www.w3.org/2000/svg">
<path d="M2.83429 3.42748V6.09748L5.39429 3.42748H7.01429L4.15429 6.34748L7.20429 9.91748H5.67429L3.36429 7.16748L2.83429 7.70748V9.91748H1.64429V3.42748H2.83429ZM8.28726 5.04748H9.46726V9.91748H8.28726V5.04748ZM8.14726 3.48748C8.14726 3.27415 8.21059 3.10748 8.33726 2.98748C8.46392 2.86081 8.64392 2.79748 8.87726 2.79748C9.10392 2.79748 9.28059 2.86081 9.40726 2.98748C9.54059 3.10748 9.60726 3.27415 9.60726 3.48748C9.60726 3.70081 9.54059 3.87081 9.40726 3.99748C9.28059 4.11748 9.10392 4.17748 8.87726 4.17748C8.64392 4.17748 8.46392 4.11748 8.33726 3.99748C8.21059 3.87081 8.14726 3.70081 8.14726 3.48748ZM15.7885 5.97748C16.1018 5.27748 16.6518 4.92748 17.4385 4.92748C18.0185 4.92748 18.4685 5.12415 18.7885 5.51748C19.0952 5.89081 19.2485 6.41081 19.2485 7.07748V9.91748H18.0585V7.07748C18.0585 6.71748 17.9718 6.44748 17.7985 6.26748C17.6252 6.08081 17.3818 5.98748 17.0685 5.98748C16.7552 5.98748 16.4985 6.12415 16.2985 6.39748C16.0985 6.67081 15.9918 7.08415 15.9785 7.63748V9.91748H14.7985V7.07748C14.7985 6.71748 14.7118 6.44748 14.5385 6.26748C14.3652 6.08081 14.1218 5.98748 13.8085 5.98748C13.4952 5.98748 13.2252 6.12748 12.9985 6.40748C12.7785 6.68748 12.6618 7.10748 12.6485 7.66748V9.91748H11.4685V5.05748H12.4985L12.6285 5.89748C12.9485 5.25081 13.4618 4.92748 14.1685 4.92748C14.5752 4.92748 14.9118 5.02081 15.1785 5.20748C15.4518 5.39415 15.6552 5.65081 15.7885 5.97748ZM21.5607 5.05748L22.7307 8.55748L23.7507 5.05748H24.9507L23.0907 10.7975C22.8974 11.3775 22.6607 11.7941 22.3807 12.0475C22.1074 12.3008 21.7574 12.4275 21.3307 12.4275C20.8974 12.4275 20.464 12.3208 20.0307 12.1075V11.0675C20.3774 11.2875 20.7274 11.3975 21.0807 11.3975C21.314 11.3975 21.504 11.3041 21.6507 11.1175C21.804 10.9308 21.9274 10.6875 22.0207 10.3875L22.1707 9.91748L20.2207 5.05748H21.5607ZM29.3898 5.63748C29.5564 5.85081 29.6798 6.09748 29.7598 6.37748C29.8464 6.65748 29.8898 6.91415 29.8898 7.14748C29.8898 7.38081 29.8764 7.59081 29.8498 7.77748H26.7098C26.7231 8.17081 26.8198 8.49081 26.9998 8.73748C27.1798 8.98415 27.4531 9.10748 27.8198 9.10748C28.3064 9.10748 28.5964 8.89415 28.6898 8.46748H29.8798C29.7998 8.95415 29.5764 9.33748 29.2098 9.61748C28.8298 9.91081 28.3664 10.0575 27.8198 10.0575C27.1798 10.0575 26.6431 9.82415 26.2098 9.35748C25.7631 8.87081 25.5398 8.24748 25.5398 7.48748C25.5398 6.70748 25.7631 6.08081 26.2098 5.60748C26.6364 5.15415 27.1731 4.92748 27.8198 4.92748C28.4931 4.92748 29.0164 5.16415 29.3898 5.63748ZM27.8298 5.86748C27.4964 5.86748 27.2364 5.97748 27.0498 6.19748C26.8631 6.41081 26.7531 6.68748 26.7198 7.02748H28.7898C28.7898 6.50081 28.6231 6.14748 28.2898 5.96748C28.1631 5.90081 28.0098 5.86748 27.8298 5.86748ZM32.4825 6.01748C32.7758 5.31748 33.2158 4.96748 33.8025 4.96748C33.9158 4.96748 34.0592 4.99081 34.2325 5.03748L34.2125 6.21748C34.0258 6.17748 33.8425 6.15748 33.6625 6.15748C32.8758 6.15748 32.4825 6.70081 32.4825 7.78748V9.91748H31.3025V5.04748H32.4825V6.01748ZM35.5626 5.04748H36.7426V9.91748H35.5626V5.04748ZM35.4226 3.48748C35.4226 3.27415 35.486 3.10748 35.6126 2.98748C35.7393 2.86081 35.9193 2.79748 36.1526 2.79748C36.3793 2.79748 36.556 2.86081 36.6826 2.98748C36.816 3.10748 36.8826 3.27415 36.8826 3.48748C36.8826 3.70081 36.816 3.87081 36.6826 3.99748C36.556 4.11748 36.3793 4.17748 36.1526 4.17748C35.9193 4.17748 35.7393 4.11748 35.6126 3.99748C35.486 3.87081 35.4226 3.70081 35.4226 3.48748ZM43.0639 5.97748C43.3772 5.27748 43.9272 4.92748 44.7139 4.92748C45.2939 4.92748 45.7439 5.12415 46.0639 5.51748C46.3706 5.89081 46.5239 6.41081 46.5239 7.07748V9.91748H45.3339V7.07748C45.3339 6.71748 45.2472 6.44748 45.0739 6.26748C44.9006 6.08081 44.6572 5.98748 44.3439 5.98748C44.0306 5.98748 43.7739 6.12415 43.5739 6.39748C43.3739 6.67081 43.2672 7.08415 43.2539 7.63748V9.91748H42.0739V7.07748C42.0739 6.71748 41.9872 6.44748 41.8139 6.26748C41.6406 6.08081 41.3972 5.98748 41.0839 5.98748C40.7706 5.98748 40.5006 6.12748 40.2739 6.40748C40.0539 6.68748 39.9372 7.10748 39.9239 7.66748V9.91748H38.7439V5.05748H39.7739L39.9039 5.89748C40.2239 5.25081 40.7372 4.92748 41.4439 4.92748C41.8506 4.92748 42.1872 5.02081 42.4539 5.20748C42.7272 5.39415 42.9306 5.65081 43.0639 5.97748Z" fill="black"/>
<path d="M61.0857 8.21748H59.5457L59.4057 9.60748H58.6657L58.8057 8.21748H57.8157L57.8657 7.67748H58.8657L59.0557 5.89748H58.0457L58.1057 5.36748H59.1057L59.2557 3.98748H59.9957L59.8457 5.36748H61.3857L61.5357 3.98748H62.2657L62.1157 5.36748H63.1457L63.0857 5.89748H62.0657L61.8757 7.67748H62.9057L62.8457 8.21748H61.8157L61.6757 9.60748H60.9357L61.0857 8.21748ZM59.6057 7.67748H61.1357L61.3257 5.89748H59.7957L59.6057 7.67748ZM68.5552 8.82748V6.42748H71.2952V5.76748H65.8952V2.45748H65.0752V6.42748H67.7352V8.82748H64.0752V9.49748H72.2252V8.82748H68.5552ZM77.3345 2.45748C78.8045 2.45748 79.6445 2.79748 79.6445 3.39748C79.6445 3.99748 78.8045 4.33748 77.3345 4.33748C75.8645 4.33748 75.0245 3.99748 75.0245 3.39748C75.0245 2.79748 75.8645 2.45748 77.3345 2.45748ZM77.3345 4.94748C79.3045 4.94748 80.4845 4.40748 80.4845 3.39748C80.4845 2.38748 79.3045 1.83748 77.3345 1.83748C75.3645 1.83748 74.1845 2.38748 74.1845 3.39748C74.1845 4.40748 75.3645 4.94748 77.3345 4.94748ZM75.0845 9.00748H80.3545V6.98748H74.2545V7.60748H79.5445V8.40748H74.2845V10.5575H80.6245V9.91748H75.0845V9.00748ZM73.2745 5.55748V6.21748H81.3945V5.55748H73.2745ZM85.4937 2.46748H84.6837V4.07748C84.6837 5.70748 83.6637 7.42748 82.3737 8.08748L82.8637 8.74748C83.8737 8.20748 84.7037 7.08748 85.0937 5.77748C85.5037 7.00748 86.3137 8.05748 87.2637 8.56748L87.7737 7.91748C86.5137 7.28748 85.4937 5.65748 85.4937 4.07748V2.46748ZM90.8637 5.32748H89.3837V1.69748H88.5637V10.6575H89.3837V6.00748H90.8637V5.32748ZM99.0429 1.69748H98.2229V8.25748H99.0429V1.69748ZM97.1629 6.32748C95.8429 5.88748 94.9129 4.79748 94.9129 3.58748V3.09748H96.9429V2.43748H92.0229V3.09748H94.0729V3.58748C94.0729 4.86748 93.1629 6.03748 91.8029 6.50748L92.2329 7.14748C93.2929 6.76748 94.1229 5.95748 94.5029 4.93748C94.9129 5.87748 95.7329 6.61748 96.7629 6.97748L97.1629 6.32748ZM94.0929 9.78748V7.63748H93.2729V10.4575H99.3129V9.78748H94.0929Z" fill="#026198"/>
<path d="M109.943 8.21748H108.403L108.263 9.60748H107.523L107.663 8.21748H106.673L106.723 7.67748H107.723L107.913 5.89748H106.903L106.963 5.36748H107.963L108.113 3.98748H108.853L108.703 5.36748H110.243L110.393 3.98748H111.123L110.973 5.36748H112.003L111.943 5.89748H110.923L110.733 7.67748H111.763L111.703 8.21748H110.673L110.533 9.60748H109.793L109.943 8.21748ZM108.463 7.67748H109.993L110.183 5.89748H108.653L108.463 7.67748ZM115.332 7.90748C114.462 7.90748 113.852 6.95748 113.852 5.49748C113.852 4.05748 114.462 3.11748 115.332 3.11748C116.192 3.11748 116.802 4.05748 116.802 5.49748C116.802 6.95748 116.192 7.90748 115.332 7.90748ZM115.332 2.37748C114.012 2.37748 113.072 3.59748 113.072 5.49748C113.072 7.41748 114.012 8.63748 115.332 8.63748C116.652 8.63748 117.582 7.41748 117.582 5.49748C117.582 3.59748 116.652 2.37748 115.332 2.37748ZM121.272 4.62748V3.94748H119.842V1.69748H119.022V10.6575H119.842V7.29748H121.272V6.61748H119.842V4.62748H121.272ZM128.702 4.00748V5.20748H126.352V5.87748H128.702V7.05748H129.532V1.69748H128.702V3.33748H126.672C126.732 3.02748 126.772 2.69748 126.772 2.36748H122.722V3.02748H125.882C125.732 4.57748 124.402 5.76748 122.262 6.40748L122.592 7.05748C124.522 6.49748 125.882 5.44748 126.462 4.00748H128.702ZM126.602 9.97748C125.282 9.97748 124.442 9.56748 124.442 8.88748C124.442 8.21748 125.282 7.80748 126.602 7.80748C127.922 7.80748 128.762 8.21748 128.762 8.88748C128.762 9.56748 127.922 9.97748 126.602 9.97748ZM126.602 7.15748C124.792 7.15748 123.632 7.80748 123.632 8.88748C123.632 9.96748 124.792 10.6175 126.602 10.6175C128.412 10.6175 129.572 9.96748 129.572 8.88748C129.572 7.80748 128.412 7.15748 126.602 7.15748Z" fill="#026198"/>
<path d="M139.943 8.21748H138.403L138.263 9.60748H137.523L137.663 8.21748H136.673L136.723 7.67748H137.723L137.913 5.89748H136.903L136.963 5.36748H137.963L138.113 3.98748H138.853L138.703 5.36748H140.243L140.393 3.98748H141.123L140.973 5.36748H142.003L141.943 5.89748H140.923L140.733 7.67748H141.763L141.703 8.21748H140.673L140.533 9.60748H139.793L139.943 8.21748ZM138.463 7.67748H139.993L140.183 5.89748H138.653L138.463 7.67748ZM145.952 2.46748H145.142V4.07748C145.142 5.70748 144.122 7.42748 142.832 8.08748L143.322 8.74748C144.332 8.20748 145.162 7.08748 145.552 5.77748C145.962 7.00748 146.772 8.05748 147.722 8.56748L148.232 7.91748C146.972 7.28748 145.952 5.65748 145.952 4.07748V2.46748ZM151.322 5.32748H149.842V1.69748H149.022V10.6575H149.842V6.00748H151.322V5.32748ZM159.502 1.69748H158.682V8.25748H159.502V1.69748ZM157.622 6.32748C156.302 5.88748 155.372 4.79748 155.372 3.58748V3.09748H157.402V2.43748H152.482V3.09748H154.532V3.58748C154.532 4.86748 153.622 6.03748 152.262 6.50748L152.692 7.14748C153.752 6.76748 154.582 5.95748 154.962 4.93748C155.372 5.87748 156.192 6.61748 157.222 6.97748L157.622 6.32748ZM154.552 9.78748V7.63748H153.732V10.4575H159.772V9.78748H154.552ZM169.071 6.19748C167.501 5.89748 165.801 4.53748 165.801 3.00748V2.31748H164.941V3.00748C164.941 4.53748 163.251 5.88748 161.681 6.19748L162.051 6.87748C163.401 6.55748 164.801 5.59748 165.371 4.28748C165.941 5.60748 167.341 6.56748 168.701 6.87748L169.071 6.19748ZM161.341 8.77748V9.45748H169.471V8.77748H161.341ZM171.75 5.67748H174.91V5.01748H171.75V3.16748H175.11V2.49748H170.93V8.49748H171.63C173.32 8.49748 174.48 8.43748 175.86 8.19748L175.78 7.53748C174.46 7.75748 173.34 7.82748 171.75 7.82748V5.67748ZM178.92 5.28748H177.44V1.68748H176.62V10.6475H177.44V5.97748H178.92V5.28748ZM185.959 3.53748C185.959 4.64748 185.959 5.98748 185.599 7.81748L186.419 7.90748C186.769 5.96748 186.769 4.67748 186.769 3.53748V2.63748H180.619V3.30748H185.959V3.53748ZM179.749 8.66748V9.34748H187.859V8.66748H179.749ZM193.229 5.72748C192.179 5.93748 191.299 5.98748 190.139 5.98748V4.71748H192.699V2.27748H189.329V2.93748H191.909V4.09748H189.349V6.64748H189.939C191.229 6.64748 192.169 6.59748 193.309 6.38748L193.229 5.72748ZM191.419 8.12748H195.709V9.87748H191.419V8.12748ZM190.619 10.5375H196.509V7.47748H190.619V10.5375ZM195.719 1.68748V3.96748H194.519V1.85748H193.739V6.92748H194.519V4.63748H195.719V7.04748H196.509V1.68748H195.719Z" fill="#026198"/>
<path d="M207.657 8.21748H206.117L205.977 9.60748H205.237L205.377 8.21748H204.387L204.437 7.67748H205.437L205.627 5.89748H204.617L204.677 5.36748H205.677L205.827 3.98748H206.567L206.417 5.36748H207.957L208.107 3.98748H208.837L208.687 5.36748H209.717L209.657 5.89748H208.637L208.447 7.67748H209.477L209.417 8.21748H208.387L208.247 9.60748H207.507L207.657 8.21748ZM206.177 7.67748H207.707L207.897 5.89748H206.367L206.177 7.67748ZM215.817 4.56748H213.587V2.68748H215.817V4.56748ZM212.767 4.56748H211.447V5.22748H217.957V4.56748H216.637V2.68748H217.997V2.01748H211.417V2.68748H212.767V4.56748ZM216.947 9.11748C216.947 9.69748 216.117 10.0275 214.717 10.0275C213.297 10.0275 212.467 9.69748 212.467 9.11748C212.467 8.53748 213.297 8.20748 214.717 8.20748C216.117 8.20748 216.947 8.53748 216.947 9.11748ZM218.767 6.72748V6.05748H210.657V6.72748H214.307V7.59748C212.627 7.66748 211.637 8.18748 211.637 9.11748C211.637 10.1075 212.777 10.6475 214.717 10.6475C216.627 10.6475 217.777 10.1075 217.777 9.11748C217.777 8.19748 216.797 7.67748 215.127 7.59748V6.72748H218.767ZM226.416 4.00748V5.20748H224.066V5.87748H226.416V7.05748H227.246V1.69748H226.416V3.33748H224.386C224.446 3.02748 224.486 2.69748 224.486 2.36748H220.436V3.02748H223.596C223.446 4.57748 222.116 5.76748 219.976 6.40748L220.306 7.05748C222.236 6.49748 223.596 5.44748 224.176 4.00748H226.416ZM224.316 9.97748C222.996 9.97748 222.156 9.56748 222.156 8.88748C222.156 8.21748 222.996 7.80748 224.316 7.80748C225.636 7.80748 226.476 8.21748 226.476 8.88748C226.476 9.56748 225.636 9.97748 224.316 9.97748ZM224.316 7.15748C222.506 7.15748 221.346 7.80748 221.346 8.88748C221.346 9.96748 222.506 10.6175 224.316 10.6175C226.126 10.6175 227.286 9.96748 227.286 8.88748C227.286 7.80748 226.126 7.15748 224.316 7.15748Z" fill="#026198"/>
<path d="M237.8 8.3H236.26L236.12 9.69H235.38L235.52 8.3H234.53L234.58 7.76H235.58L235.77 5.98H234.76L234.82 5.45H235.82L235.97 4.07H236.71L236.56 5.45H238.1L238.25 4.07H238.98L238.83 5.45H239.86L239.8 5.98H238.78L238.59 7.76H239.62L239.56 8.3H238.53L238.39 9.69H237.65L237.8 8.3ZM236.32 7.76H237.85L238.04 5.98H236.51L236.32 7.76ZM244.41 5.93V3.19H245.19V10H244.55L244.45 9.2C244.296 9.5 244.093 9.72667 243.84 9.88C243.586 10.0333 243.31 10.11 243.01 10.11C242.403 10.11 241.893 9.87667 241.48 9.41C241.073 8.94333 240.87 8.33667 240.87 7.59C240.87 6.83667 241.07 6.23333 241.47 5.78C241.876 5.32667 242.386 5.1 243 5.1C243.62 5.1 244.09 5.37667 244.41 5.93ZM243.05 5.8C242.663 5.8 242.336 5.96333 242.07 6.29C241.81 6.61667 241.68 7.05333 241.68 7.6C241.68 8.14667 241.813 8.58667 242.08 8.92C242.346 9.24667 242.666 9.41 243.04 9.41C243.413 9.41 243.73 9.28667 243.99 9.04C244.256 8.78667 244.396 8.45 244.41 8.03V7.25C244.41 6.80333 244.28 6.45 244.02 6.19C243.76 5.93 243.436 5.8 243.05 5.8ZM250.177 6.9C250.177 6.46667 250.087 6.15667 249.907 5.97C249.727 5.78333 249.464 5.69 249.117 5.69C248.777 5.69 248.5 5.76 248.287 5.9C248.08 6.03333 247.977 6.24667 247.977 6.54H247.107C247.107 5.80667 247.5 5.35333 248.287 5.18C248.527 5.12667 248.787 5.1 249.067 5.1C249.66 5.1 250.124 5.25 250.457 5.55C250.79 5.85 250.957 6.30667 250.957 6.92V10H250.277L250.197 9.2C249.904 9.80667 249.374 10.11 248.607 10.11C248.094 10.11 247.68 9.96667 247.367 9.68C247.06 9.39333 246.907 9.03667 246.907 8.61C246.907 8.18333 247.077 7.85 247.417 7.61C247.764 7.37 248.194 7.25 248.707 7.25C249.22 7.25 249.71 7.33667 250.177 7.51V6.9ZM250.177 8.01C249.704 7.87667 249.29 7.81 248.937 7.81C248.584 7.81 248.297 7.87333 248.077 8C247.857 8.12667 247.747 8.32667 247.747 8.6C247.747 9.2 248.087 9.5 248.767 9.5C249.154 9.5 249.484 9.36333 249.757 9.09C250.037 8.81 250.177 8.45 250.177 8.01ZM252.863 5.21H253.653V10H252.863V5.21ZM253.253 4.09C253.093 4.09 252.966 4.04667 252.873 3.96C252.786 3.86667 252.743 3.74667 252.743 3.6C252.743 3.44667 252.786 3.32667 252.873 3.24C252.966 3.14667 253.093 3.1 253.253 3.1C253.413 3.1 253.539 3.14667 253.633 3.24C253.733 3.32667 253.783 3.44667 253.783 3.6C253.783 3.74667 253.733 3.86667 253.633 3.96C253.539 4.04667 253.413 4.09 253.253 4.09ZM255.801 3.19H256.591V10H255.801V3.19ZM257.644 11.39C257.97 11.6433 258.314 11.77 258.674 11.77C258.94 11.77 259.17 11.6367 259.364 11.37C259.504 11.1767 259.63 10.8833 259.744 10.49L259.884 10L257.924 5.22H258.804L260.254 9.03L261.384 5.22H262.184L260.394 10.95C260.24 11.4367 260.037 11.81 259.784 12.07C259.537 12.33 259.22 12.46 258.834 12.46C258.454 12.46 258.057 12.3433 257.644 12.11V11.39Z" fill="#026198"/>
<path d="M4.51429 23.9069H2.97429L2.83429 25.2969H2.09429L2.23429 23.9069H1.24429L1.29429 23.3669H2.29429L2.48429 21.5869H1.47429L1.53429 21.0569H2.53429L2.68429 19.6769H3.42429L3.27429 21.0569H4.81429L4.96429 19.6769H5.69429L5.54429 21.0569H6.57429L6.51429 21.5869H5.49429L5.30429 23.3669H6.33429L6.27429 23.9069H5.24429L5.10429 25.2969H4.36429L4.51429 23.9069ZM3.03429 23.3669H4.56429L4.75429 21.5869H3.22429L3.03429 23.3669ZM8.08382 18.3069V18.9769H11.3138C11.2838 19.5269 11.1938 20.0469 11.0438 20.5469L7.63382 20.7769L7.77382 21.4969L10.7938 21.2069C10.2438 22.4069 9.25382 23.4269 7.59382 24.2469L8.04382 24.8769C11.2538 23.2769 12.1338 20.9069 12.1338 18.3069H8.08382ZM15.8538 21.0169H14.4138V17.3769H13.5938V26.3469H14.4138V21.6969H15.8538V21.0169ZM19.683 23.2869H17.803V19.0669H19.683V23.2869ZM21.773 20.7569H20.443V18.4169H17.033V23.9369H20.443V21.4369H21.773V25.8969H22.553V17.5769H21.773V20.7569ZM23.553 17.3769V26.3369H24.333V17.3769H23.553ZM27.0823 21.4269H30.3123V18.2069H26.2523V18.8769H29.5023V20.7569H26.2823V24.1869H26.9923C28.7023 24.1869 29.9023 24.1169 31.3023 23.8669L31.2123 23.1869C29.8723 23.4469 28.7123 23.5069 27.0823 23.5069V21.4269ZM34.2923 20.9369H32.8223V17.3669H32.0023V26.3569H32.8223V21.6269H34.2923V20.9369Z" fill="#026198"/>
<path d="M43.9429 23.9069H42.4029L42.2629 25.2969H41.5229L41.6629 23.9069H40.6729L40.7229 23.3669H41.7229L41.9129 21.5869H40.9029L40.9629 21.0569H41.9629L42.1129 19.6769H42.8529L42.7029 21.0569H44.2429L44.3929 19.6769H45.1229L44.9729 21.0569H46.0029L45.9429 21.5869H44.9229L44.7329 23.3669H45.7629L45.7029 23.9069H44.6729L44.5329 25.2969H43.7929L43.9429 23.9069ZM42.4629 23.3669H43.9929L44.1829 21.5869H42.6529L42.4629 23.3669ZM47.3324 17.9469V18.6169H50.5924C50.4324 20.1369 49.1224 21.3169 46.9324 21.9069L47.2524 22.5569C49.8924 21.8369 51.4724 20.2269 51.4724 17.9469H47.3324ZM49.0624 23.5469H53.0924V25.5569H49.0624V23.5469ZM48.2524 26.2169H53.9024V22.8869H48.2524V26.2169ZM55.2324 19.5669H53.9024V17.3669H53.0824V22.4669H53.9024V20.2469H55.2324V19.5669ZM62.7016 22.6869H63.5316V17.3869H62.7016V19.2869H60.7516V19.9569H62.7016V22.6869ZM61.4016 21.6269C60.0916 21.1669 59.2216 20.0569 59.2216 18.7769V17.8869H58.4016V18.8069C58.4016 20.1769 57.5116 21.3769 56.1316 21.8669L56.5616 22.5369C57.6416 22.1269 58.4516 21.3169 58.8316 20.2569C59.2216 21.1869 59.9816 21.8969 60.9616 22.2669L61.4016 21.6269ZM60.5716 25.6869C59.2216 25.6869 58.4016 25.2969 58.4016 24.6469C58.4016 23.9869 59.2216 23.5969 60.5716 23.5969C61.9216 23.5969 62.7416 23.9869 62.7416 24.6469C62.7416 25.2969 61.9216 25.6869 60.5716 25.6869ZM60.5716 22.9569C58.7316 22.9569 57.5816 23.5669 57.5816 24.6469C57.5816 25.7169 58.7316 26.3369 60.5716 26.3369C62.4116 26.3369 63.5616 25.7169 63.5616 24.6469C63.5616 23.5669 62.4116 22.9569 60.5716 22.9569ZM68.3508 18.1569H67.5408V19.7669C67.5408 21.3969 66.5208 23.1169 65.2308 23.7769L65.7208 24.4369C66.7308 23.8969 67.5608 22.7769 67.9508 21.4669C68.3608 22.6969 69.1708 23.7469 70.1208 24.2569L70.6308 23.6069C69.3708 22.9769 68.3508 21.3469 68.3508 19.7669V18.1569ZM73.7208 21.0169H72.2408V17.3869H71.4208V26.3469H72.2408V21.6969H73.7208V21.0169ZM81.9001 17.3869H81.0801V23.9469H81.9001V17.3869ZM80.0201 22.0169C78.7001 21.5769 77.7701 20.4869 77.7701 19.2769V18.7869H79.8001V18.1269H74.8801V18.7869H76.9301V19.2769C76.9301 20.5569 76.0201 21.7269 74.6601 22.1969L75.0901 22.8369C76.1501 22.4569 76.9801 21.6469 77.3601 20.6269C77.7701 21.5669 78.5901 22.3069 79.6201 22.6669L80.0201 22.0169ZM76.9501 25.4769V23.3269H76.1301V26.1469H82.1701V25.4769H76.9501Z" fill="#026198"/>
<path d="M92.8 23.9069H91.26L91.12 25.2969H90.38L90.52 23.9069H89.53L89.58 23.3669H90.58L90.77 21.5869H89.76L89.82 21.0569H90.82L90.97 19.6769H91.71L91.56 21.0569H93.1L93.25 19.6769H93.98L93.83 21.0569H94.86L94.8 21.5869H93.78L93.59 23.3669H94.62L94.56 23.9069H93.53L93.39 25.2969H92.65L92.8 23.9069ZM91.32 23.3669H92.85L93.04 21.5869H91.51L91.32 23.3669ZM100.58 19.9169V20.5869H102.37V23.5869H103.19V17.3769H102.37V19.9169H100.58ZM101.05 21.8369C99.7395 21.4269 98.8595 20.3969 98.8595 19.2869V19.0869H100.84V18.4369H98.8595V17.3369H98.0395V18.4369H96.0495V19.0869H98.0395V19.2869C98.0395 20.5069 97.1495 21.6269 95.8195 22.0669L96.2295 22.7069C97.2795 22.3469 98.0895 21.5769 98.4695 20.6069C98.8595 21.4569 99.6395 22.1469 100.65 22.4769L101.05 21.8369ZM100.72 22.9869H99.8795V23.1769C99.8795 24.3969 98.4495 25.3869 96.8595 25.6669L97.1895 26.3069C98.5295 26.0669 99.7495 25.3469 100.3 24.3369C100.83 25.3669 102.05 26.0669 103.41 26.3069L103.73 25.6669C102.13 25.3969 100.72 24.4269 100.72 23.1769V22.9869ZM108.679 21.8269H106.259V20.2069H108.679V21.8269ZM109.489 20.5769H111.559V24.0169H112.389V17.3769H111.559V19.9069H109.489V17.9769H108.679V19.5569H106.259V17.9769H105.449V22.4869H109.489V20.5769ZM107.439 25.4769V23.3669H106.619V26.1469H112.599V25.4769H107.439ZM118.048 19.1269H118.908V18.4569H116.788V19.1269H117.328V20.0669C117.328 20.9369 117.288 22.2769 116.658 23.2169C116.018 22.2169 115.978 20.8169 115.978 20.0669V19.1269H116.518V18.4569H114.318V19.1269H115.258V20.0669C115.258 21.1669 115.048 22.7969 114.018 23.6369L114.488 24.1969C115.068 23.7369 115.398 22.9969 115.598 22.2069C115.758 23.0169 116.078 23.7969 116.658 24.2869C117.238 23.7969 117.548 23.0369 117.708 22.2369C117.908 23.0269 118.238 23.7369 118.818 24.1969L119.288 23.6369C118.258 22.8169 118.048 21.2169 118.048 20.0669V19.1269ZM121.158 17.3769V21.0369H120.188V17.5769H119.428V25.9069H120.188V21.7069H121.158V26.3469H121.938V17.3769H121.158ZM124.147 21.7969C125.197 21.5369 125.997 20.9369 126.377 20.1469C126.767 20.8769 127.547 21.4169 128.577 21.6669L128.907 21.0269C127.637 20.7369 126.767 19.9669 126.767 19.0669V19.0469H128.747V18.3969H126.767V17.3969H125.947V18.3969H123.977V19.0469H125.957V19.0669C125.957 20.0269 125.087 20.8469 123.797 21.1469L124.147 21.7969ZM129.297 22.1269C127.337 22.4069 125.087 22.4169 123.377 22.4169L123.487 23.1069C124.237 23.1069 125.087 23.0969 125.967 23.0669V26.0869H126.787V23.0169C127.637 22.9669 128.517 22.8769 129.357 22.7369L129.297 22.1269ZM129.937 17.3869V26.3569H130.757V17.3869H129.937ZM133.116 18.2569V24.0869H137.236V18.2569H133.116ZM136.436 18.9169V23.4369H133.916V18.9169H136.436ZM139.116 17.3769V26.3669H139.936V17.3769H139.116Z" fill="#026198"/>
<path d="M151.086 23.9069H149.546L149.406 25.2969H148.666L148.806 23.9069H147.816L147.866 23.3669H148.866L149.056 21.5869H148.046L148.106 21.0569H149.106L149.256 19.6769H149.996L149.846 21.0569H151.386L151.536 19.6769H152.266L152.116 21.0569H153.146L153.086 21.5869H152.066L151.876 23.3669H152.906L152.846 23.9069H151.816L151.676 25.2969H150.936L151.086 23.9069ZM149.606 23.3669H151.136L151.326 21.5869H149.796L149.606 23.3669ZM157.015 18.8969H159.245V21.8369H157.015V18.8969ZM158.545 24.5569V22.4969H161.435V21.8369H160.065V18.8969H161.455V18.2369H154.805V18.8969H156.195V21.8369H154.825V22.4969H157.715V24.5569H154.085V25.2269H162.215V24.5569H158.545ZM170.484 22.2169H165.154V20.7969H170.194V20.1469H165.154V18.8169H170.394V18.1569H164.324V22.8769H170.484V22.2169ZM163.274 24.5169V25.1869H171.414V24.5169H163.274ZM174.284 24.7469H179.554V22.8169H173.454V23.4269H178.744V24.1669H173.484V26.2469H179.824V25.6269H174.284V24.7469ZM175.414 18.2469H177.644V19.9569H175.414V18.2469ZM176.944 21.4469V20.5869H179.784V19.9569H178.464V18.2469H179.814V17.6169H173.234V18.2469H174.594V19.9569H173.264V20.5869H176.124V21.4469H172.474V22.1069H180.584V21.4469H176.944ZM183.023 21.4069H186.333V18.2069H182.173V18.8769H185.503V20.7469H182.203V24.1869H182.943C184.483 24.1869 185.843 24.1269 187.463 23.8569L187.383 23.1869C185.813 23.4369 184.493 23.5069 183.023 23.5069V21.4069ZM188.223 17.3669V26.3569H189.043V17.3669H188.223ZM192.462 20.3169C192.462 19.2869 193.512 18.6169 194.942 18.6169C196.372 18.6169 197.412 19.2869 197.412 20.3169C197.412 21.3469 196.372 22.0169 194.942 22.0169C193.512 22.0169 192.462 21.3469 192.462 20.3169ZM195.352 24.5169V22.6469C197.022 22.5269 198.192 21.6369 198.192 20.3169C198.192 18.8869 196.832 17.9669 194.942 17.9669C193.042 17.9669 191.672 18.8869 191.672 20.3169C191.672 21.6369 192.852 22.5269 194.522 22.6469V24.5169H190.872V25.1969H199.022V24.5169H195.352Z" fill="#026198"/>
<path d="M209.371 23.9069H207.831L207.691 25.2969H206.951L207.091 23.9069H206.101L206.151 23.3669H207.151L207.341 21.5869H206.331L206.391 21.0569H207.391L207.541 19.6769H208.281L208.131 21.0569H209.671L209.821 19.6769H210.551L210.401 21.0569H211.431L211.371 21.5869H210.351L210.161 23.3669H211.191L211.131 23.9069H210.101L209.961 25.2969H209.221L209.371 23.9069ZM207.891 23.3669H209.421L209.611 21.5869H208.081L207.891 23.3669ZM212.711 18.5369V19.2069H215.401C215.281 21.0669 214.431 22.6869 212.371 23.8369L212.851 24.4269C215.401 22.9869 216.211 20.8469 216.211 18.5369H212.711ZM219.191 17.3769V20.9869H217.971V17.6169H217.201V25.8969H217.971V21.6569H219.191V26.3469H219.981V17.3769H219.191ZM225.29 21.0069H222.75V19.6669H225.29V21.0069ZM226.09 17.7469H225.29V19.0369H222.75V17.7469H221.94V21.6669H226.09V17.7469ZM223.66 24.6169H228.53V22.4369H222.83V23.0869H227.72V24.0069H222.86V26.2469H228.86V25.5969H223.66V24.6169ZM228.53 19.3069V17.3869H227.71V22.0169H228.53V19.9869H229.86V19.3069H228.53ZM233.789 18.9769H235.779V18.2969H230.929V18.9769H232.979V20.1169C232.979 21.6369 231.899 23.3369 230.619 23.9769L231.099 24.6269C232.109 24.1069 232.979 22.9669 233.389 21.6569C233.799 22.8569 234.639 23.9069 235.639 24.4069L236.109 23.7469C234.809 23.1369 233.789 21.5469 233.789 20.1169V18.9769ZM239.149 20.9969H237.669V17.3869H236.849V26.3469H237.669V21.6869H239.149V20.9969Z" fill="#026198"/>
</svg>
