<svg width="21" height="20" viewBox="0 0 21 20" fill="none" xmlns="http://www.w3.org/2000/svg">
<path d="M18.4692 3.15821C18.0294 2.69404 17.5072 2.32583 16.9324 2.07461C16.3576 1.82339 15.7416 1.69409 15.1194 1.69409C14.4973 1.69409 13.8812 1.82339 13.3065 2.07461C12.7317 2.32583 12.2095 2.69404 11.7697 3.15821L10.8569 4.12106L9.94413 3.15821C9.05573 2.22106 7.85079 1.69458 6.59439 1.69458C5.338 1.69458 4.13306 2.22106 3.24465 3.15821C2.35625 4.09535 1.85715 5.36639 1.85715 6.69172C1.85715 8.01704 2.35625 9.28808 3.24465 10.2252L4.15744 11.1881L10.8569 18.2551L17.5564 11.1881L18.4692 10.2252C18.9092 9.76128 19.2583 9.21042 19.4964 8.60413C19.7346 7.99784 19.8571 7.34799 19.8571 6.69172C19.8571 6.03544 19.7346 5.38559 19.4964 4.7793C19.2583 4.17301 18.9092 3.62215 18.4692 3.15821V3.15821Z" stroke="black" stroke-width="2" stroke-linecap="round" stroke-linejoin="round"/>
</svg>
