<svg width="1308" height="1024" viewBox="0 0 1308 1024" fill="none" xmlns="http://www.w3.org/2000/svg">
<g filter="url(#filter0_dii)">
<path fill-rule="evenodd" clip-rule="evenodd" d="M305.954 827.239C262.426 784.952 251.026 721.199 226.401 665.959C196.407 598.674 143.28 537.635 143.582 462.995C143.884 388.553 171.62 306.391 228.07 253.367C286.28 198.69 382.962 213.901 452.012 173.284C514.715 136.4 539.764 27.7264 611.443 27.8581C694.819 28.0113 743.733 47.8662 813.293 89.3902C855.669 114.686 901.963 138.018 952.62 139.997C1040.13 143.415 1149.46 113.697 1217.2 164.81C1276.72 209.723 1179.3 339.113 1190.38 412.774C1199.46 473.16 1244.95 508.911 1244.63 570.378C1244.32 631.762 1211.08 693.27 1188.63 751.703C1165.01 813.165 1169.64 887.836 1122.83 935.891C1076.11 983.859 995.801 976.806 937.2 1009.82C873.48 1045.71 833.984 1127.19 762.347 1138.96C692.185 1150.48 620.977 1113.35 567.981 1070.47C516.409 1028.74 517.317 946.48 468.806 901.45C425.308 861.073 348.495 868.566 305.954 827.239Z" fill="#034783"/>
</g>
<g filter="url(#filter1_ii)">
<path fill-rule="evenodd" clip-rule="evenodd" d="M362.112 784.104C325.875 747.836 323.492 699.615 302.101 652.972C276.045 596.158 282.167 538.233 280.286 475.974C278.41 413.881 298.395 345.972 342.32 303.026C387.615 258.74 465.862 273.633 520.282 241.324C569.699 211.984 586.767 121.898 644.462 123.642C711.572 125.67 745.912 185.201 803.08 221.426C837.906 243.494 846.809 247.957 876.315 238.952C946.349 217.58 1029.93 193.055 1085.91 237.238C1135.09 276.061 1072.55 361.519 1083.56 423.221C1092.59 473.803 1142.7 512.516 1144.19 563.785C1145.68 614.986 1108.21 657.686 1091.8 705.92C1074.54 756.654 1080.39 819.051 1044.09 858.072C1007.84 897.023 921.596 924.599 875.371 950.801C825.107 979.293 785.718 1001.25 728.396 1009.43C672.253 1017.45 613.884 984.845 570.01 947.866C527.314 911.88 535.622 888.394 495.296 849.724C459.137 815.049 397.528 819.55 362.112 784.104Z" fill="#29669C"/>
</g>
<g filter="url(#filter2_ii)">
<path fill-rule="evenodd" clip-rule="evenodd" d="M977.249 660.702C953.055 711.465 992.947 786.213 953.98 826.806C918.44 863.828 855.862 900.013 804.577 857.383C770.144 824.748 769.385 745.159 713.45 769.217C645.595 798.402 686.98 835.417 613.485 854.37C529.894 848.827 544.389 799.675 501.992 765.269C458.52 729.991 433.001 677.594 414.919 625.543C396.863 573.568 370.913 511.454 397.694 465.036C427.269 413.776 513.574 425.918 554.703 383.263C586.043 350.761 564.39 286.397 598.536 256.745C631.968 227.713 684.495 224.48 729.705 231.294C772.924 237.808 801.185 285.87 844.218 293.773C900.937 304.19 955.614 267.648 1000.34 304.614C1042.48 339.446 1010.05 388.448 1021.96 440.674C1032.23 485.753 1086.89 522.354 1077.83 566.94C1068.56 612.582 997.188 618.865 977.249 660.702Z" fill="#3993C6"/>
</g>
<g filter="url(#filter3_ii)">
<path fill-rule="evenodd" clip-rule="evenodd" d="M884.432 540.96C880.753 564.312 888.206 587.487 889.927 611.066C892.402 644.957 912.026 681.491 896.913 711.901C883.186 739.52 848.043 758.583 817.317 757.163C781.539 755.509 760.076 697.088 724.92 703.951C684.535 711.836 679.696 783.07 639.502 791.879C608.746 798.619 575.649 768.011 561.6 739.743C545.874 708.099 578.645 665.359 561.321 634.567C545.093 605.722 495.723 612.877 475.498 586.697C456.138 561.638 439.221 523.288 453.505 495.006C469.928 462.488 518.225 463.356 548.197 442.75C567.218 429.674 584.785 414.445 598.13 395.578C616.857 369.102 612.049 321.376 642.263 309.759C671.027 298.7 697.655 335.037 726.348 346.282C748.665 355.028 770.123 365.926 793.862 369.173C827.831 373.82 868.63 348.532 895.835 369.466C920.692 388.594 915.613 429.895 913.528 461.256C911.635 489.73 888.873 512.772 884.432 540.96Z" fill="#6BB4DD"/>
</g>
<g filter="url(#filter4_ii)">
<path fill-rule="evenodd" clip-rule="evenodd" d="M877.476 509.799C870.809 494.588 871.591 477.054 863.201 462.72C854.796 448.363 842.991 436.287 829.088 427.138C815.229 418.018 805.842 413.189 789.522 410.182C767.889 407.876 751.069 417.358 734.149 421.256C712.048 426.348 705.455 420.537 676.239 429.498C659.919 434.503 646.622 446.107 634.687 458.303C623.009 470.235 616.14 485.332 607.576 499.66C597.573 516.398 575.714 531.189 579.726 550.264C583.946 570.325 616.194 571.379 626.401 589.161C636.795 607.266 620.849 636.867 637.025 650.075C652.496 662.709 676.15 644.716 696.087 646.065C714.325 647.3 730.704 657.993 748.981 657.653C770.192 657.257 792.076 654.77 810.312 643.937C829.832 632.341 853.519 616.871 855.656 594.284C856.757 582.641 853.883 562.073 860.085 547.608C866.956 531.58 882.678 521.668 877.476 509.799Z" fill="#BBDBF0"/>
</g>
<g clip-path="url(#clip0)">
<path opacity="0.26" d="M794.974 388.964L793.544 385.485L793.224 385.223L791.019 383.4L790.679 384.253L791.968 386.118L792.18 386.42L791.679 386.369L786.314 385.833L783.086 385.123L782.836 385.755L785.326 386.579L788.873 387.55L788.868 387.601L786.535 387.743L782.26 387.188L782.115 387.861L785.684 388.647L788.64 388.959L788.634 389L787.055 389.097L782.78 388.543L782.635 389.215L786.204 390.002L787.851 390.181L785.114 390.435L785.116 390.961L787.949 390.961L788.319 390.914L788.314 390.965L789.001 391.058L794.211 391.661L794.219 391.64C800.215 395.857 816 407.009 820.155 411.633L827.183 401.967C819.063 399.783 803.094 391.148 794.974 388.964Z" fill="#194260"/>
<path opacity="0.26" d="M787.187 539.963L743.387 484.854C737.219 477.092 751.38 455.574 759.142 449.406L811.327 407.931C854.034 373.99 907.125 355.767 961.676 356.33C949.907 409.602 920.169 457.202 877.461 491.143L825.276 532.618C817.525 538.785 793.355 547.725 787.187 539.963Z" fill="#194260"/>
<path d="M789.614 528.297L745.814 473.188C739.646 465.427 753.807 443.908 761.569 437.74L813.753 396.266C853.239 364.885 901.6 346.941 951.785 344.856C958.129 344.593 962.824 350.499 961.134 356.621C947.773 405.041 919.373 448.097 879.888 479.478L827.703 520.952C819.951 527.119 795.782 536.059 789.614 528.297Z" fill="#87511E"/>
<path d="M873.34 479.059L827.867 515.199C823.245 518.868 817.093 519.371 811.844 517.062C811.347 516.849 810.868 516.603 810.406 516.336C808.531 515.289 806.809 513.852 805.383 512.041L765.216 461.497C763.319 459.116 762.157 456.399 761.709 453.631C761.622 453.063 761.554 452.483 761.517 451.91C761.226 446.972 763.176 442.082 767.217 438.876L812.69 402.736C826.188 392.009 840.958 383.168 856.597 376.345C858.245 375.624 859.905 374.922 861.569 374.26C871.809 370.121 882.408 366.826 893.267 364.416C893.811 364.291 894.355 364.166 894.9 364.051C895.424 363.938 895.959 363.823 896.485 363.72C900.996 362.784 905.562 362.004 910.155 361.394C911.662 361.183 913.172 361.002 914.682 360.831C916.484 360.63 918.287 360.45 920.103 360.299C920.976 360.222 921.849 360.155 922.723 360.088C925.505 359.881 928.304 359.743 931.108 359.656C934.93 359.527 938.774 359.517 942.627 359.608C943.377 359.614 944.138 359.639 944.9 359.674C944.992 359.675 945.103 359.674 945.195 359.685C944.292 364.319 943.241 368.896 942.034 373.418C941.583 375.092 941.122 376.756 940.64 378.413C940.398 379.227 940.156 380.05 939.904 380.865C939.049 383.652 938.131 386.414 937.161 389.162C936.657 390.599 936.142 392.026 935.595 393.447C934.426 396.528 933.192 399.575 931.875 402.59C931.455 403.553 931.026 404.527 930.585 405.481C930.245 406.234 929.904 406.976 929.564 407.718C926.594 414.045 923.313 420.201 919.73 426.164C918.393 428.382 917.013 430.573 915.591 432.739C914.704 434.092 913.796 435.438 912.886 436.763C901.916 452.641 888.629 466.909 873.34 479.059Z" fill="#E7C27C"/>
<path d="M929.582 407.696C929.923 406.954 930.273 406.211 930.603 405.459C931.044 404.505 931.473 403.531 931.893 402.568C933.2 399.554 934.444 396.506 935.613 393.424C936.16 392.004 936.675 390.577 937.179 389.14C938.15 386.402 939.068 383.639 939.922 380.843C940.174 380.028 940.416 379.205 940.658 378.391C941.141 376.734 941.602 375.069 942.052 373.396C943.235 368.978 944.266 364.488 945.156 359.953C945.187 359.798 945.077 359.654 944.919 359.652C944.157 359.627 943.396 359.602 942.645 359.586C938.792 359.495 934.948 359.505 931.126 359.634C928.322 359.721 925.524 359.869 922.741 360.066C921.867 360.133 920.994 360.2 920.121 360.277C918.305 360.428 916.502 360.608 914.7 360.808C913.189 360.97 911.68 361.161 910.173 361.372C905.58 361.982 901.014 362.762 896.503 363.698C895.968 363.802 895.443 363.916 894.918 364.029C894.373 364.144 893.839 364.268 893.285 364.394C888.666 365.415 886.864 370.928 889.807 374.631L917.098 408.969C920.53 413.287 927.248 412.694 929.582 407.696Z" fill="#E7C27C"/>
<path d="M803.337 410.169L768.627 437.755L829.281 514.073L863.991 486.486L803.337 410.169Z" fill="#E7C27C"/>
<path d="M768.622 437.754L767.217 438.876C763.176 442.082 761.237 446.98 761.517 451.91C761.554 452.483 761.611 453.054 761.709 453.631C762.156 456.389 763.319 459.116 765.216 461.497L805.383 512.041C806.818 513.841 808.531 515.289 810.406 516.336C810.868 516.603 811.347 516.849 811.844 517.062C817.084 519.382 823.246 518.878 827.867 515.199L829.273 514.077L768.622 437.754Z" fill="#E7C27C"/>
<path d="M912.904 436.741C913.824 435.415 914.733 434.079 915.609 432.717C917.032 430.551 918.411 428.36 919.748 426.142C921.336 423.504 922.858 420.813 924.318 418.107L883.573 366.841C876.088 368.894 868.737 371.368 861.57 374.27C859.906 374.932 858.246 375.634 856.598 376.355C842.481 382.51 829.085 390.313 816.682 399.656L877.25 475.856C890.9 464.426 902.861 451.272 912.904 436.741Z" fill="#E7C27C"/>
<path d="M816.682 399.656C815.337 400.671 814.002 401.694 812.69 402.736L803.334 410.166L863.984 486.479L873.339 479.049C874.661 477.997 875.951 476.937 877.24 475.857L816.682 399.656Z" fill="#E7C27C"/>
<path d="M861.57 374.27L761.709 453.631C761.622 453.063 761.554 452.483 761.517 451.91L856.597 376.345C858.246 375.634 859.906 374.932 861.57 374.27Z" fill="#B04A00"/>
<path d="M896.486 363.73L768.41 465.519L767.497 464.375L893.268 364.426C893.812 364.301 894.356 364.176 894.901 364.061C895.426 363.948 895.951 363.834 896.486 363.73Z" fill="#B04A00"/>
<path d="M922.724 360.098L776.8 476.073L775.886 474.93L920.104 360.309C920.977 360.232 921.86 360.164 922.724 360.098Z" fill="#B04A00"/>
<path d="M944.9 359.674L785.179 486.619L784.265 485.476L942.627 359.608C943.388 359.623 944.138 359.639 944.9 359.674Z" fill="#B04A00"/>
<path d="M939.913 380.854L793.567 497.164L792.654 496.021L940.649 378.402C940.407 379.216 940.165 380.039 939.913 380.854Z" fill="#B04A00"/>
<path d="M930.604 405.469L801.947 507.72L801.033 506.577L931.894 402.578C931.474 403.541 931.044 404.505 930.604 405.469Z" fill="#B04A00"/>
<path d="M912.904 436.741L811.853 517.051C811.356 516.838 810.877 516.592 810.415 516.325L915.619 432.716C914.733 434.079 913.824 435.415 912.904 436.741Z" fill="#B04A00"/>
<path d="M873.34 479.059C878.356 475.078 883.145 470.856 887.721 466.433L828.24 391.581C822.899 395.039 817.705 398.755 812.691 402.746L807.366 406.971L868.015 483.284L873.34 479.059Z" fill="#87511E"/>
<path d="M777.96 430.346L767.218 438.886C765.044 440.621 763.474 442.841 762.536 445.303L820.57 518.316C823.174 517.954 825.693 516.934 827.877 515.198L838.619 506.658L777.96 430.346Z" fill="#87511E"/>
<path d="M937.18 389.15L914.683 360.841C920.116 360.227 925.6 359.821 931.118 359.655L942.043 373.407C940.632 378.738 939.002 383.99 937.18 389.15Z" fill="#87511E"/>
<path d="M929.582 407.696L894.901 364.061C899.933 362.981 905.034 362.088 910.166 361.403L935.613 393.425C933.78 398.272 931.767 403.036 929.582 407.696Z" fill="#87511E"/>
<path d="M868.348 405.565C871.085 405.11 874.299 404.273 875.353 402.559C875.806 401.836 875.731 401.084 875.343 400.435C877.351 399.466 879.434 398.651 881.591 398.061C882.064 397.933 882.585 397.779 882.859 397.378C883.202 396.868 882.999 396.15 882.57 395.707C882.143 395.274 881.544 395.05 880.967 394.845C879.088 394.172 877.029 393.508 875.141 394.162C873.987 394.561 873.06 395.412 872.044 396.08C871.18 396.642 870.243 397.09 869.402 397.679C862.198 395.96 854.472 394.891 846.461 394.507C846.479 395.294 846.345 396.077 845.984 396.821C844.318 400.306 842.434 403.621 840.298 406.758C849.311 407.547 858.894 407.147 868.348 405.565Z" fill="#424242" fill-opacity="0.18"/>
<path d="M903.604 394.071C903.533 393.461 903.46 392.831 903.125 392.318C902.801 391.804 902.138 391.446 901.563 391.665C901.105 391.842 900.848 392.313 900.608 392.742C898.952 395.811 896.844 398.622 894.381 401.104C888.38 403.12 882.164 404.509 875.873 405.239C875.791 405.227 875.718 405.204 875.636 405.192C874.293 405.022 872.678 405.366 871.098 405.756C863.701 407.567 856.109 410.268 848.595 413.75C848.978 414.441 849.215 415.196 849.247 416.023C849.38 419.884 849.244 423.692 848.812 427.469C857.155 423.985 865.469 419.188 873.118 413.416C874.181 412.612 875.292 411.681 876.187 410.712C877.926 411.003 879.682 411.162 881.439 411.027C886.148 410.658 890.682 408.748 894.475 405.9C894.644 405.965 894.82 406.008 894.994 406.031C896.099 406.153 897.188 405.609 898.047 404.886C898.895 404.164 899.585 403.265 900.388 402.497C901.265 401.651 902.307 400.94 902.953 399.914C904.017 398.209 903.822 396.053 903.604 394.071Z" fill="#424242" fill-opacity="0.18"/>
<path d="M872.065 398.213C875.184 396.212 878.603 394.686 882.178 393.702C882.651 393.574 883.172 393.421 883.445 393.019C883.789 392.509 883.586 391.791 883.157 391.348C882.729 390.915 882.13 390.692 881.553 390.486C879.675 389.814 877.615 389.149 875.728 389.803C874.574 390.202 873.647 391.053 872.631 391.721C871.7 392.33 870.664 392.798 869.77 393.464C868.875 394.13 868.099 395.068 867.967 396.184C867.835 397.29 868.566 398.532 869.673 398.674L872.065 398.213Z" fill="#EFF3F7"/>
<path d="M846.571 392.462C844.905 395.947 843.02 399.262 840.885 402.399C849.897 403.179 859.479 402.778 868.933 401.197C871.67 400.741 874.885 399.904 875.938 398.19C876.644 397.047 876.09 395.858 874.97 395.08C873.86 394.3 872.268 393.862 870.681 393.474C863.285 391.653 855.312 390.537 847.037 390.139C847.066 390.935 846.931 391.718 846.571 392.462Z" fill="#FFD7B1"/>
<path d="M849.843 411.653C849.976 415.515 849.84 419.323 849.408 423.099C857.751 419.615 866.064 414.819 873.714 409.046C875.934 407.368 878.394 405.149 878.537 403.141C878.637 401.806 877.586 401.01 876.242 400.831C874.9 400.661 873.285 401.005 871.705 401.395C864.308 403.207 856.716 405.907 849.202 409.39C849.574 410.071 849.812 410.836 849.843 411.653Z" fill="#FFD7B1"/>
<path d="M894.517 397.205C897.174 394.623 899.435 391.635 901.194 388.373C901.424 387.945 901.691 387.473 902.148 387.296C902.723 387.077 903.387 387.436 903.711 387.949C904.046 388.462 904.119 389.093 904.19 389.703C904.418 391.683 904.603 393.84 903.538 395.535C902.892 396.571 901.851 397.282 900.973 398.118C900.169 398.887 899.48 399.785 898.631 400.507C897.783 401.229 896.694 401.773 895.579 401.652C894.474 401.53 893.424 400.542 893.535 399.428L894.517 397.205Z" fill="#EFF3F7"/>
<path d="M874.377 401.098C881.804 400.397 889.152 398.793 896.2 396.318C897.675 395.797 899.08 397.498 898.175 398.772C898.122 398.848 898.058 398.915 897.993 398.982C893.732 403.222 888.018 406.181 882.034 406.647C878.811 406.898 875.612 406.165 872.462 405.428L874.377 401.098Z" fill="#FFD7B1"/>
<path d="M833.916 392.492C828.748 392.208 824.112 396.547 822.781 401.556C821.439 406.557 822.805 411.935 825.111 416.581C826.974 420.341 829.63 423.941 833.456 425.674C837.207 427.373 841.646 427.041 845.524 425.652C849.412 424.262 854.088 422.652 857.488 420.329C854.961 412.953 851.478 404.518 848.649 397.263C847.818 395.13 846.886 392.886 845.023 391.554C842.101 389.448 837.497 392.69 833.916 392.492Z" fill="#011D32"/>
<path d="M854.047 408.562C852.812 416.871 851.578 425.179 850.344 433.488C850.187 434.556 848.575 434.727 847.773 433.988C846.461 427.633 844.827 421.199 842.122 415.297L854.047 408.562Z" fill="#FFD7B1"/>
<path d="M850.069 433.171L852.967 436.15L853.868 439.298L852.955 439.268L851.568 437.029L849.761 442.642L849.123 445.883L848.433 445.861L848.668 443.247L849.194 439.603L845.842 438.764L847.572 433.087L850.069 433.171Z" fill="#FFD7B1"/>
<path d="M848.095 441.665L846.89 445.813L846.219 445.677L846.924 442.096L847.944 438.837L849.329 439.235L848.095 441.665Z" fill="#FFD7B1"/>
<path d="M847.053 440.656L845.848 444.804L845.177 444.668L845.882 441.087L846.902 437.828L848.298 438.225L847.053 440.656Z" fill="#FFD7B1"/>
<path d="M846.662 438.975L845.054 441.918L844.567 441.704L845.704 439.101L847.033 436.814L848.017 437.343L846.662 438.975Z" fill="#FFD7B1"/>
<path d="M792.946 385.373C799.259 386.887 819.503 391.735 825.306 394.626L828.279 383.058C819.937 384.023 801.874 381.87 793.531 382.825C792.451 382.953 792.236 384.553 792.946 385.373Z" fill="#FFD7B1"/>
<path d="M793.833 383.119L790.944 380.119L790.557 379.996C790.233 380.402 789.953 380.835 789.714 381.284L790.029 381.495L789.547 381.634C788.761 383.291 788.535 385.176 788.776 386.983L793.84 385.617L793.833 383.119Z" fill="#FFD7B1"/>
<path d="M787.837 379.104L787.837 380.014L789.723 381.273C789.962 380.824 790.242 380.391 790.566 379.985L787.837 379.104Z" fill="#A4B1BA"/>
<path d="M789.546 381.624L784.361 383.103L781.097 383.642L781.095 384.33L783.72 384.179L787.373 383.774L787.388 383.823L785.281 384.813L781.097 385.878L781.205 386.555L784.82 385.972L787.685 385.18L787.689 385.22L786.259 385.889L782.075 386.954L782.183 387.631L785.798 387.048L787.392 386.605L784.937 387.852L785.138 388.348L787.775 387.295L788.102 387.121L788.117 387.17L788.787 386.992C788.534 385.166 788.76 383.281 789.546 381.624Z" fill="#A4B1BA"/>
<path d="M854.464 362.797C858.461 364.422 861.783 368.097 862.162 372.399C862.521 376.502 860.288 380.681 861.46 384.621C862.252 387.284 864.441 389.241 866.052 391.498C867.664 393.755 868.666 397.004 866.963 399.198C865.995 400.448 864.392 401.013 863.167 402.015C860.837 403.918 860.145 407.113 858.889 409.839C855.287 417.635 845.665 422.097 837.392 419.797C832.095 418.333 827.167 413.057 828.778 407.807C829.197 406.43 830.041 405.162 830.191 403.72C830.733 398.314 822.159 396.549 820.51 391.382C819.393 387.892 821.934 384.258 824.824 381.997C827.714 379.735 831.187 378.032 833.208 374.967C836.038 370.678 836.054 364.666 841.387 362.242C845.01 360.625 850.91 361.351 854.464 362.797Z" fill="#3A0E00"/>
<path d="M791.301 378.323C791.355 378.257 791.268 378.194 791.211 378.23C787.267 380.385 784.429 388.844 790.742 390.055C790.959 390.094 791.138 389.762 790.933 389.631C788.88 388.328 787.263 386.628 787.77 383.997C788.206 381.677 789.866 380.065 791.301 378.323Z" fill="#FAFAFA"/>
<path d="M786.438 381.398C784.93 382.611 783.993 384.374 783.956 386.331C783.92 387.903 784.599 389.838 786.471 389.631C786.681 389.61 786.69 389.296 786.484 389.256C782.718 388.529 784.872 383.143 786.539 381.5C786.584 381.445 786.494 381.352 786.438 381.398Z" fill="#FAFAFA"/>
<path d="M782.337 390.287C780.65 388.897 779.781 386.778 781.414 384.895C781.442 384.872 781.398 384.836 781.37 384.859C779.689 386.464 779.619 389.719 782.137 390.61C782.335 390.672 782.513 390.431 782.337 390.287Z" fill="#FAFAFA"/>
<path d="M795.133 387.623C794.403 388.111 793.781 388.567 792.883 388.697C792.803 388.705 792.815 388.826 792.896 388.828C793.768 388.842 794.782 388.558 795.293 387.799C795.373 387.69 795.258 387.55 795.133 387.623Z" fill="#FAFAFA"/>
<path d="M793.105 376.23C792.939 376.186 792.823 376.441 792.964 376.538C794.529 377.626 795.228 379.043 794.923 380.956C794.912 381.048 795.037 381.086 795.079 381.001C796.023 379.308 794.989 376.76 793.105 376.23Z" fill="#FAFAFA"/>
<path d="M891.581 482.792C878.549 494.343 865.168 505.433 851.003 515.57C843.949 520.615 836.76 525.522 829.361 530.055C821.686 534.757 813.461 538.928 804.488 540.36C794.18 542.006 785.018 539.218 776.606 533.3C776.443 533.184 776.254 533.416 776.408 533.542C790.15 545.111 808.069 542.481 822.951 534.661C830.901 530.478 838.394 525.369 845.776 520.27C853.576 514.888 861.186 509.231 868.599 503.32C876.641 496.912 884.462 490.222 891.886 483.106C892.072 482.946 891.777 482.621 891.581 482.792Z" fill="#FAFAFA"/>
<path d="M946.016 411.266C943.023 417.767 940.304 424.382 937.057 430.777C933.829 437.15 930.312 443.37 926.515 449.425C918.923 461.546 910.208 472.959 900.569 483.534C900.35 483.768 900.735 484.084 900.955 483.849C910.803 473.244 919.653 461.766 927.362 449.502C934.827 437.627 941.976 424.812 946.493 411.481C946.593 411.168 946.156 410.948 946.016 411.266Z" fill="#FAFAFA"/>
<path d="M952.177 398.296C951.429 402.955 950.472 407.563 949.143 412.087C947.731 416.892 945.758 421.45 944.051 426.143C943.972 426.363 944.269 426.496 944.38 426.292C949.095 417.99 951.484 407.765 952.506 398.344C952.526 398.14 952.217 398.08 952.177 398.296Z" fill="#FAFAFA"/>
<path d="M940.422 416.853C936.113 424.669 931.556 432.328 927.192 440.1C927.063 440.325 927.431 440.562 927.581 440.344C932.532 432.98 936.798 424.935 940.549 416.911C940.582 416.837 940.465 416.778 940.422 416.853Z" fill="#FAFAFA"/>
<path d="M897.482 469.748C894.475 473.266 891.522 476.829 888.283 480.157C884.85 483.677 881.118 486.832 877.47 490.121C877.257 490.314 877.495 490.675 877.741 490.498C885.375 485.082 892.455 477.666 897.671 469.911C897.758 469.771 897.591 469.616 897.482 469.748Z" fill="#FAFAFA"/>
<path d="M882.088 504.138C879.195 506.785 876.408 509.572 873.583 512.293C873.482 512.394 873.647 512.529 873.749 512.428C876.574 509.717 879.465 507.061 882.224 504.287C882.317 504.206 882.171 504.059 882.088 504.138Z" fill="#FAFAFA"/>
<path d="M821.651 543.937C816.127 545.359 810.612 546.568 804.924 547.055C799.516 547.514 794.205 547.114 788.803 546.925C788.509 546.913 788.515 547.378 788.783 547.432C794.186 548.542 800.006 548.366 805.478 547.839C811.01 547.307 816.557 546.217 821.775 544.259C822 544.186 821.869 543.885 821.651 543.937Z" fill="#FAFAFA"/>
<path d="M763.144 426.159C754.15 433.867 745.314 442.652 739.893 453.311C735.165 462.606 732.525 475.173 739.001 484.3C739.061 484.385 739.193 484.291 739.134 484.206C733.043 474.079 736.051 461.445 741.506 451.733C747.064 441.839 755.528 434.397 763.392 426.408C763.53 426.273 763.302 426.022 763.144 426.159Z" fill="#FAFAFA"/>
<path d="M775.295 412.167C760.91 418.885 748.052 429.842 738.418 442.389C738.364 442.455 738.463 442.537 738.517 442.47C748.957 429.995 761.314 420.393 775.457 412.475C775.629 412.377 775.468 412.079 775.295 412.167Z" fill="#FAFAFA"/>
<path d="M793.711 404.075C791.595 405.581 789.544 407.031 787.212 408.194C787.047 408.272 787.145 408.545 787.32 408.467C789.648 407.364 791.965 406.05 793.886 404.31C794.015 404.186 793.861 403.959 793.711 404.075Z" fill="#FAFAFA"/>
<path d="M727.345 479.636C723.507 485.473 723.087 492.315 725.631 498.738C727.146 502.563 729.352 506.218 729.74 510.399C730.102 514.43 728.719 518.413 726.436 521.696C724.331 524.73 721.495 527.229 718.289 529.067C715.553 530.645 712.482 531.812 710.174 534.035C705.383 538.642 707.021 545.925 709.774 551.195C709.885 551.396 710.178 551.296 710.114 551.06C708.988 547.479 707.32 543.852 707.847 540.005C708.433 535.646 711.802 533.316 715.397 531.419C720.731 528.6 725.498 525.372 728.4 519.881C731.429 514.146 730.712 508.49 728.174 502.724C726.592 499.148 724.903 495.705 724.608 491.738C724.286 487.5 725.369 483.355 727.505 479.712C727.558 479.635 727.406 479.539 727.345 479.636Z" fill="#FAFAFA"/>
<path d="M768.571 545.748C764.485 551.943 757.38 555.769 749.873 553.848C743.685 552.27 737.458 547.469 731.541 552.552C726.239 557.109 725.86 564.452 723.024 570.401C718.814 579.209 708.134 581.581 699.306 579.306C699.233 579.283 699.214 579.396 699.287 579.419C706.307 581.531 715.067 580.595 720.441 575.141C726.101 569.406 725.38 560.26 730.682 554.287C737.576 546.516 745.643 554.958 753.624 555.042C759.752 555.107 766.343 551.697 769.078 546.062C769.23 545.763 768.765 545.455 768.571 545.748Z" fill="#FAFAFA"/>
<path d="M761.984 528.011C758.984 530.901 756.505 534.042 752.006 534.279C748.263 534.481 744.661 532.969 740.918 533.07C735.328 533.223 730.206 536.851 728.11 541.998C728.069 542.103 728.219 542.179 728.279 542.072C729.957 538.616 732.792 535.793 736.441 534.448C740.149 533.076 743.729 533.76 747.498 534.426C750.361 534.929 753.272 535.205 755.989 533.942C758.513 532.769 760.737 530.524 762.378 528.306C762.535 528.058 762.195 527.798 761.984 528.011Z" fill="#FAFAFA"/>
<path d="M711.527 521.03C702.045 524.163 694.461 532.407 691.744 541.977C690.831 545.205 690.685 548.7 689.04 551.687C687.309 554.814 684.294 557.048 681.477 559.13C676.005 563.198 670.058 566.159 664.16 569.511C663.758 569.743 664.124 570.364 664.543 570.211C670.527 568.025 676.231 564.248 681.353 560.519C685.795 557.283 689.937 553.874 691.305 548.324C692.039 545.337 692.406 542.326 693.513 539.433C694.565 536.697 695.998 534.126 697.769 531.794C701.362 527.044 706.167 523.589 711.636 521.313C711.81 521.235 711.713 520.971 711.527 521.03Z" fill="#FAFAFA"/>
<path d="M734.861 588.939C730.15 594.448 725.56 599.136 717.715 598.594C711.937 598.189 706.475 596.276 700.614 596.659C690.482 597.327 680.974 602.627 675.08 610.875C674.964 611.028 675.195 611.218 675.311 611.064C682.284 601.657 694.121 596.174 705.837 597.382C711.633 597.977 717.489 600.387 723.34 598.892C728.371 597.6 732.528 593.533 735.292 589.3C735.485 588.998 735.097 588.662 734.861 588.939Z" fill="#FAFAFA"/>
<path d="M707.163 489.392C706.999 489.166 706.584 489.369 706.722 489.639C710.458 497.056 703.463 502.49 697.743 505.803C693.008 508.543 688.413 511.359 686.504 516.77C684.747 521.762 685.218 527.189 684.561 532.364C683.687 539.311 680.022 545.171 672.931 547.013C672.842 547.032 672.897 547.178 672.985 547.149C678.652 545.733 682.795 541.525 684.308 535.91C685.998 529.63 684.822 522.817 687.144 516.686C689.891 509.451 697.506 507.486 703.079 503.105C707.019 500.01 710.462 494.162 707.163 489.392Z" fill="#FAFAFA"/>
<path d="M890.325 520.971C875.17 525.045 861.817 532.763 849.697 542.604C837.886 552.201 826.206 563.101 810.765 566.131C802.856 567.679 794.56 566.98 787.589 562.729C787.503 562.677 787.397 562.829 787.494 562.89C799.003 570.138 813.625 567.616 825.067 561.525C839.363 553.916 850.288 541.432 864.045 532.995C872.292 527.933 881.208 524.108 890.46 521.312C890.686 521.239 890.551 520.908 890.325 520.971Z" fill="#FAFAFA"/>
<path d="M739.916 420.213C736.249 426.245 733.612 432.053 727.373 435.944C722.172 439.185 716.923 441.733 712.682 446.285C708.871 450.369 705.975 455.312 704.312 460.638C703.056 464.679 701.742 470.163 705.389 473.35C705.511 473.459 705.654 473.273 705.551 473.152C701.323 468.707 704.816 460.315 707.136 455.692C709.65 450.675 713.262 446.217 717.717 442.797C722.246 439.32 727.843 437.405 732.034 433.475C735.762 429.977 738.474 425.122 740.277 420.379C740.354 420.139 740.048 420.007 739.916 420.213Z" fill="#FAFAFA"/>
<path d="M742.76 403.801C738.343 406.589 734.5 410.353 731.363 414.501C731.291 414.589 731.423 414.697 731.495 414.609C734.909 410.595 738.751 407.227 742.959 404.074C743.138 403.945 742.941 403.692 742.76 403.801Z" fill="#FAFAFA"/>
<path d="M776.133 386.212C773.705 386.222 773.466 388.593 773.017 390.479C772.014 394.718 766.092 396.918 762.657 398.991C762.446 399.113 762.644 399.468 762.866 399.365C765.885 397.981 769.064 396.176 771.59 394.021C772.364 393.357 772.922 392.664 773.281 391.697C773.979 389.776 773.439 386.795 776.166 386.34C776.236 386.333 776.224 386.213 776.133 386.212Z" fill="#FAFAFA"/>
<path d="M785.952 394.874C785.649 398.83 781.203 398.586 778.293 398.724C775.855 398.836 773.769 399.723 771.556 400.662C767.149 402.539 762.192 404.066 758.418 407.104C758.372 407.149 758.42 407.225 758.477 407.189C761.17 405.382 764.148 404.194 767.119 402.947C770.363 401.591 773.857 399.592 777.379 399.2C780.341 398.874 786.431 399.571 786.288 394.891C786.298 394.687 785.972 394.669 785.952 394.874Z" fill="#FAFAFA"/>
<path d="M886.476 351.435C881.773 353.068 877.117 354.778 872.311 356.097C872.016 356.178 872.191 356.615 872.477 356.536C877.288 355.277 882.071 353.828 886.612 351.786C886.835 351.682 886.711 351.351 886.476 351.435Z" fill="#FAFAFA"/>
<path d="M836.35 460.221C836.509 456.653 836.024 452.908 833.991 449.974C831.39 446.217 826.78 444.441 822.355 443.285C816.6 441.785 810.498 440.968 804.723 442.415C789.621 446.2 782.974 469.507 793.933 480.767C798.703 485.673 805.787 487.819 812.614 487.178C812.173 487.728 811.679 488.253 811.204 488.766C810.066 490.033 809 491.718 809.535 493.334C811.387 492.015 814.343 492.742 815.366 494.775C814.986 492.293 814.738 489.404 816.516 487.648C817.078 487.096 817.806 486.69 818.183 486.005L818.182 485.995C819.317 485.608 820.434 485.142 821.491 484.581C822.962 483.807 824.326 482.882 825.61 481.853C825.726 481.902 825.84 481.931 825.947 481.991C827.444 482.793 828.143 484.524 828.892 486.048C829.651 487.571 830.824 489.184 832.524 489.287C831.98 487.085 833.756 484.601 836.012 484.396C833.567 483.831 830.793 482.995 829.814 480.695C829.523 480.005 829.404 479.218 828.96 478.625C833.405 473.587 836.039 466.94 836.35 460.221Z" fill="#424242" fill-opacity="0.18"/>
<path d="M788.098 477.758C795.043 484.886 806.869 486.193 815.687 481.579C824.503 476.955 830.05 467.153 830.505 457.223C830.665 453.655 830.18 449.91 828.147 446.976C825.545 443.219 820.936 441.443 816.511 440.287C810.756 438.787 804.654 437.97 798.879 439.417C783.776 443.192 777.139 466.498 788.098 477.758Z" fill="#FFFAD0"/>
<path d="M819.276 461.415C820.117 455.099 815.678 449.297 809.362 448.456C803.046 447.615 797.244 452.054 796.403 458.37C795.562 464.686 800.001 470.488 806.317 471.329C812.633 472.17 818.435 467.731 819.276 461.415Z" fill="#FFC6BC"/>
<path d="M818.507 461.312C819.292 455.421 815.151 450.009 809.259 449.224C803.368 448.44 797.956 452.58 797.171 458.472C796.387 464.364 800.527 469.776 806.419 470.56C812.311 471.345 817.723 467.204 818.507 461.312Z" fill="#FFFAD0"/>
<path d="M813.941 477.676C815.762 478.789 818.261 477.973 820.142 478.979C821.639 479.781 822.338 481.512 823.087 483.036C823.846 484.559 825.019 486.172 826.719 486.275C826.174 484.063 827.951 481.589 830.207 481.384C827.763 480.819 824.988 479.983 824.009 477.682C823.704 476.954 823.601 476.125 823.095 475.517C821.978 474.162 819.832 474.761 818.076 474.602C816.3 474.446 813.355 469.377 812.049 469.771C809.83 470.448 812.617 476.878 813.941 477.676Z" fill="#FFC6BC"/>
<path d="M806.983 475.275C806.626 477.375 808.306 479.402 808.062 481.521C807.867 483.21 806.518 484.498 805.38 485.765C804.242 487.033 803.176 488.717 803.711 490.333C805.563 489.015 808.519 489.742 809.542 491.775C809.162 489.293 808.914 486.404 810.692 484.648C811.254 484.096 811.982 483.69 812.359 483.004C813.206 481.463 811.856 479.695 811.354 478.005C810.839 476.296 814.467 471.695 813.621 470.615C812.183 468.786 807.246 473.751 806.983 475.275Z" fill="#FFC6BC"/>
</g>
<defs>
<filter id="filter0_dii" x="0.373627" y="-234" width="1566.48" height="1539.13" filterUnits="userSpaceOnUse" color-interpolation-filters="sRGB">
<feFlood flood-opacity="0" result="BackgroundImageFix"/>
<feColorMatrix in="SourceAlpha" type="matrix" values="0 0 0 0 0 0 0 0 0 0 0 0 0 0 0 0 0 0 127 0"/>
<feOffset dx="4" dy="6"/>
<feGaussianBlur stdDeviation="15"/>
<feColorMatrix type="matrix" values="0 0 0 0 0 0 0 0 0 0.180392 0 0 0 0 0.337255 0 0 0 0.65 0"/>
<feBlend mode="normal" in2="BackgroundImageFix" result="effect1_dropShadow"/>
<feBlend mode="normal" in="SourceGraphic" in2="effect1_dropShadow" result="shape"/>
<feColorMatrix in="SourceAlpha" type="matrix" values="0 0 0 0 0 0 0 0 0 0 0 0 0 0 0 0 0 0 127 0" result="hardAlpha"/>
<feOffset dx="12" dy="12"/>
<feGaussianBlur stdDeviation="28"/>
<feComposite in2="hardAlpha" operator="arithmetic" k2="-1" k3="1"/>
<feColorMatrix type="matrix" values="0 0 0 0 0.0470588 0 0 0 0 0.121569 0 0 0 0 0.184314 0 0 0 1 0"/>
<feBlend mode="normal" in2="shape" result="effect2_innerShadow"/>
<feColorMatrix in="SourceAlpha" type="matrix" values="0 0 0 0 0 0 0 0 0 0 0 0 0 0 0 0 0 0 127 0" result="hardAlpha"/>
<feOffset dx="-2" dy="-4"/>
<feGaussianBlur stdDeviation="10.5"/>
<feComposite in2="hardAlpha" operator="arithmetic" k2="-1" k3="1"/>
<feColorMatrix type="matrix" values="0 0 0 0 0 0 0 0 0 0.180392 0 0 0 0 0.337255 0 0 0 1 0"/>
<feBlend mode="normal" in2="effect2_innerShadow" result="effect3_innerShadow"/>
</filter>
<filter id="filter1_ii" x="137" y="-52" width="1226.22" height="1207" filterUnits="userSpaceOnUse" color-interpolation-filters="sRGB">
<feFlood flood-opacity="0" result="BackgroundImageFix"/>
<feBlend mode="normal" in="SourceGraphic" in2="BackgroundImageFix" result="shape"/>
<feColorMatrix in="SourceAlpha" type="matrix" values="0 0 0 0 0 0 0 0 0 0 0 0 0 0 0 0 0 0 127 0" result="hardAlpha"/>
<feOffset dx="12" dy="12"/>
<feGaussianBlur stdDeviation="28"/>
<feComposite in2="hardAlpha" operator="arithmetic" k2="-1" k3="1"/>
<feColorMatrix type="matrix" values="0 0 0 0 0.0470588 0 0 0 0 0.121569 0 0 0 0 0.184314 0 0 0 1 0"/>
<feBlend mode="normal" in2="shape" result="effect1_innerShadow"/>
<feColorMatrix in="SourceAlpha" type="matrix" values="0 0 0 0 0 0 0 0 0 0 0 0 0 0 0 0 0 0 127 0" result="hardAlpha"/>
<feOffset dx="-2" dy="-4"/>
<feGaussianBlur stdDeviation="10.5"/>
<feComposite in2="hardAlpha" operator="arithmetic" k2="-1" k3="1"/>
<feColorMatrix type="matrix" values="0 0 0 0 0 0 0 0 0 0.180392 0 0 0 0 0.337255 0 0 0 1 0"/>
<feBlend mode="normal" in2="effect1_innerShadow" result="effect2_innerShadow"/>
</filter>
<filter id="filter2_ii" x="273" y="72" width="947.596" height="956.503" filterUnits="userSpaceOnUse" color-interpolation-filters="sRGB">
<feFlood flood-opacity="0" result="BackgroundImageFix"/>
<feBlend mode="normal" in="SourceGraphic" in2="BackgroundImageFix" result="shape"/>
<feColorMatrix in="SourceAlpha" type="matrix" values="0 0 0 0 0 0 0 0 0 0 0 0 0 0 0 0 0 0 127 0" result="hardAlpha"/>
<feOffset dx="12" dy="12"/>
<feGaussianBlur stdDeviation="28"/>
<feComposite in2="hardAlpha" operator="arithmetic" k2="-1" k3="1"/>
<feColorMatrix type="matrix" values="0 0 0 0 0.0470588 0 0 0 0 0.121569 0 0 0 0 0.184314 0 0 0 1 0"/>
<feBlend mode="normal" in2="shape" result="effect1_innerShadow"/>
<feColorMatrix in="SourceAlpha" type="matrix" values="0 0 0 0 0 0 0 0 0 0 0 0 0 0 0 0 0 0 127 0" result="hardAlpha"/>
<feOffset dx="-2" dy="-4"/>
<feGaussianBlur stdDeviation="10.5"/>
<feComposite in2="hardAlpha" operator="arithmetic" k2="-1" k3="1"/>
<feColorMatrix type="matrix" values="0 0 0 0 0 0 0 0 0 0.180392 0 0 0 0 0.337255 0 0 0 1 0"/>
<feBlend mode="normal" in2="effect1_innerShadow" result="effect2_innerShadow"/>
</filter>
<filter id="filter3_ii" x="445.227" y="302.496" width="483.854" height="503.154" filterUnits="userSpaceOnUse" color-interpolation-filters="sRGB">
<feFlood flood-opacity="0" result="BackgroundImageFix"/>
<feBlend mode="normal" in="SourceGraphic" in2="BackgroundImageFix" result="shape"/>
<feColorMatrix in="SourceAlpha" type="matrix" values="0 0 0 0 0 0 0 0 0 0 0 0 0 0 0 0 0 0 127 0" result="hardAlpha"/>
<feOffset dx="12" dy="12"/>
<feGaussianBlur stdDeviation="28"/>
<feComposite in2="hardAlpha" operator="arithmetic" k2="-1" k3="1"/>
<feColorMatrix type="matrix" values="0 0 0 0 0.0470588 0 0 0 0 0.121569 0 0 0 0 0.184314 0 0 0 1 0"/>
<feBlend mode="normal" in2="shape" result="effect1_innerShadow"/>
<feColorMatrix in="SourceAlpha" type="matrix" values="0 0 0 0 0 0 0 0 0 0 0 0 0 0 0 0 0 0 127 0" result="hardAlpha"/>
<feOffset dx="-2" dy="-4"/>
<feGaussianBlur stdDeviation="10.5"/>
<feComposite in2="hardAlpha" operator="arithmetic" k2="-1" k3="1"/>
<feColorMatrix type="matrix" values="0 0 0 0 0 0 0 0 0 0.180392 0 0 0 0 0.337255 0 0 0 1 0"/>
<feBlend mode="normal" in2="effect1_innerShadow" result="effect2_innerShadow"/>
</filter>
<filter id="filter4_ii" x="569.219" y="402.324" width="325.431" height="274.297" filterUnits="userSpaceOnUse" color-interpolation-filters="sRGB">
<feFlood flood-opacity="0" result="BackgroundImageFix"/>
<feBlend mode="normal" in="SourceGraphic" in2="BackgroundImageFix" result="shape"/>
<feColorMatrix in="SourceAlpha" type="matrix" values="0 0 0 0 0 0 0 0 0 0 0 0 0 0 0 0 0 0 127 0" result="hardAlpha"/>
<feOffset dx="5" dy="5"/>
<feGaussianBlur stdDeviation="15"/>
<feComposite in2="hardAlpha" operator="arithmetic" k2="-1" k3="1"/>
<feColorMatrix type="matrix" values="0 0 0 0 0 0 0 0 0 0.180392 0 0 0 0 0.278431 0 0 0 1 0"/>
<feBlend mode="normal" in2="shape" result="effect1_innerShadow"/>
<feColorMatrix in="SourceAlpha" type="matrix" values="0 0 0 0 0 0 0 0 0 0 0 0 0 0 0 0 0 0 127 0" result="hardAlpha"/>
<feOffset dx="4" dy="1"/>
<feGaussianBlur stdDeviation="10"/>
<feComposite in2="hardAlpha" operator="arithmetic" k2="-1" k3="1"/>
<feColorMatrix type="matrix" values="0 0 0 0 0 0 0 0 0 0.178765 0 0 0 0 0.279167 0 0 0 1 0"/>
<feBlend mode="normal" in2="effect1_innerShadow" result="effect2_innerShadow"/>
</filter>
<clipPath id="clip0">
<rect width="321.014" height="237.873" fill="white" transform="translate(644.545 375.131) rotate(-5.70313)"/>
</clipPath>
</defs>
</svg>
