<svg width="995" height="963" viewBox="0 0 995 963" fill="none" xmlns="http://www.w3.org/2000/svg">
<mask id="mask0" mask-type="alpha" maskUnits="userSpaceOnUse" x="0" y="0" width="995" height="963">
<rect width="995" height="963" fill="#C4C4C4"/>
</mask>
<g mask="url(#mask0)">
<g filter="url(#filter0_dii)">
<path fill-rule="evenodd" clip-rule="evenodd" d="M160.68 681.109C124.921 646.37 115.556 593.996 95.3259 548.615C70.6852 493.339 27.0409 443.195 27.289 381.876C27.5364 320.722 50.3225 253.224 96.6972 209.664C144.518 164.746 223.943 177.242 280.669 143.874C332.181 113.574 352.759 24.2963 411.644 24.4045C480.139 24.5303 520.323 40.8415 577.468 74.9542C612.281 95.7354 650.311 114.903 691.927 116.529C763.817 119.336 853.638 94.9226 909.286 136.913C958.183 173.809 878.149 280.106 887.25 340.62C894.71 390.228 932.081 419.598 931.821 470.094C931.561 520.522 904.257 571.052 885.813 619.056C866.412 669.548 870.216 730.891 831.76 770.369C793.374 809.776 727.401 803.981 679.26 831.1C626.912 860.589 594.466 927.526 535.615 937.194C477.975 946.662 419.477 916.151 375.94 880.925C333.573 846.645 334.318 779.068 294.466 742.075C258.731 708.904 195.628 715.061 160.68 681.109Z" fill="#034783"/>
</g>
<g filter="url(#filter1_ii)">
<path fill-rule="evenodd" clip-rule="evenodd" d="M206.815 645.673C177.045 615.878 175.088 576.264 157.514 537.946C136.109 491.272 141.139 443.686 139.593 392.539C138.052 341.529 154.47 285.741 190.556 250.459C227.766 214.078 292.048 226.313 336.754 199.77C377.351 175.667 391.373 101.66 438.77 103.093C493.902 104.759 522.113 153.664 569.077 183.424C597.688 201.553 605.002 205.219 629.241 197.822C686.775 180.264 755.442 160.116 801.426 196.413C841.831 228.307 790.45 298.513 799.497 349.202C806.914 390.755 848.078 422.559 849.305 464.678C850.531 506.74 819.744 541.819 806.266 581.444C792.088 623.123 796.895 674.383 767.068 706.439C737.294 738.438 666.44 761.093 628.466 782.618C587.173 806.024 554.814 824.063 507.723 830.786C461.601 837.371 413.65 810.585 377.606 780.207C342.531 750.644 349.356 731.35 316.228 699.581C286.523 671.095 235.909 674.793 206.815 645.673Z" fill="#29669C"/>
</g>
<g filter="url(#filter2_ii)">
<path fill-rule="evenodd" clip-rule="evenodd" d="M712.161 544.296C692.285 585.999 725.057 647.406 693.045 680.754C663.848 711.168 612.439 740.895 570.307 705.873C542.02 679.063 541.397 613.68 495.445 633.444C439.701 657.419 473.699 687.828 413.322 703.398C344.65 698.844 356.558 658.465 321.729 630.2C286.016 601.218 265.051 558.173 250.196 515.412C235.363 472.714 214.045 421.687 236.046 383.553C260.342 341.443 331.243 351.417 365.032 316.376C390.778 289.674 372.989 236.798 401.041 212.439C428.506 188.589 471.658 185.933 508.798 191.53C544.304 196.882 567.521 236.365 602.873 242.858C649.469 251.416 694.387 221.396 731.13 251.764C765.752 280.379 739.107 320.635 748.888 363.539C757.331 400.573 802.233 430.641 794.791 467.27C787.172 504.765 728.541 509.927 712.161 544.296Z" fill="#3993C6"/>
</g>
<g filter="url(#filter3_ii)">
<path fill-rule="evenodd" clip-rule="evenodd" d="M635.91 445.926C632.887 465.11 639.01 484.149 640.424 503.519C642.457 531.362 658.579 561.375 646.163 586.358C634.886 609.047 606.016 624.707 580.774 623.541C551.382 622.182 533.749 574.188 504.868 579.827C471.691 586.304 467.715 644.824 434.695 652.061C409.429 657.598 382.239 632.453 370.698 609.23C357.779 583.234 384.701 548.123 370.469 522.826C357.137 499.129 316.578 505.007 299.963 483.501C284.059 462.914 270.161 431.409 281.896 408.175C295.388 381.46 335.065 382.173 359.687 365.245C375.313 354.503 389.745 341.992 400.707 326.493C416.092 304.742 412.142 265.534 436.964 255.991C460.594 246.906 482.469 276.757 506.041 285.995C524.375 293.18 542.003 302.133 561.505 304.801C589.411 308.618 622.928 287.844 645.277 305.041C665.698 320.755 661.526 354.684 659.813 380.448C658.257 403.84 639.558 422.77 635.91 445.926Z" fill="#6BB4DD"/>
</g>
<g filter="url(#filter4_ii)">
<path fill-rule="evenodd" clip-rule="evenodd" d="M630.195 420.327C624.718 407.831 625.361 393.427 618.468 381.651C611.563 369.857 601.865 359.936 590.443 352.42C579.058 344.927 571.347 340.96 557.939 338.49C540.167 336.596 526.35 344.386 512.449 347.588C494.293 351.771 488.877 346.997 464.876 354.358C451.468 358.47 440.545 368.003 430.739 378.022C421.146 387.825 415.503 400.227 408.468 411.998C400.25 425.748 382.293 437.899 385.589 453.57C389.055 470.05 415.547 470.916 423.933 485.524C432.471 500.398 419.372 524.716 432.66 535.567C445.37 545.945 464.802 531.164 481.181 532.272C496.164 533.286 509.619 542.071 524.634 541.791C542.059 541.467 560.037 539.423 575.018 530.524C591.055 520.998 610.514 508.289 612.27 489.733C613.174 480.168 610.813 463.271 615.908 451.388C621.553 438.221 634.468 430.078 630.195 420.327Z" fill="#BBDBF0"/>
</g>
<g clip-path="url(#clip0)">
<path opacity="0.26" d="M562.418 321.059L561.243 318.201L560.981 317.986L559.169 316.488L558.89 317.189L559.949 318.721L560.123 318.969L559.712 318.927L555.304 318.486L552.652 317.903L552.447 318.423L554.492 319.099L557.406 319.897L557.402 319.939L555.486 320.056L551.974 319.6L551.855 320.152L554.787 320.799L557.215 321.055L557.21 321.089L555.913 321.169L552.401 320.713L552.282 321.265L555.214 321.912L556.567 322.059L554.318 322.267L554.32 322.699L556.647 322.699L556.951 322.661L556.947 322.703L557.511 322.779L561.792 323.275L561.798 323.257C566.724 326.722 579.692 335.883 583.105 339.682L588.878 331.741C582.208 329.947 569.089 322.853 562.418 321.059Z" fill="#194260"/>
<path opacity="0.26" d="M556.022 445.107L520.039 399.834C514.972 393.458 526.605 375.78 532.982 370.713L575.852 336.641C610.937 308.758 654.552 293.787 699.367 294.249C689.699 338.014 665.268 377.118 630.183 405.001L587.312 439.073C580.944 444.139 561.089 451.483 556.022 445.107Z" fill="#194260"/>
<path d="M558.015 435.524L522.033 390.25C516.966 383.874 528.599 366.196 534.975 361.129L577.846 327.057C609.708 301.736 648.604 287.063 689.045 284.927C695.386 284.592 700.083 290.502 698.325 296.604C687.113 335.52 664.038 370.096 632.176 395.418L589.306 429.489C582.938 434.556 563.082 441.9 558.015 435.524Z" fill="#87511E"/>
<path d="M626.797 395.074L589.441 424.763C585.644 427.777 580.59 428.191 576.278 426.294C575.869 426.118 575.475 425.917 575.096 425.697C573.555 424.837 572.141 423.656 570.97 422.169L537.972 380.646C536.413 378.69 535.459 376.458 535.091 374.184C535.019 373.718 534.963 373.241 534.933 372.77C534.694 368.713 536.296 364.696 539.615 362.062L576.972 332.373C588.061 323.56 600.195 316.297 613.042 310.692C614.396 310.1 615.76 309.523 617.127 308.979C625.54 305.579 634.247 302.872 643.167 300.892C643.614 300.79 644.061 300.687 644.509 300.592C644.94 300.499 645.38 300.405 645.812 300.321C649.517 299.552 653.268 298.911 657.042 298.41C658.279 298.236 659.52 298.087 660.761 297.947C662.241 297.782 663.722 297.634 665.214 297.51C665.931 297.447 666.649 297.392 667.366 297.337C669.652 297.167 671.951 297.054 674.255 296.981C677.394 296.876 680.552 296.868 683.718 296.942C684.334 296.947 684.959 296.968 685.585 296.997C685.66 296.998 685.752 296.997 685.827 297.006C685.085 300.812 684.222 304.572 683.23 308.287C682.861 309.662 682.482 311.03 682.086 312.391C681.887 313.06 681.688 313.736 681.481 314.405C680.778 316.695 680.024 318.964 679.227 321.222C678.813 322.402 678.39 323.574 677.941 324.741C676.981 327.273 675.967 329.776 674.885 332.253C674.54 333.044 674.187 333.844 673.825 334.628C673.546 335.246 673.266 335.856 672.986 336.466C670.546 341.663 667.851 346.72 664.907 351.619C663.809 353.441 662.676 355.242 661.507 357.021C660.778 358.133 660.033 359.238 659.285 360.327C650.273 373.371 639.358 385.092 626.797 395.074Z" fill="#E7C27C"/>
<path d="M673.001 336.448C673.281 335.838 673.569 335.227 673.84 334.61C674.202 333.826 674.554 333.026 674.899 332.235C675.974 329.759 676.995 327.254 677.956 324.723C678.405 323.556 678.828 322.383 679.242 321.203C680.04 318.954 680.794 316.685 681.495 314.387C681.703 313.718 681.901 313.041 682.101 312.373C682.497 311.012 682.875 309.644 683.245 308.269C684.217 304.64 685.064 300.951 685.796 297.226C685.821 297.098 685.73 296.98 685.6 296.979C684.975 296.958 684.349 296.937 683.733 296.924C680.567 296.85 677.409 296.858 674.269 296.963C671.966 297.035 669.667 297.157 667.381 297.319C666.663 297.374 665.946 297.429 665.229 297.492C663.737 297.616 662.255 297.764 660.776 297.929C659.534 298.061 658.294 298.218 657.056 298.391C653.283 298.893 649.532 299.534 645.827 300.303C645.386 300.388 644.955 300.481 644.524 300.574C644.076 300.669 643.637 300.771 643.182 300.874C639.388 301.713 637.907 306.242 640.325 309.284L662.745 337.493C665.565 341.041 671.084 340.553 673.001 336.448Z" fill="#E7C27C"/>
<path d="M569.289 338.479L540.773 361.142L590.602 423.838L619.117 401.175L569.289 338.479Z" fill="#E7C27C"/>
<path d="M540.77 361.141L539.615 362.062C536.296 364.696 534.703 368.72 534.933 372.77C534.963 373.241 535.01 373.71 535.091 374.184C535.458 376.45 536.413 378.69 537.972 380.646L570.97 422.169C572.148 423.647 573.555 424.837 575.096 425.697C575.475 425.917 575.869 426.118 576.278 426.294C580.582 428.199 585.645 427.785 589.441 424.763L590.595 423.841L540.77 361.141Z" fill="#E7C27C"/>
<path d="M659.3 360.308C660.056 359.219 660.802 358.122 661.522 357.003C662.691 355.223 663.824 353.423 664.922 351.601C666.227 349.434 667.477 347.223 668.677 345L635.204 302.884C629.055 304.571 623.016 306.604 617.128 308.987C615.761 309.531 614.397 310.108 613.043 310.7C601.446 315.757 590.441 322.167 580.252 329.843L630.009 392.442C641.223 383.052 651.05 372.245 659.3 360.308Z" fill="#E7C27C"/>
<path d="M580.252 329.843C579.147 330.676 578.05 331.517 576.972 332.373L569.286 338.477L619.111 401.169L626.797 395.065C627.882 394.201 628.942 393.33 630.001 392.443L580.252 329.843Z" fill="#E7C27C"/>
<path d="M617.128 308.987L535.091 374.184C535.019 373.717 534.963 373.241 534.933 372.77L613.042 310.692C614.397 310.108 615.761 309.531 617.128 308.987Z" fill="#B04A00"/>
<path d="M645.813 300.329L540.596 383.95L539.846 383.01L643.168 300.9C643.615 300.798 644.062 300.695 644.51 300.6C644.941 300.507 645.372 300.414 645.813 300.329Z" fill="#B04A00"/>
<path d="M667.367 297.345L547.488 392.621L546.738 391.682L665.215 297.518C665.932 297.455 666.658 297.399 667.367 297.345Z" fill="#B04A00"/>
<path d="M685.586 296.997L554.371 401.284L553.621 400.345L683.718 296.942C684.343 296.955 684.959 296.968 685.586 296.997Z" fill="#B04A00"/>
<path d="M681.488 314.396L561.263 409.947L560.512 409.008L682.093 312.382C681.894 313.05 681.696 313.727 681.488 314.396Z" fill="#B04A00"/>
<path d="M673.841 334.618L568.147 418.619L567.396 417.68L674.9 332.243C674.555 333.034 674.202 333.826 673.841 334.618Z" fill="#B04A00"/>
<path d="M659.3 360.308L576.285 426.285C575.877 426.109 575.483 425.908 575.103 425.688L661.53 357.002C660.802 358.122 660.056 359.219 659.3 360.308Z" fill="#B04A00"/>
<path d="M626.798 395.074C630.918 391.803 634.852 388.335 638.612 384.701L589.747 323.209C585.359 326.049 581.093 329.102 576.973 332.381L572.598 335.852L622.423 398.545L626.798 395.074Z" fill="#87511E"/>
<path d="M548.441 355.055L539.616 362.07C537.83 363.496 536.541 365.32 535.771 367.342L583.446 427.323C585.586 427.027 587.655 426.188 589.449 424.762L598.274 417.746L548.441 355.055Z" fill="#87511E"/>
<path d="M679.243 321.212L660.762 297.955C665.225 297.451 669.73 297.118 674.263 296.981L683.238 308.278C682.079 312.658 680.74 316.973 679.243 321.212Z" fill="#87511E"/>
<path d="M673.001 336.448L644.51 300.6C648.644 299.714 652.835 298.979 657.051 298.417L677.956 324.723C676.45 328.705 674.796 332.619 673.001 336.448Z" fill="#87511E"/>
<path d="M622.696 334.697C624.945 334.323 627.586 333.635 628.451 332.227C628.824 331.633 628.762 331.016 628.443 330.483C630.092 329.686 631.804 329.017 633.576 328.532C633.965 328.427 634.392 328.301 634.617 327.971C634.9 327.552 634.733 326.962 634.38 326.598C634.029 326.243 633.537 326.059 633.063 325.89C631.52 325.338 629.828 324.792 628.277 325.329C627.329 325.656 626.568 326.356 625.733 326.905C625.023 327.366 624.253 327.734 623.562 328.219C617.644 326.807 611.297 325.928 604.716 325.612C604.731 326.259 604.62 326.902 604.324 327.513C602.956 330.376 601.407 333.1 599.653 335.677C607.058 336.326 614.929 335.997 622.696 334.697Z" fill="#424242" fill-opacity="0.18"/>
<path d="M651.66 325.255C651.602 324.754 651.542 324.236 651.267 323.814C651 323.392 650.455 323.098 649.983 323.278C649.607 323.423 649.396 323.81 649.199 324.162C647.838 326.684 646.107 328.993 644.083 331.032C639.153 332.688 634.047 333.83 628.878 334.429C628.811 334.419 628.751 334.4 628.683 334.39C627.581 334.251 626.254 334.533 624.956 334.854C618.879 336.342 612.642 338.561 606.469 341.421C606.784 341.988 606.979 342.609 607.005 343.288C607.114 346.461 607.002 349.589 606.647 352.691C613.501 349.829 620.331 345.889 626.615 341.147C627.488 340.486 628.401 339.721 629.136 338.925C630.565 339.165 632.008 339.295 633.451 339.184C637.319 338.881 641.044 337.312 644.16 334.972C644.299 335.025 644.444 335.06 644.587 335.079C645.494 335.18 646.389 334.733 647.095 334.139C647.792 333.546 648.358 332.808 649.018 332.177C649.738 331.481 650.594 330.897 651.125 330.054C651.999 328.654 651.839 326.883 651.66 325.255Z" fill="#424242" fill-opacity="0.18"/>
<path d="M625.75 328.657C628.312 327.013 631.121 325.76 634.058 324.951C634.446 324.846 634.874 324.72 635.099 324.39C635.381 323.971 635.214 323.381 634.862 323.017C634.511 322.662 634.019 322.478 633.545 322.309C632.002 321.757 630.31 321.211 628.759 321.748C627.811 322.076 627.05 322.775 626.215 323.324C625.45 323.824 624.599 324.208 623.864 324.756C623.129 325.303 622.492 326.073 622.384 326.99C622.275 327.898 622.876 328.919 623.785 329.036L625.75 328.657Z" fill="#EFF3F7"/>
<path d="M604.806 323.933C603.438 326.796 601.889 329.519 600.135 332.096C607.539 332.736 615.411 332.407 623.177 331.108C625.426 330.734 628.067 330.046 628.932 328.638C629.512 327.699 629.057 326.722 628.137 326.083C627.225 325.442 625.917 325.083 624.613 324.764C618.538 323.268 611.988 322.351 605.189 322.024C605.213 322.678 605.102 323.321 604.806 323.933Z" fill="#FFD7B1"/>
<path d="M607.494 339.698C607.603 342.871 607.492 345.999 607.136 349.102C613.991 346.239 620.82 342.299 627.104 337.557C628.928 336.178 630.949 334.355 631.067 332.706C631.149 331.609 630.285 330.955 629.182 330.808C628.079 330.669 626.752 330.951 625.454 331.271C619.377 332.759 613.14 334.978 606.968 337.839C607.273 338.399 607.469 339.027 607.494 339.698Z" fill="#FFD7B1"/>
<path d="M644.195 327.829C646.377 325.707 648.235 323.253 649.68 320.573C649.869 320.222 650.088 319.834 650.464 319.689C650.936 319.508 651.481 319.803 651.748 320.225C652.023 320.647 652.083 321.164 652.141 321.666C652.328 323.293 652.48 325.065 651.605 326.457C651.075 327.308 650.219 327.892 649.498 328.579C648.838 329.21 648.272 329.948 647.575 330.542C646.878 331.135 645.983 331.582 645.067 331.482C644.159 331.382 643.297 330.57 643.388 329.655L644.195 327.829Z" fill="#EFF3F7"/>
<path d="M627.649 331.027C633.751 330.451 639.787 329.134 645.577 327.101C646.789 326.672 647.943 328.07 647.2 329.116C647.156 329.179 647.103 329.234 647.051 329.289C643.55 332.772 638.855 335.203 633.94 335.586C631.292 335.792 628.663 335.19 626.076 334.584L627.649 331.027Z" fill="#FFD7B1"/>
<path d="M594.41 323.957C590.164 323.724 586.356 327.288 585.262 331.404C584.16 335.512 585.282 339.93 587.176 343.747C588.707 346.836 590.889 349.793 594.032 351.217C597.114 352.613 600.76 352.34 603.946 351.199C607.141 350.057 610.982 348.734 613.775 346.826C611.699 340.766 608.837 333.837 606.513 327.877C605.831 326.124 605.065 324.281 603.534 323.187C601.134 321.457 597.352 324.12 594.41 323.957Z" fill="#011D32"/>
<path d="M610.949 337.159C609.935 343.985 608.921 350.81 607.907 357.636C607.778 358.513 606.454 358.654 605.795 358.046C604.717 352.826 603.374 347.541 601.153 342.692L610.949 337.159Z" fill="#FFD7B1"/>
<path d="M607.68 357.376L610.061 359.823L610.801 362.409L610.051 362.384L608.911 360.545L607.426 365.156L606.903 367.819L606.336 367.801L606.529 365.653L606.961 362.659L604.207 361.97L605.628 357.307L607.68 357.376Z" fill="#FFD7B1"/>
<path d="M606.058 364.354L605.068 367.761L604.517 367.65L605.096 364.708L605.934 362.031L607.072 362.358L606.058 364.354Z" fill="#FFD7B1"/>
<path d="M605.202 363.525L604.212 366.932L603.661 366.821L604.24 363.879L605.078 361.202L606.225 361.528L605.202 363.525Z" fill="#FFD7B1"/>
<path d="M604.881 362.144L603.56 364.562L603.16 364.386L604.094 362.248L605.186 360.368L605.994 360.803L604.881 362.144Z" fill="#FFD7B1"/>
<path d="M560.752 318.108C565.938 319.353 582.57 323.335 587.337 325.71L589.779 316.207C582.926 316.999 568.087 315.231 561.233 316.016C560.346 316.121 560.17 317.435 560.752 318.108Z" fill="#FFD7B1"/>
<path d="M561.482 316.257L559.108 313.792L558.79 313.691C558.524 314.025 558.294 314.381 558.098 314.749L558.356 314.923L557.96 315.037C557.315 316.398 557.129 317.946 557.327 319.431L561.487 318.309L561.482 316.257Z" fill="#FFD7B1"/>
<path d="M556.556 312.958L556.555 313.707L558.105 314.74C558.301 314.372 558.531 314.016 558.797 313.682L556.556 312.958Z" fill="#A4B1BA"/>
<path d="M557.959 315.029L553.7 316.244L551.018 316.687L551.016 317.252L553.173 317.128L556.174 316.795L556.186 316.835L554.455 317.648L551.018 318.524L551.107 319.08L554.077 318.6L556.43 317.95L556.434 317.983L555.258 318.532L551.822 319.407L551.91 319.964L554.88 319.484L556.19 319.121L554.173 320.145L554.338 320.553L556.504 319.688L556.773 319.545L556.785 319.585L557.336 319.439C557.128 317.938 557.314 316.39 557.959 315.029Z" fill="#A4B1BA"/>
<path d="M611.291 299.562C614.575 300.897 617.303 303.916 617.615 307.451C617.91 310.821 616.075 314.254 617.038 317.491C617.689 319.679 619.487 321.286 620.811 323.141C622.135 324.995 622.958 327.664 621.559 329.466C620.764 330.493 619.447 330.957 618.44 331.781C616.527 333.343 615.958 335.969 614.926 338.208C611.967 344.613 604.062 348.278 597.265 346.389C592.914 345.186 588.866 340.852 590.189 336.539C590.533 335.407 591.227 334.366 591.35 333.181C591.796 328.74 584.752 327.29 583.397 323.045C582.479 320.178 584.566 317.193 586.941 315.335C589.315 313.477 592.168 312.078 593.828 309.56C596.153 306.037 596.167 301.098 600.548 299.106C603.524 297.778 608.371 298.375 611.291 299.562Z" fill="#3A0E00"/>
<path d="M559.401 312.317C559.445 312.263 559.373 312.212 559.327 312.241C556.087 314.011 553.755 320.96 558.942 321.955C559.12 321.987 559.267 321.715 559.098 321.607C557.412 320.537 556.084 319.14 556.5 316.979C556.858 315.073 558.222 313.748 559.401 312.317Z" fill="#FAFAFA"/>
<path d="M555.405 314.844C554.167 315.84 553.397 317.289 553.366 318.896C553.337 320.187 553.895 321.777 555.433 321.607C555.605 321.59 555.613 321.331 555.443 321.299C552.35 320.701 554.119 316.277 555.489 314.927C555.526 314.882 555.452 314.806 555.405 314.844Z" fill="#FAFAFA"/>
<path d="M552.037 322.146C550.651 321.004 549.937 319.263 551.279 317.716C551.302 317.697 551.266 317.668 551.242 317.687C549.861 319.005 549.804 321.679 551.872 322.411C552.035 322.462 552.182 322.264 552.037 322.146Z" fill="#FAFAFA"/>
<path d="M562.549 319.957C561.949 320.358 561.438 320.733 560.701 320.84C560.635 320.847 560.645 320.945 560.711 320.947C561.427 320.959 562.26 320.726 562.68 320.102C562.746 320.012 562.651 319.897 562.549 319.957Z" fill="#FAFAFA"/>
<path d="M560.883 310.598C560.746 310.562 560.651 310.771 560.767 310.85C562.053 311.744 562.627 312.909 562.376 314.48C562.367 314.556 562.47 314.587 562.505 314.517C563.28 313.126 562.431 311.033 560.883 310.598Z" fill="#FAFAFA"/>
<path d="M641.783 398.141C631.077 407.63 620.084 416.741 608.447 425.068C602.652 429.212 596.746 433.243 590.668 436.967C584.362 440.83 577.606 444.257 570.234 445.433C561.766 446.786 554.24 444.495 547.329 439.633C547.195 439.539 547.039 439.729 547.166 439.832C558.455 449.336 573.176 447.176 585.402 440.752C591.933 437.315 598.088 433.118 604.153 428.929C610.561 424.507 616.813 419.86 622.903 415.004C629.509 409.74 635.934 404.244 642.033 398.398C642.186 398.267 641.943 398 641.783 398.141Z" fill="#FAFAFA"/>
<path d="M686.502 339.38C684.043 344.721 681.809 350.156 679.142 355.409C676.49 360.645 673.6 365.754 670.481 370.729C664.244 380.686 657.085 390.063 649.167 398.75C648.986 398.942 649.303 399.202 649.483 399.009C657.574 390.296 664.844 380.867 671.178 370.792C677.31 361.037 683.183 350.509 686.893 339.557C686.976 339.3 686.617 339.119 686.502 339.38Z" fill="#FAFAFA"/>
<path d="M691.564 328.726C690.948 332.552 690.163 336.338 689.071 340.054C687.911 344.002 686.29 347.747 684.888 351.602C684.823 351.783 685.067 351.892 685.158 351.725C689.032 344.904 690.994 336.504 691.834 328.765C691.85 328.597 691.596 328.548 691.564 328.726Z" fill="#FAFAFA"/>
<path d="M681.906 343.97C678.367 350.391 674.623 356.684 671.038 363.068C670.932 363.253 671.234 363.447 671.357 363.269C675.424 357.219 678.929 350.61 682.011 344.018C682.038 343.957 681.942 343.908 681.906 343.97Z" fill="#FAFAFA"/>
<path d="M646.631 387.424C644.16 390.314 641.734 393.241 639.073 395.976C636.253 398.867 633.187 401.459 630.19 404.161C630.015 404.32 630.211 404.616 630.413 404.471C636.684 400.021 642.501 393.929 646.786 387.558C646.857 387.443 646.72 387.316 646.631 387.424Z" fill="#FAFAFA"/>
<path d="M633.983 415.676C631.607 417.851 629.317 420.141 626.997 422.376C626.914 422.459 627.05 422.57 627.133 422.487C629.454 420.26 631.829 418.078 634.095 415.798C634.172 415.732 634.052 415.611 633.983 415.676Z" fill="#FAFAFA"/>
<path d="M584.334 448.372C579.796 449.54 575.266 450.533 570.593 450.933C566.15 451.31 561.787 450.982 557.349 450.826C557.107 450.817 557.112 451.199 557.333 451.244C561.771 452.155 566.552 452.01 571.048 451.578C575.592 451.141 580.149 450.245 584.436 448.637C584.621 448.576 584.513 448.33 584.334 448.372Z" fill="#FAFAFA"/>
<path d="M536.27 351.616C528.881 357.948 521.622 365.164 517.168 373.921C513.285 381.557 511.116 391.881 516.436 399.379C516.485 399.449 516.593 399.372 516.545 399.302C511.541 390.982 514.012 380.603 518.494 372.625C523.06 364.497 530.013 358.383 536.473 351.82C536.586 351.709 536.4 351.503 536.27 351.616Z" fill="#FAFAFA"/>
<path d="M546.252 340.121C534.434 345.64 523.871 354.641 515.957 364.949C515.912 365.003 515.994 365.07 516.038 365.015C524.615 354.766 534.766 346.878 546.385 340.373C546.526 340.293 546.394 340.048 546.252 340.121Z" fill="#FAFAFA"/>
<path d="M561.38 333.473C559.642 334.711 557.957 335.901 556.041 336.857C555.906 336.921 555.987 337.145 556.13 337.081C558.043 336.175 559.947 335.096 561.524 333.666C561.631 333.564 561.504 333.378 561.38 333.473Z" fill="#FAFAFA"/>
<path d="M506.86 395.548C503.707 400.343 503.362 405.963 505.452 411.24C506.696 414.383 508.509 417.385 508.827 420.82C509.125 424.131 507.988 427.403 506.113 430.101C504.384 432.593 502.054 434.646 499.42 436.156C497.172 437.452 494.65 438.411 492.754 440.238C488.818 444.022 490.164 450.005 492.425 454.335C492.516 454.5 492.757 454.418 492.705 454.223C491.779 451.282 490.409 448.302 490.842 445.142C491.324 441.561 494.092 439.647 497.045 438.089C501.427 435.772 505.343 433.12 507.727 428.61C510.215 423.898 509.626 419.252 507.541 414.515C506.242 411.577 504.854 408.748 504.611 405.489C504.347 402.008 505.237 398.603 506.991 395.61C507.035 395.547 506.91 395.468 506.86 395.548Z" fill="#FAFAFA"/>
<path d="M540.728 449.86C537.371 454.949 531.534 458.092 525.367 456.514C520.284 455.218 515.168 451.273 510.307 455.449C505.952 459.193 505.64 465.225 503.31 470.113C499.852 477.349 491.078 479.297 483.826 477.428C483.766 477.409 483.75 477.502 483.81 477.521C489.577 479.256 496.774 478.487 501.189 474.007C505.838 469.295 505.246 461.782 509.602 456.875C515.265 450.491 521.892 457.426 528.449 457.494C533.483 457.549 538.897 454.747 541.145 450.117C541.27 449.872 540.887 449.619 540.728 449.86Z" fill="#FAFAFA"/>
<path d="M535.316 435.289C532.852 437.663 530.816 440.243 527.12 440.438C524.044 440.604 521.086 439.361 518.01 439.444C513.418 439.57 509.21 442.55 507.488 446.779C507.455 446.865 507.578 446.928 507.627 446.84C509.006 444.001 511.335 441.682 514.333 440.576C517.379 439.449 520.319 440.011 523.416 440.558C525.768 440.972 528.16 441.198 530.392 440.161C532.465 439.197 534.292 437.352 535.64 435.531C535.769 435.326 535.49 435.113 535.316 435.289Z" fill="#FAFAFA"/>
<path d="M493.865 429.554C486.076 432.127 479.845 438.9 477.613 446.762C476.863 449.414 476.743 452.285 475.392 454.739C473.97 457.308 471.493 459.143 469.179 460.854C464.683 464.195 459.797 466.628 454.952 469.381C454.622 469.572 454.922 470.082 455.267 469.957C460.183 468.161 464.869 465.058 469.076 461.994C472.726 459.336 476.128 456.536 477.252 451.976C477.855 449.522 478.157 447.048 479.066 444.672C479.931 442.424 481.108 440.312 482.562 438.396C485.514 434.494 489.462 431.656 493.955 429.786C494.098 429.722 494.018 429.505 493.865 429.554Z" fill="#FAFAFA"/>
<path d="M513.035 485.342C509.165 489.867 505.393 493.719 498.948 493.273C494.202 492.941 489.715 491.369 484.9 491.684C476.577 492.233 468.766 496.587 463.923 503.363C463.828 503.489 464.018 503.644 464.113 503.518C469.842 495.79 479.566 491.286 489.19 492.278C493.952 492.767 498.763 494.746 503.57 493.518C507.703 492.457 511.118 489.116 513.389 485.639C513.547 485.39 513.228 485.114 513.035 485.342Z" fill="#FAFAFA"/>
<path d="M490.28 403.562C490.145 403.376 489.804 403.543 489.918 403.765C492.987 409.859 487.24 414.323 482.541 417.044C478.652 419.295 474.876 421.609 473.309 426.054C471.865 430.155 472.252 434.613 471.712 438.865C470.994 444.572 467.983 449.386 462.158 450.899C462.085 450.914 462.13 451.034 462.203 451.011C466.858 449.848 470.261 446.391 471.504 441.778C472.893 436.619 471.926 431.022 473.834 425.985C476.091 420.041 482.347 418.427 486.925 414.828C490.162 412.285 492.99 407.481 490.28 403.562Z" fill="#FAFAFA"/>
<path d="M640.751 429.505C628.301 432.852 617.331 439.192 607.374 447.277C597.672 455.161 588.076 464.116 575.391 466.605C568.893 467.877 562.078 467.302 556.352 463.81C556.281 463.767 556.194 463.892 556.273 463.942C565.729 469.897 577.74 467.825 587.14 462.821C598.885 456.57 607.86 446.314 619.162 439.383C625.936 435.224 633.261 432.082 640.862 429.785C641.047 429.725 640.937 429.454 640.751 429.505Z" fill="#FAFAFA"/>
<path d="M517.188 346.73C514.175 351.686 512.008 356.457 506.883 359.654C502.61 362.317 498.298 364.41 494.814 368.149C491.683 371.504 489.304 375.565 487.938 379.941C486.906 383.26 485.826 387.765 488.823 390.384C488.923 390.473 489.041 390.32 488.956 390.221C485.483 386.569 488.352 379.675 490.258 375.877C492.323 371.756 495.291 368.093 498.95 365.284C502.671 362.427 507.269 360.854 510.712 357.626C513.774 354.752 516.003 350.764 517.484 346.867C517.547 346.669 517.295 346.562 517.188 346.73Z" fill="#FAFAFA"/>
<path d="M519.523 333.248C515.895 335.538 512.738 338.63 510.161 342.038C510.101 342.11 510.21 342.199 510.269 342.126C513.074 338.829 516.23 336.062 519.687 333.472C519.834 333.366 519.672 333.158 519.523 333.248Z" fill="#FAFAFA"/>
<path d="M546.94 318.798C544.946 318.806 544.749 320.754 544.381 322.304C543.556 325.786 538.691 327.593 535.869 329.296C535.696 329.397 535.858 329.688 536.041 329.603C538.521 328.466 541.132 326.984 543.208 325.214C543.844 324.668 544.302 324.099 544.597 323.304C545.171 321.726 544.727 319.277 546.967 318.903C547.024 318.898 547.015 318.799 546.94 318.798Z" fill="#FAFAFA"/>
<path d="M555.007 325.914C554.758 329.164 551.105 328.963 548.714 329.077C546.712 329.169 544.998 329.897 543.18 330.669C539.56 332.211 535.488 333.465 532.387 335.961C532.349 335.998 532.389 336.061 532.436 336.031C534.648 334.547 537.094 333.571 539.535 332.546C542.2 331.432 545.07 329.79 547.964 329.468C550.397 329.2 555.4 329.773 555.282 325.928C555.291 325.761 555.023 325.746 555.007 325.914Z" fill="#FAFAFA"/>
<path d="M637.589 290.228C633.725 291.57 629.9 292.974 625.952 294.059C625.709 294.124 625.853 294.484 626.088 294.419C630.041 293.384 633.97 292.194 637.701 290.516C637.883 290.432 637.781 290.159 637.589 290.228Z" fill="#FAFAFA"/>
<path d="M596.409 379.598C596.54 376.667 596.141 373.59 594.471 371.18C592.334 368.093 588.548 366.635 584.912 365.684C580.184 364.453 575.171 363.781 570.428 364.97C558.021 368.079 552.56 387.227 561.563 396.477C565.482 400.507 571.302 402.27 576.91 401.743C576.547 402.195 576.142 402.626 575.751 403.048C574.816 404.089 573.94 405.473 574.381 406.8C575.902 405.717 578.33 406.314 579.17 407.984C578.859 405.946 578.655 403.572 580.115 402.13C580.577 401.676 581.175 401.342 581.485 400.779L581.484 400.771C582.416 400.454 583.334 400.071 584.202 399.61C585.411 398.974 586.532 398.214 587.586 397.369C587.681 397.409 587.775 397.433 587.863 397.482C589.093 398.141 589.667 399.563 590.282 400.815C590.906 402.066 591.87 403.391 593.266 403.476C592.82 401.667 594.278 399.626 596.131 399.458C594.123 398.993 591.844 398.307 591.04 396.417C590.801 395.851 590.703 395.204 590.338 394.717C593.99 390.578 596.154 385.117 596.409 379.598Z" fill="#424242" fill-opacity="0.18"/>
<path d="M556.77 394.005C562.475 399.86 572.191 400.935 579.434 397.144C586.677 393.345 591.234 385.293 591.608 377.135C591.739 374.204 591.34 371.127 589.67 368.717C587.533 365.63 583.747 364.172 580.111 363.221C575.383 361.99 570.37 361.318 565.627 362.507C553.219 365.608 547.766 384.755 556.77 394.005Z" fill="#FFFAD0"/>
<path d="M582.383 380.579C583.073 375.39 579.427 370.623 574.238 369.933C569.049 369.242 564.283 372.888 563.592 378.077C562.901 383.266 566.548 388.032 571.737 388.723C576.925 389.414 581.692 385.767 582.383 380.579Z" fill="#FFC6BC"/>
<path d="M581.751 380.494C582.396 375.654 578.994 371.208 574.154 370.564C569.314 369.919 564.868 373.321 564.223 378.161C563.579 383.001 566.98 387.447 571.821 388.092C576.661 388.736 581.107 385.335 581.751 380.494Z" fill="#FFFAD0"/>
<path d="M578 393.937C579.496 394.852 581.549 394.181 583.094 395.008C584.324 395.667 584.898 397.089 585.514 398.341C586.137 399.592 587.101 400.917 588.497 401.002C588.05 399.184 589.509 397.152 591.363 396.983C589.355 396.519 587.075 395.832 586.271 393.943C586.02 393.344 585.936 392.663 585.52 392.164C584.603 391.05 582.84 391.542 581.397 391.412C579.938 391.284 577.519 387.12 576.446 387.443C574.623 387.999 576.912 393.281 578 393.937Z" fill="#FFC6BC"/>
<path d="M572.284 391.965C571.991 393.69 573.371 395.356 573.17 397.096C573.01 398.484 571.902 399.542 570.967 400.583C570.032 401.624 569.156 403.008 569.596 404.336C571.117 403.253 573.546 403.85 574.386 405.52C574.074 403.481 573.87 401.108 575.33 399.665C575.792 399.212 576.391 398.878 576.7 398.315C577.397 397.048 576.287 395.596 575.874 394.208C575.452 392.804 578.432 389.024 577.737 388.137C576.556 386.634 572.5 390.713 572.284 391.965Z" fill="#FFC6BC"/>
</g>
</g>
<defs>
<filter id="filter0_dii" x="-95" y="-195" width="1297.6" height="1275.13" filterUnits="userSpaceOnUse" color-interpolation-filters="sRGB">
<feFlood flood-opacity="0" result="BackgroundImageFix"/>
<feColorMatrix in="SourceAlpha" type="matrix" values="0 0 0 0 0 0 0 0 0 0 0 0 0 0 0 0 0 0 127 0"/>
<feOffset dx="4" dy="6"/>
<feGaussianBlur stdDeviation="15"/>
<feColorMatrix type="matrix" values="0 0 0 0 0 0 0 0 0 0.180392 0 0 0 0 0.337255 0 0 0 0.65 0"/>
<feBlend mode="normal" in2="BackgroundImageFix" result="effect1_dropShadow"/>
<feBlend mode="normal" in="SourceGraphic" in2="effect1_dropShadow" result="shape"/>
<feColorMatrix in="SourceAlpha" type="matrix" values="0 0 0 0 0 0 0 0 0 0 0 0 0 0 0 0 0 0 127 0" result="hardAlpha"/>
<feOffset dx="12" dy="12"/>
<feGaussianBlur stdDeviation="28"/>
<feComposite in2="hardAlpha" operator="arithmetic" k2="-1" k3="1"/>
<feColorMatrix type="matrix" values="0 0 0 0 0.0470588 0 0 0 0 0.121569 0 0 0 0 0.184314 0 0 0 1 0"/>
<feBlend mode="normal" in2="shape" result="effect2_innerShadow"/>
<feColorMatrix in="SourceAlpha" type="matrix" values="0 0 0 0 0 0 0 0 0 0 0 0 0 0 0 0 0 0 127 0" result="hardAlpha"/>
<feOffset dx="-2" dy="-4"/>
<feGaussianBlur stdDeviation="10.5"/>
<feComposite in2="hardAlpha" operator="arithmetic" k2="-1" k3="1"/>
<feColorMatrix type="matrix" values="0 0 0 0 0 0 0 0 0 0.180392 0 0 0 0 0.337255 0 0 0 1 0"/>
<feBlend mode="normal" in2="effect2_innerShadow" result="effect3_innerShadow"/>
</filter>
<filter id="filter1_ii" x="21.5244" y="-41.9143" width="1009.86" height="994.425" filterUnits="userSpaceOnUse" color-interpolation-filters="sRGB">
<feFlood flood-opacity="0" result="BackgroundImageFix"/>
<feBlend mode="normal" in="SourceGraphic" in2="BackgroundImageFix" result="shape"/>
<feColorMatrix in="SourceAlpha" type="matrix" values="0 0 0 0 0 0 0 0 0 0 0 0 0 0 0 0 0 0 127 0" result="hardAlpha"/>
<feOffset dx="12" dy="12"/>
<feGaussianBlur stdDeviation="28"/>
<feComposite in2="hardAlpha" operator="arithmetic" k2="-1" k3="1"/>
<feColorMatrix type="matrix" values="0 0 0 0 0.0470588 0 0 0 0 0.121569 0 0 0 0 0.184314 0 0 0 1 0"/>
<feBlend mode="normal" in2="shape" result="effect1_innerShadow"/>
<feColorMatrix in="SourceAlpha" type="matrix" values="0 0 0 0 0 0 0 0 0 0 0 0 0 0 0 0 0 0 127 0" result="hardAlpha"/>
<feOffset dx="-2" dy="-4"/>
<feGaussianBlur stdDeviation="10.5"/>
<feComposite in2="hardAlpha" operator="arithmetic" k2="-1" k3="1"/>
<feColorMatrix type="matrix" values="0 0 0 0 0 0 0 0 0 0.180392 0 0 0 0 0.337255 0 0 0 1 0"/>
<feBlend mode="normal" in2="effect1_innerShadow" result="effect2_innerShadow"/>
</filter>
<filter id="filter2_ii" x="133.251" y="59.9539" width="780.965" height="788.639" filterUnits="userSpaceOnUse" color-interpolation-filters="sRGB">
<feFlood flood-opacity="0" result="BackgroundImageFix"/>
<feBlend mode="normal" in="SourceGraphic" in2="BackgroundImageFix" result="shape"/>
<feColorMatrix in="SourceAlpha" type="matrix" values="0 0 0 0 0 0 0 0 0 0 0 0 0 0 0 0 0 0 127 0" result="hardAlpha"/>
<feOffset dx="12" dy="12"/>
<feGaussianBlur stdDeviation="28"/>
<feComposite in2="hardAlpha" operator="arithmetic" k2="-1" k3="1"/>
<feColorMatrix type="matrix" values="0 0 0 0 0.0470588 0 0 0 0 0.121569 0 0 0 0 0.184314 0 0 0 1 0"/>
<feBlend mode="normal" in2="shape" result="effect1_innerShadow"/>
<feColorMatrix in="SourceAlpha" type="matrix" values="0 0 0 0 0 0 0 0 0 0 0 0 0 0 0 0 0 0 127 0" result="hardAlpha"/>
<feOffset dx="-2" dy="-4"/>
<feGaussianBlur stdDeviation="10.5"/>
<feComposite in2="hardAlpha" operator="arithmetic" k2="-1" k3="1"/>
<feColorMatrix type="matrix" values="0 0 0 0 0 0 0 0 0 0.180392 0 0 0 0 0.337255 0 0 0 1 0"/>
<feBlend mode="normal" in2="effect1_innerShadow" result="effect2_innerShadow"/>
</filter>
<filter id="filter3_ii" x="274.738" y="249.311" width="399.993" height="416.205" filterUnits="userSpaceOnUse" color-interpolation-filters="sRGB">
<feFlood flood-opacity="0" result="BackgroundImageFix"/>
<feBlend mode="normal" in="SourceGraphic" in2="BackgroundImageFix" result="shape"/>
<feColorMatrix in="SourceAlpha" type="matrix" values="0 0 0 0 0 0 0 0 0 0 0 0 0 0 0 0 0 0 127 0" result="hardAlpha"/>
<feOffset dx="12" dy="12"/>
<feGaussianBlur stdDeviation="28"/>
<feComposite in2="hardAlpha" operator="arithmetic" k2="-1" k3="1"/>
<feColorMatrix type="matrix" values="0 0 0 0 0.0470588 0 0 0 0 0.121569 0 0 0 0 0.184314 0 0 0 1 0"/>
<feBlend mode="normal" in2="shape" result="effect1_innerShadow"/>
<feColorMatrix in="SourceAlpha" type="matrix" values="0 0 0 0 0 0 0 0 0 0 0 0 0 0 0 0 0 0 127 0" result="hardAlpha"/>
<feOffset dx="-2" dy="-4"/>
<feGaussianBlur stdDeviation="10.5"/>
<feComposite in2="hardAlpha" operator="arithmetic" k2="-1" k3="1"/>
<feColorMatrix type="matrix" values="0 0 0 0 0 0 0 0 0 0.180392 0 0 0 0 0.337255 0 0 0 1 0"/>
<feBlend mode="normal" in2="effect1_innerShadow" result="effect2_innerShadow"/>
</filter>
<filter id="filter4_ii" x="376.957" y="332.035" width="268.239" height="226.232" filterUnits="userSpaceOnUse" color-interpolation-filters="sRGB">
<feFlood flood-opacity="0" result="BackgroundImageFix"/>
<feBlend mode="normal" in="SourceGraphic" in2="BackgroundImageFix" result="shape"/>
<feColorMatrix in="SourceAlpha" type="matrix" values="0 0 0 0 0 0 0 0 0 0 0 0 0 0 0 0 0 0 127 0" result="hardAlpha"/>
<feOffset dx="5" dy="5"/>
<feGaussianBlur stdDeviation="15"/>
<feComposite in2="hardAlpha" operator="arithmetic" k2="-1" k3="1"/>
<feColorMatrix type="matrix" values="0 0 0 0 0 0 0 0 0 0.180392 0 0 0 0 0.278431 0 0 0 1 0"/>
<feBlend mode="normal" in2="shape" result="effect1_innerShadow"/>
<feColorMatrix in="SourceAlpha" type="matrix" values="0 0 0 0 0 0 0 0 0 0 0 0 0 0 0 0 0 0 127 0" result="hardAlpha"/>
<feOffset dx="4" dy="1"/>
<feGaussianBlur stdDeviation="10"/>
<feComposite in2="hardAlpha" operator="arithmetic" k2="-1" k3="1"/>
<feColorMatrix type="matrix" values="0 0 0 0 0 0 0 0 0 0.178765 0 0 0 0 0.279167 0 0 0 1 0"/>
<feBlend mode="normal" in2="effect1_innerShadow" result="effect2_innerShadow"/>
</filter>
<clipPath id="clip0">
<rect width="263.718" height="195.417" fill="white" transform="translate(438.838 309.695) rotate(-5.70313)"/>
</clipPath>
</defs>
</svg>
